%FSLAX25Y25*%
%MOIN*%
G70*
G01*
G75*
G04 Layer_Color=8421504*
G04:AMPARAMS|DCode=10|XSize=78.74mil|YSize=47.24mil|CornerRadius=0mil|HoleSize=0mil|Usage=FLASHONLY|Rotation=45.000|XOffset=0mil|YOffset=0mil|HoleType=Round|Shape=Rectangle|*
%AMROTATEDRECTD10*
4,1,4,-0.01114,-0.04454,-0.04454,-0.01114,0.01114,0.04454,0.04454,0.01114,-0.01114,-0.04454,0.0*
%
%ADD10ROTATEDRECTD10*%

G04:AMPARAMS|DCode=11|XSize=78.74mil|YSize=47.24mil|CornerRadius=0mil|HoleSize=0mil|Usage=FLASHONLY|Rotation=315.000|XOffset=0mil|YOffset=0mil|HoleType=Round|Shape=Rectangle|*
%AMROTATEDRECTD11*
4,1,4,-0.04454,0.01114,-0.01114,0.04454,0.04454,-0.01114,0.01114,-0.04454,-0.04454,0.01114,0.0*
%
%ADD11ROTATEDRECTD11*%

%ADD12O,0.01181X0.08268*%
%ADD13O,0.08268X0.01181*%
G04:AMPARAMS|DCode=14|XSize=59.06mil|YSize=51.18mil|CornerRadius=0mil|HoleSize=0mil|Usage=FLASHONLY|Rotation=45.000|XOffset=0mil|YOffset=0mil|HoleType=Round|Shape=Rectangle|*
%AMROTATEDRECTD14*
4,1,4,-0.00278,-0.03897,-0.03897,-0.00278,0.00278,0.03897,0.03897,0.00278,-0.00278,-0.03897,0.0*
%
%ADD14ROTATEDRECTD14*%

G04:AMPARAMS|DCode=15|XSize=35.43mil|YSize=37.4mil|CornerRadius=0mil|HoleSize=0mil|Usage=FLASHONLY|Rotation=45.000|XOffset=0mil|YOffset=0mil|HoleType=Round|Shape=Rectangle|*
%AMROTATEDRECTD15*
4,1,4,0.00070,-0.02575,-0.02575,0.00070,-0.00070,0.02575,0.02575,-0.00070,0.00070,-0.02575,0.0*
%
%ADD15ROTATEDRECTD15*%

G04:AMPARAMS|DCode=16|XSize=35.43mil|YSize=37.4mil|CornerRadius=0mil|HoleSize=0mil|Usage=FLASHONLY|Rotation=45.000|XOffset=0mil|YOffset=0mil|HoleType=Round|Shape=Rectangle|*
%AMROTATEDRECTD16*
4,1,4,0.00070,-0.02575,-0.02575,0.00070,-0.00070,0.02575,0.02575,-0.00070,0.00070,-0.02575,0.0*
%
%ADD16ROTATEDRECTD16*%

G04:AMPARAMS|DCode=17|XSize=59.06mil|YSize=51.18mil|CornerRadius=0mil|HoleSize=0mil|Usage=FLASHONLY|Rotation=135.000|XOffset=0mil|YOffset=0mil|HoleType=Round|Shape=Rectangle|*
%AMROTATEDRECTD17*
4,1,4,0.03897,-0.00278,0.00278,-0.03897,-0.03897,0.00278,-0.00278,0.03897,0.03897,-0.00278,0.0*
%
%ADD17ROTATEDRECTD17*%

G04:AMPARAMS|DCode=18|XSize=35.43mil|YSize=37.4mil|CornerRadius=0mil|HoleSize=0mil|Usage=FLASHONLY|Rotation=135.000|XOffset=0mil|YOffset=0mil|HoleType=Round|Shape=Rectangle|*
%AMROTATEDRECTD18*
4,1,4,0.02575,0.00070,-0.00070,-0.02575,-0.02575,-0.00070,0.00070,0.02575,0.02575,0.00070,0.0*
%
%ADD18ROTATEDRECTD18*%

G04:AMPARAMS|DCode=19|XSize=35.43mil|YSize=37.4mil|CornerRadius=0mil|HoleSize=0mil|Usage=FLASHONLY|Rotation=135.000|XOffset=0mil|YOffset=0mil|HoleType=Round|Shape=Rectangle|*
%AMROTATEDRECTD19*
4,1,4,0.02575,0.00070,-0.00070,-0.02575,-0.02575,-0.00070,0.00070,0.02575,0.02575,0.00070,0.0*
%
%ADD19ROTATEDRECTD19*%

%ADD20R,0.07480X0.02756*%
%ADD21O,0.02362X0.00984*%
%ADD22O,0.00984X0.02362*%
%ADD23R,0.11024X0.10630*%
%ADD24R,0.05906X0.05118*%
%ADD25R,0.03543X0.03740*%
%ADD26R,0.03543X0.03740*%
%ADD27C,0.01063*%
%ADD28C,0.01378*%
%ADD29C,0.01181*%
%ADD30C,0.08268*%
%ADD31C,0.05906*%
%ADD32R,0.05906X0.05906*%
%ADD33R,0.05906X0.05906*%
%ADD34C,0.31496*%
%ADD35C,0.02362*%
%ADD36R,0.01575X0.03937*%
%ADD37R,0.01575X0.03937*%
%ADD38R,0.06000X0.06000*%
%ADD39R,0.03400X0.10000*%
%ADD40R,0.03400X0.05000*%
%ADD41R,0.05118X0.05906*%
%ADD42R,0.07874X0.05906*%
%ADD43C,0.08000*%
%ADD44C,0.01000*%
%ADD45C,0.00984*%
%ADD46C,0.02362*%
%ADD47C,0.00787*%
D10*
X222753Y950640D02*
D03*
X233713Y961601D02*
D03*
X532065Y663542D02*
D03*
X521105Y652581D02*
D03*
D11*
X520640Y961247D02*
D03*
X531601Y950287D02*
D03*
X234360Y652753D02*
D03*
X223399Y663713D02*
D03*
D12*
X368173Y783358D02*
D03*
X370142D02*
D03*
X372110Y783358D02*
D03*
X374079D02*
D03*
X376047D02*
D03*
X378016D02*
D03*
X379984D02*
D03*
X381953D02*
D03*
X383921D02*
D03*
X385890D02*
D03*
X387858Y783358D02*
D03*
X389827D02*
D03*
Y815642D02*
D03*
X387858D02*
D03*
X385890Y815642D02*
D03*
X383921D02*
D03*
X381953D02*
D03*
X379984D02*
D03*
X378016D02*
D03*
X376047D02*
D03*
X374079D02*
D03*
X372110D02*
D03*
X370142Y815642D02*
D03*
X368173D02*
D03*
D13*
X395142Y788673D02*
D03*
Y790642D02*
D03*
X395142Y792610D02*
D03*
Y794579D02*
D03*
Y796547D02*
D03*
Y798516D02*
D03*
Y800484D02*
D03*
Y802453D02*
D03*
Y804421D02*
D03*
Y806390D02*
D03*
X395142Y808358D02*
D03*
Y810327D02*
D03*
X362858D02*
D03*
Y808358D02*
D03*
X362858Y806390D02*
D03*
Y804421D02*
D03*
Y802453D02*
D03*
Y800484D02*
D03*
Y798516D02*
D03*
Y796547D02*
D03*
Y794579D02*
D03*
Y792610D02*
D03*
X362858Y790642D02*
D03*
Y788673D02*
D03*
D14*
X230145Y930355D02*
D03*
X224855Y935645D02*
D03*
X248855Y959145D02*
D03*
X254145Y953855D02*
D03*
X252645Y695355D02*
D03*
X247355Y700645D02*
D03*
X268355Y681145D02*
D03*
X273645Y675855D02*
D03*
X265855Y700145D02*
D03*
X271145Y694855D02*
D03*
X489645Y914855D02*
D03*
X484355Y920145D02*
D03*
X488145Y932855D02*
D03*
X482855Y938145D02*
D03*
X504355Y918145D02*
D03*
X509645Y912855D02*
D03*
X506463Y654037D02*
D03*
X501173Y659327D02*
D03*
X526173Y683327D02*
D03*
X531463Y678037D02*
D03*
D15*
X250626Y929084D02*
D03*
X246729Y938271D02*
D03*
X504192Y685098D02*
D03*
X508089Y675911D02*
D03*
D16*
X255916Y934374D02*
D03*
X498902Y679808D02*
D03*
D17*
X252645Y919145D02*
D03*
X247355Y913855D02*
D03*
X265855Y932355D02*
D03*
X271145Y937645D02*
D03*
X230145Y683145D02*
D03*
X224855Y677855D02*
D03*
X254145Y660145D02*
D03*
X248855Y654855D02*
D03*
X271645Y919645D02*
D03*
X266355Y914355D02*
D03*
X530645Y936645D02*
D03*
X525355Y931355D02*
D03*
X500855Y953855D02*
D03*
X506145Y959145D02*
D03*
X487963Y680827D02*
D03*
X482673Y675537D02*
D03*
X504673Y696537D02*
D03*
X509963Y701827D02*
D03*
X484673Y694037D02*
D03*
X489963Y699327D02*
D03*
D18*
X255916Y680626D02*
D03*
X246729Y676729D02*
D03*
X499084Y933374D02*
D03*
X508271Y937271D02*
D03*
D19*
X250626Y685916D02*
D03*
X504374Y928084D02*
D03*
D20*
X296500Y749500D02*
D03*
Y739500D02*
D03*
Y729500D02*
D03*
X321000Y749500D02*
D03*
Y739500D02*
D03*
Y729500D02*
D03*
D21*
X368429Y850421D02*
D03*
Y848453D02*
D03*
Y846484D02*
D03*
Y844516D02*
D03*
Y842547D02*
D03*
Y840579D02*
D03*
X384571D02*
D03*
Y842547D02*
D03*
Y844516D02*
D03*
Y846484D02*
D03*
Y848453D02*
D03*
Y850421D02*
D03*
D22*
X371579Y837429D02*
D03*
X373547D02*
D03*
X375516D02*
D03*
X377484D02*
D03*
X379453D02*
D03*
X381421D02*
D03*
Y853571D02*
D03*
X379453D02*
D03*
X377484D02*
D03*
X375516D02*
D03*
X373547D02*
D03*
X371579D02*
D03*
D23*
X376500Y845500D02*
D03*
D24*
X295000Y857000D02*
D03*
Y849520D02*
D03*
X305000Y857000D02*
D03*
Y849520D02*
D03*
X326500Y857000D02*
D03*
Y849520D02*
D03*
X317000D02*
D03*
Y857000D02*
D03*
X340500Y735740D02*
D03*
Y728260D02*
D03*
X410000D02*
D03*
Y735740D02*
D03*
X334000Y789740D02*
D03*
Y782260D02*
D03*
X324500Y789980D02*
D03*
Y782500D02*
D03*
X450500Y807760D02*
D03*
Y815240D02*
D03*
X460000Y807760D02*
D03*
Y815240D02*
D03*
X426500Y828260D02*
D03*
Y835740D02*
D03*
X436000Y828260D02*
D03*
Y835740D02*
D03*
X324500Y813740D02*
D03*
Y806260D02*
D03*
X334000Y813740D02*
D03*
Y806260D02*
D03*
X452500Y719740D02*
D03*
Y712260D02*
D03*
X463000Y719740D02*
D03*
Y712260D02*
D03*
X450500Y827760D02*
D03*
Y835240D02*
D03*
X436000Y807760D02*
D03*
Y815240D02*
D03*
X334500Y759760D02*
D03*
Y767240D02*
D03*
X337000Y849760D02*
D03*
Y857240D02*
D03*
X420500Y878260D02*
D03*
Y885740D02*
D03*
X409000D02*
D03*
Y878260D02*
D03*
X424500Y726260D02*
D03*
Y733740D02*
D03*
X436000Y726260D02*
D03*
Y733740D02*
D03*
X433000Y759740D02*
D03*
Y752260D02*
D03*
X442000D02*
D03*
Y759740D02*
D03*
X451500Y752260D02*
D03*
Y759740D02*
D03*
X432500Y788240D02*
D03*
Y780760D02*
D03*
X442000Y788240D02*
D03*
Y780760D02*
D03*
X451500Y788240D02*
D03*
Y780760D02*
D03*
X460500Y827760D02*
D03*
Y835240D02*
D03*
D25*
X474260Y711874D02*
D03*
X478000Y721126D02*
D03*
D26*
X481740Y711874D02*
D03*
M02*
