%FSLAX25Y25*%
%MOIN*%
G70*
G01*
G75*
G04 Layer_Physical_Order=2*
G04 Layer_Color=16711680*
G04:AMPARAMS|DCode=10|XSize=78.74mil|YSize=47.24mil|CornerRadius=0mil|HoleSize=0mil|Usage=FLASHONLY|Rotation=45.000|XOffset=0mil|YOffset=0mil|HoleType=Round|Shape=Rectangle|*
%AMROTATEDRECTD10*
4,1,4,-0.01114,-0.04454,-0.04454,-0.01114,0.01114,0.04454,0.04454,0.01114,-0.01114,-0.04454,0.0*
%
%ADD10ROTATEDRECTD10*%

G04:AMPARAMS|DCode=11|XSize=78.74mil|YSize=47.24mil|CornerRadius=0mil|HoleSize=0mil|Usage=FLASHONLY|Rotation=315.000|XOffset=0mil|YOffset=0mil|HoleType=Round|Shape=Rectangle|*
%AMROTATEDRECTD11*
4,1,4,-0.04454,0.01114,-0.01114,0.04454,0.04454,-0.01114,0.01114,-0.04454,-0.04454,0.01114,0.0*
%
%ADD11ROTATEDRECTD11*%

%ADD12O,0.01181X0.08268*%
%ADD13O,0.08268X0.01181*%
G04:AMPARAMS|DCode=14|XSize=59.06mil|YSize=51.18mil|CornerRadius=0mil|HoleSize=0mil|Usage=FLASHONLY|Rotation=45.000|XOffset=0mil|YOffset=0mil|HoleType=Round|Shape=Rectangle|*
%AMROTATEDRECTD14*
4,1,4,-0.00278,-0.03897,-0.03897,-0.00278,0.00278,0.03897,0.03897,0.00278,-0.00278,-0.03897,0.0*
%
%ADD14ROTATEDRECTD14*%

G04:AMPARAMS|DCode=15|XSize=35.43mil|YSize=37.4mil|CornerRadius=0mil|HoleSize=0mil|Usage=FLASHONLY|Rotation=45.000|XOffset=0mil|YOffset=0mil|HoleType=Round|Shape=Rectangle|*
%AMROTATEDRECTD15*
4,1,4,0.00070,-0.02575,-0.02575,0.00070,-0.00070,0.02575,0.02575,-0.00070,0.00070,-0.02575,0.0*
%
%ADD15ROTATEDRECTD15*%

G04:AMPARAMS|DCode=16|XSize=35.43mil|YSize=37.4mil|CornerRadius=0mil|HoleSize=0mil|Usage=FLASHONLY|Rotation=45.000|XOffset=0mil|YOffset=0mil|HoleType=Round|Shape=Rectangle|*
%AMROTATEDRECTD16*
4,1,4,0.00070,-0.02575,-0.02575,0.00070,-0.00070,0.02575,0.02575,-0.00070,0.00070,-0.02575,0.0*
%
%ADD16ROTATEDRECTD16*%

G04:AMPARAMS|DCode=17|XSize=59.06mil|YSize=51.18mil|CornerRadius=0mil|HoleSize=0mil|Usage=FLASHONLY|Rotation=135.000|XOffset=0mil|YOffset=0mil|HoleType=Round|Shape=Rectangle|*
%AMROTATEDRECTD17*
4,1,4,0.03897,-0.00278,0.00278,-0.03897,-0.03897,0.00278,-0.00278,0.03897,0.03897,-0.00278,0.0*
%
%ADD17ROTATEDRECTD17*%

G04:AMPARAMS|DCode=18|XSize=35.43mil|YSize=37.4mil|CornerRadius=0mil|HoleSize=0mil|Usage=FLASHONLY|Rotation=135.000|XOffset=0mil|YOffset=0mil|HoleType=Round|Shape=Rectangle|*
%AMROTATEDRECTD18*
4,1,4,0.02575,0.00070,-0.00070,-0.02575,-0.02575,-0.00070,0.00070,0.02575,0.02575,0.00070,0.0*
%
%ADD18ROTATEDRECTD18*%

G04:AMPARAMS|DCode=19|XSize=35.43mil|YSize=37.4mil|CornerRadius=0mil|HoleSize=0mil|Usage=FLASHONLY|Rotation=135.000|XOffset=0mil|YOffset=0mil|HoleType=Round|Shape=Rectangle|*
%AMROTATEDRECTD19*
4,1,4,0.02575,0.00070,-0.00070,-0.02575,-0.02575,-0.00070,0.00070,0.02575,0.02575,0.00070,0.0*
%
%ADD19ROTATEDRECTD19*%

%ADD20R,0.07480X0.02756*%
%ADD21O,0.02362X0.00984*%
%ADD22O,0.00984X0.02362*%
%ADD23R,0.11024X0.10630*%
%ADD24R,0.05906X0.05118*%
%ADD25R,0.03543X0.03740*%
%ADD26R,0.03543X0.03740*%
%ADD27C,0.01063*%
%ADD28C,0.01378*%
%ADD29C,0.01181*%
%ADD30C,0.08268*%
%ADD31C,0.05906*%
%ADD32R,0.05906X0.05906*%
%ADD33R,0.05906X0.05906*%
%ADD34C,0.31496*%
%ADD35C,0.02362*%
%ADD36R,0.01575X0.03937*%
%ADD37R,0.01575X0.03937*%
%ADD38R,0.06000X0.06000*%
%ADD39R,0.03400X0.10000*%
%ADD40R,0.03400X0.05000*%
%ADD41R,0.05118X0.05906*%
%ADD42R,0.07874X0.05906*%
%ADD43C,0.08000*%
D14*
X557355Y992645D02*
D03*
X562645Y987355D02*
D03*
X197645Y621855D02*
D03*
X192355Y627145D02*
D03*
D17*
X191855Y987855D02*
D03*
X197145Y993145D02*
D03*
X563820Y627184D02*
D03*
X558530Y621894D02*
D03*
D27*
X322000Y810000D02*
X325000D01*
X319520Y812480D02*
X322000Y810000D01*
X319520Y812480D02*
Y814500D01*
X365600Y868000D02*
X370000Y863600D01*
X360400Y868000D02*
X365600D01*
X354900Y862500D02*
X360400Y868000D01*
X304520Y884780D02*
X315000D01*
X303240Y883500D02*
X304520Y884780D01*
X411600Y853500D02*
X422200Y842900D01*
X378200Y853500D02*
X411600D01*
X373900Y857800D02*
X378200Y853500D01*
X371500Y840000D02*
X407500D01*
X367500Y844000D02*
X371500Y840000D01*
X407500D02*
X412000Y835500D01*
X358900Y859200D02*
X367500Y850600D01*
Y844000D02*
Y850600D01*
X389582Y804700D02*
X412000Y827119D01*
Y835500D01*
X389200Y808200D02*
X409000Y828000D01*
X371500Y808200D02*
X389200D01*
X379200Y823200D02*
X380000D01*
X363600Y807600D02*
X379200Y823200D01*
X315400Y807600D02*
X363600D01*
X295400Y837500D02*
X296000Y836900D01*
Y827000D02*
Y836900D01*
Y827000D02*
X315400Y807600D01*
X427500Y894000D02*
X428500Y893000D01*
X378500Y894000D02*
X427500D01*
X376500Y892000D02*
X378500Y894000D01*
X381000Y768500D02*
X388118Y775618D01*
X381000Y768500D02*
Y769000D01*
X384444Y766000D02*
X391944Y773500D01*
X377500Y766000D02*
X384444D01*
X374000Y769500D02*
X377500Y766000D01*
X466400Y787400D02*
Y869600D01*
X460850Y781850D02*
X466400Y787400D01*
X459400Y783300D02*
X460700Y782000D01*
X423300Y783300D02*
X459400D01*
X451000Y735500D02*
X454800Y739300D01*
X387500Y735500D02*
X451000D01*
X384000Y732000D02*
X387500Y735500D01*
X454800Y739300D02*
Y748608D01*
X452900Y740400D02*
Y747000D01*
X450500Y738000D02*
X452900Y740400D01*
X370000Y738000D02*
X450500D01*
X311500Y814500D02*
X319520D01*
X301260Y824740D02*
X311500Y814500D01*
X301260Y824740D02*
Y830500D01*
X374000Y769500D02*
Y774066D01*
X449300Y791000D02*
X460000Y801700D01*
X378600Y791000D02*
X449300D01*
X375900Y793700D02*
X378600Y791000D01*
X468000Y716600D02*
X493268Y691332D01*
X287400Y798307D02*
Y869100D01*
X190500Y966000D02*
X287400Y869100D01*
X190500Y966000D02*
Y986500D01*
X400400Y779500D02*
X402269Y777631D01*
X472100Y732700D02*
Y734900D01*
X429369Y777631D02*
X472100Y734900D01*
X402269Y777631D02*
X429369D01*
X426400Y773500D02*
X452900Y747000D01*
X391944Y773500D02*
X426400D01*
X427790Y775618D02*
X454800Y748608D01*
X388118Y775618D02*
X427790D01*
X385000Y872500D02*
X391500Y879000D01*
X371300Y872500D02*
X385000D01*
X366500Y877300D02*
X371300Y872500D01*
X363300Y884000D02*
X366500Y880800D01*
X358700Y884000D02*
X363300D01*
X351380Y876680D02*
X358700Y884000D01*
X446000Y847000D02*
X453500Y854500D01*
X422500Y847000D02*
X446000D01*
X413500Y856000D02*
X422500Y847000D01*
X384400Y856000D02*
X413500D01*
X436000Y821500D02*
Y823700D01*
X408700Y851000D02*
X436000Y823700D01*
X562645Y966145D02*
Y987355D01*
X545164Y948664D02*
X562645Y966145D01*
X542800Y948664D02*
X545164D01*
X535645Y992645D02*
X557355D01*
X491645Y948645D02*
X535645Y992645D01*
X491645Y924101D02*
Y948645D01*
X465300Y719300D02*
X468000Y716600D01*
X474260D01*
X236300Y971422D02*
Y974200D01*
X217355Y993145D02*
X236300Y974200D01*
X197145Y993145D02*
X217355D01*
X190500Y986500D02*
X191855Y987855D01*
X305700Y877500D02*
X307200Y876000D01*
X298700Y877500D02*
X305700D01*
X295760Y880440D02*
X298700Y877500D01*
X374807Y851000D02*
X408700D01*
X370000Y855807D02*
X374807Y851000D01*
X370000Y855807D02*
Y863600D01*
X563820Y627184D02*
Y647180D01*
X546918Y664082D02*
X563820Y647180D01*
X520818Y664082D02*
X546918D01*
X535606Y621894D02*
X558530D01*
X510918Y646582D02*
X535606Y621894D01*
X510918Y646582D02*
Y649946D01*
X311000Y865200D02*
Y871000D01*
X470900Y925036D02*
X491645Y945781D01*
X520518Y664082D02*
X520818D01*
X282300Y719300D02*
X287500D01*
X287600Y719400D01*
X348400Y800800D02*
X375300D01*
X428850Y869542D02*
X438458D01*
X370958D02*
X428850D01*
X391728Y751728D02*
X396000Y756000D01*
X360272Y751728D02*
X391728D01*
X356000Y756000D02*
X360272Y751728D01*
X351380Y843620D02*
X355000Y840000D01*
X351380Y843620D02*
Y876680D01*
X366500Y877300D02*
Y880800D01*
X287400Y798307D02*
X289704Y796004D01*
X287500Y719300D02*
X465300D01*
X470900Y919500D02*
Y925036D01*
X364000Y732000D02*
X370000Y738000D01*
X466400Y869600D02*
X487000Y890200D01*
X345600Y803600D02*
X348400Y800800D01*
X375300D02*
X378039Y799661D01*
X403761D01*
X426500Y822400D01*
X375300Y802400D02*
X378039Y799661D01*
X358800Y846200D02*
Y849665D01*
X354900Y853565D02*
X358800Y849665D01*
X354900Y853565D02*
Y862500D01*
X436000Y817400D02*
Y821500D01*
X418000Y799400D02*
X436000Y817400D01*
X418000Y793900D02*
Y799400D01*
X390300Y760300D02*
X414500D01*
X386000Y756000D02*
X390300Y760300D01*
X396000Y835100D02*
X397100Y836200D01*
X375200Y835100D02*
X396000D01*
X362300Y822200D02*
X375200Y835100D01*
X374000Y823100D02*
X382800Y831900D01*
X398600D01*
X403000Y836300D01*
X384000Y863800D02*
X401300D01*
X382400Y862200D02*
X384000Y863800D01*
X382400Y858000D02*
Y862200D01*
Y858000D02*
X384400Y856000D01*
X428850Y869542D02*
Y870200D01*
X391500Y889000D02*
X397600Y882900D01*
X435100D01*
X443500Y874500D01*
X493418Y691482D02*
X520818Y664082D01*
X301260Y840000D02*
Y858341D01*
X304800Y861881D01*
Y865600D01*
X307200Y868000D01*
Y876000D01*
X295760Y880440D02*
Y883500D01*
X303240Y868040D02*
Y871500D01*
X300900Y865700D02*
X303240Y868040D01*
X311000Y871000D02*
X315000D01*
X431900Y799400D02*
X457800Y825300D01*
Y880200D01*
X453500Y884500D02*
X457800Y880200D01*
X355000Y823100D02*
Y840000D01*
Y823100D02*
X362700Y815400D01*
X361500Y879000D02*
X370958Y869542D01*
X438458D02*
X443500Y864500D01*
X385900Y804700D02*
X389582D01*
X376500Y884000D02*
Y892000D01*
X371500Y879000D02*
X376500Y884000D01*
X384522Y797797D02*
X386800Y795519D01*
X326803Y797797D02*
X384522D01*
X326500Y798100D02*
X326803Y797797D01*
X394100Y768000D02*
X397900D01*
X386731Y760631D02*
X394100Y768000D01*
X309131Y760631D02*
X386731D01*
X257500Y709000D02*
X309131Y760631D01*
X197645Y621855D02*
X220254D01*
X290800Y692401D01*
Y700500D01*
X286800Y704500D02*
X290800Y700500D01*
X279000Y704500D02*
X286800D01*
X257200Y668100D02*
X260500Y671400D01*
Y691100D01*
X327000Y820700D02*
Y825524D01*
X363000Y840000D02*
X366800Y836200D01*
X355000Y840000D02*
X363000D01*
X192355Y627145D02*
Y651555D01*
X208800Y668000D01*
X232145D01*
X327000Y812000D02*
Y814500D01*
X325000Y810000D02*
X327000Y812000D01*
Y825524D02*
Y828300D01*
X343300D01*
X355000Y840000D01*
X339000Y885000D02*
Y888400D01*
X336000Y891400D02*
X339000Y888400D01*
X321620Y891400D02*
X336000D01*
X315000Y884780D02*
X321620Y891400D01*
X315000Y871000D02*
X333000D01*
Y879000D02*
Y885000D01*
X396000Y756000D02*
X406000D01*
X301260Y830500D02*
Y840000D01*
X321260Y833540D02*
Y840000D01*
X319520Y831800D02*
X321260Y833540D01*
X319520Y825524D02*
Y831800D01*
X303240Y883500D02*
Y895000D01*
D28*
X348000Y842500D02*
Y878500D01*
X345500Y840000D02*
X348000Y842500D01*
X341000Y840000D02*
X345500D01*
X348000Y878500D02*
X358500Y889000D01*
X361500D01*
X317300Y895200D02*
X355300D01*
X310000Y902500D02*
X317300Y895200D01*
X300000Y902500D02*
X310000D01*
X431500Y896500D02*
X443500Y884500D01*
X369000Y896500D02*
X431500D01*
X361500Y889000D02*
X369000Y896500D01*
X432000Y780000D02*
X518918Y693082D01*
X417500Y780000D02*
X432000D01*
X238500Y935645D02*
X290000Y884145D01*
Y817907D02*
Y884145D01*
Y817907D02*
X308500Y799407D01*
X322260Y819000D02*
X323260Y818000D01*
X313500Y819000D02*
X322260D01*
X308740Y823760D02*
X313500Y819000D01*
X308740Y823760D02*
Y830500D01*
X443500Y884500D02*
X448500Y879500D01*
Y869500D02*
Y879500D01*
Y869500D02*
X453500Y864500D01*
X296500Y787500D02*
X302500Y793500D01*
X296500Y779700D02*
Y787500D01*
Y779700D02*
X312700Y763500D01*
X385743D02*
X393243Y771000D01*
X312700Y763500D02*
X385743D01*
X308500Y789500D02*
Y799407D01*
X302500Y783500D02*
X308500Y789500D01*
X414357Y783143D02*
X417500Y780000D01*
X414357Y783143D02*
X419400Y788186D01*
X518918Y678882D02*
Y693082D01*
X425000Y771000D02*
X449000Y747000D01*
X393243Y771000D02*
X425000D01*
X449000Y741200D02*
Y747000D01*
X254000Y687800D02*
Y690000D01*
X260800Y696800D01*
X286900D01*
X236300Y670100D02*
X254000Y687800D01*
X469500Y689000D02*
Y710000D01*
X302500Y783500D02*
X414714D01*
X419400Y788186D02*
X458829D01*
X463900Y793257D01*
Y876903D01*
X518353Y931355D01*
X327000Y881300D02*
Y885000D01*
X324000Y878300D02*
X327000Y881300D01*
X317000Y878300D02*
X324000D01*
X323260Y814500D02*
Y818000D01*
X386300Y859900D02*
X448900D01*
X453500Y864500D01*
X295760Y895000D02*
Y898260D01*
X300000Y902500D01*
X355300Y895200D02*
X361500Y889000D01*
X308740Y840000D02*
Y844000D01*
X312740Y848000D01*
X325200D01*
X328740Y844460D01*
Y840000D02*
Y844460D01*
X308740Y830500D02*
Y840000D01*
X328740D02*
X341000D01*
D29*
X292500Y848500D02*
X295760Y851760D01*
X292500Y827200D02*
Y848500D01*
Y827200D02*
X315800Y803900D01*
X497400Y922384D02*
Y935900D01*
X517300Y955800D01*
X513018Y690082D02*
X513118Y689982D01*
Y682282D02*
Y689982D01*
X295760Y851760D02*
Y871500D01*
X315800Y787800D02*
Y803900D01*
D30*
X364000Y732000D02*
D03*
X384000D02*
D03*
D31*
X443500Y884500D02*
D03*
Y874500D02*
D03*
Y864500D02*
D03*
Y854500D02*
D03*
X453500Y884500D02*
D03*
Y874500D02*
D03*
Y864500D02*
D03*
X366000Y756000D02*
D03*
X376000D02*
D03*
X386000D02*
D03*
X396000D02*
D03*
X406000D02*
D03*
X361500Y879000D02*
D03*
X371500D02*
D03*
Y889000D02*
D03*
X381500Y879000D02*
D03*
Y889000D02*
D03*
X391500Y879000D02*
D03*
Y889000D02*
D03*
X302500Y783500D02*
D03*
D32*
X453500Y854500D02*
D03*
X302500Y793500D02*
D03*
D33*
X356000Y756000D02*
D03*
X361500Y889000D02*
D03*
D34*
X209318Y974682D02*
D03*
X544682D02*
D03*
X210318Y639318D02*
D03*
X545500Y639500D02*
D03*
D35*
X409000Y828000D02*
D03*
X381000Y769000D02*
D03*
X370000Y863600D02*
D03*
X373900Y857800D02*
D03*
X469500Y689000D02*
D03*
X456500Y713500D02*
D03*
X469500Y710000D02*
D03*
X428500Y893000D02*
D03*
X449000Y741200D02*
D03*
X518918Y678882D02*
D03*
X518353Y931355D02*
D03*
X286900Y696800D02*
D03*
X236300Y670100D02*
D03*
X371500Y808200D02*
D03*
X379453Y823747D02*
D03*
X296000Y837500D02*
D03*
X289704Y796004D02*
D03*
X282300Y719300D02*
D03*
X259887Y897134D02*
D03*
X491645Y924101D02*
D03*
X470900Y919500D02*
D03*
X510918Y649946D02*
D03*
X497400Y922384D02*
D03*
X517300Y955800D02*
D03*
X375900Y793700D02*
D03*
X460000Y801700D02*
D03*
X374000Y774066D02*
D03*
X400400Y779500D02*
D03*
X472100Y732700D02*
D03*
X460700Y782000D02*
D03*
X423300Y783300D02*
D03*
X487000Y890200D02*
D03*
X422200Y842900D02*
D03*
X345600Y803600D02*
D03*
X426500Y822400D02*
D03*
X375300Y802400D02*
D03*
X358800Y846200D02*
D03*
X436000Y821500D02*
D03*
X418000Y793900D02*
D03*
X414500Y760300D02*
D03*
X397100Y836200D02*
D03*
X362300Y822200D02*
D03*
X374000Y823100D02*
D03*
X403000Y836300D02*
D03*
X401300Y863800D02*
D03*
X428850Y870200D02*
D03*
X513018Y690082D02*
D03*
X513118Y682282D02*
D03*
X493418Y691482D02*
D03*
X300900Y865700D02*
D03*
X311000Y865200D02*
D03*
X431900Y799400D02*
D03*
X362700Y815400D02*
D03*
X238500Y935645D02*
D03*
X315800Y787800D02*
D03*
X358900Y859200D02*
D03*
X385900Y804700D02*
D03*
X386800Y795519D02*
D03*
X326500Y798100D02*
D03*
X397900Y768000D02*
D03*
X257500Y709000D02*
D03*
X279000Y704500D02*
D03*
X542800Y948664D02*
D03*
X257200Y668100D02*
D03*
X260500Y691100D02*
D03*
X236300Y971422D02*
D03*
X327000Y820700D02*
D03*
X317000Y878300D02*
D03*
X366800Y836200D02*
D03*
X386300Y859900D02*
D03*
X232145Y668000D02*
D03*
X474260Y716600D02*
D03*
X374138Y847862D02*
D03*
X378862D02*
D03*
X374138Y843138D02*
D03*
X378862D02*
D03*
D36*
X327000Y814500D02*
D03*
X323260D02*
D03*
X319520D02*
D03*
Y825524D02*
D03*
D37*
X327000D02*
D03*
D38*
X355000Y840000D02*
D03*
X341000D02*
D03*
D39*
X333000Y885000D02*
D03*
D40*
X339000D02*
D03*
X327000D02*
D03*
D41*
X295760Y871500D02*
D03*
X303240D02*
D03*
X295760Y883500D02*
D03*
X303240D02*
D03*
X295760Y895000D02*
D03*
X303240D02*
D03*
X328740Y840000D02*
D03*
X321260D02*
D03*
X308740D02*
D03*
X301260D02*
D03*
X308740Y830500D02*
D03*
X301260D02*
D03*
D42*
X315000Y871000D02*
D03*
Y884780D02*
D03*
D43*
X333000Y871000D02*
Y879000D01*
M02*
