%FSLAX25Y25*%
%MOIN*%
G70*
G01*
G75*
G04:AMPARAMS|DCode=10|XSize=78.74mil|YSize=47.24mil|CornerRadius=0mil|HoleSize=0mil|Usage=FLASHONLY|Rotation=45.000|XOffset=0mil|YOffset=0mil|HoleType=Round|Shape=Rectangle|*
%AMROTATEDRECTD10*
4,1,4,-0.01114,-0.04454,-0.04454,-0.01114,0.01114,0.04454,0.04454,0.01114,-0.01114,-0.04454,0.0*
%
%ADD10ROTATEDRECTD10*%

G04:AMPARAMS|DCode=11|XSize=78.74mil|YSize=47.24mil|CornerRadius=0mil|HoleSize=0mil|Usage=FLASHONLY|Rotation=315.000|XOffset=0mil|YOffset=0mil|HoleType=Round|Shape=Rectangle|*
%AMROTATEDRECTD11*
4,1,4,-0.04454,0.01114,-0.01114,0.04454,0.04454,-0.01114,0.01114,-0.04454,-0.04454,0.01114,0.0*
%
%ADD11ROTATEDRECTD11*%

%ADD12O,0.08268X0.01181*%
%ADD13O,0.01181X0.08268*%
G04:AMPARAMS|DCode=14|XSize=59.06mil|YSize=51.18mil|CornerRadius=0mil|HoleSize=0mil|Usage=FLASHONLY|Rotation=225.000|XOffset=0mil|YOffset=0mil|HoleType=Round|Shape=Rectangle|*
%AMROTATEDRECTD14*
4,1,4,0.00278,0.03897,0.03897,0.00278,-0.00278,-0.03897,-0.03897,-0.00278,0.00278,0.03897,0.0*
%
%ADD14ROTATEDRECTD14*%

G04:AMPARAMS|DCode=15|XSize=35.43mil|YSize=37.4mil|CornerRadius=0mil|HoleSize=0mil|Usage=FLASHONLY|Rotation=45.000|XOffset=0mil|YOffset=0mil|HoleType=Round|Shape=Rectangle|*
%AMROTATEDRECTD15*
4,1,4,0.00070,-0.02575,-0.02575,0.00070,-0.00070,0.02575,0.02575,-0.00070,0.00070,-0.02575,0.0*
%
%ADD15ROTATEDRECTD15*%

G04:AMPARAMS|DCode=16|XSize=35.43mil|YSize=37.4mil|CornerRadius=0mil|HoleSize=0mil|Usage=FLASHONLY|Rotation=45.000|XOffset=0mil|YOffset=0mil|HoleType=Round|Shape=Rectangle|*
%AMROTATEDRECTD16*
4,1,4,0.00070,-0.02575,-0.02575,0.00070,-0.00070,0.02575,0.02575,-0.00070,0.00070,-0.02575,0.0*
%
%ADD16ROTATEDRECTD16*%

G04:AMPARAMS|DCode=17|XSize=59.06mil|YSize=51.18mil|CornerRadius=0mil|HoleSize=0mil|Usage=FLASHONLY|Rotation=135.000|XOffset=0mil|YOffset=0mil|HoleType=Round|Shape=Rectangle|*
%AMROTATEDRECTD17*
4,1,4,0.03897,-0.00278,0.00278,-0.03897,-0.03897,0.00278,-0.00278,0.03897,0.03897,-0.00278,0.0*
%
%ADD17ROTATEDRECTD17*%

G04:AMPARAMS|DCode=18|XSize=53.15mil|YSize=15.75mil|CornerRadius=0mil|HoleSize=0mil|Usage=FLASHONLY|Rotation=0.000|XOffset=0mil|YOffset=0mil|HoleType=Round|Shape=Octagon|*
%AMOCTAGOND18*
4,1,8,0.02658,-0.00394,0.02658,0.00394,0.02264,0.00787,-0.02264,0.00787,-0.02658,0.00394,-0.02658,-0.00394,-0.02264,-0.00787,0.02264,-0.00787,0.02658,-0.00394,0.0*
%
%ADD18OCTAGOND18*%

%ADD19R,0.07480X0.09000*%
%ADD20R,0.07480X0.07087*%
G04:AMPARAMS|DCode=21|XSize=35.43mil|YSize=37.4mil|CornerRadius=0mil|HoleSize=0mil|Usage=FLASHONLY|Rotation=135.000|XOffset=0mil|YOffset=0mil|HoleType=Round|Shape=Rectangle|*
%AMROTATEDRECTD21*
4,1,4,0.02575,0.00070,-0.00070,-0.02575,-0.02575,-0.00070,0.00070,0.02575,0.02575,0.00070,0.0*
%
%ADD21ROTATEDRECTD21*%

G04:AMPARAMS|DCode=22|XSize=35.43mil|YSize=37.4mil|CornerRadius=0mil|HoleSize=0mil|Usage=FLASHONLY|Rotation=135.000|XOffset=0mil|YOffset=0mil|HoleType=Round|Shape=Rectangle|*
%AMROTATEDRECTD22*
4,1,4,0.02575,0.00070,-0.00070,-0.02575,-0.02575,-0.00070,0.00070,0.02575,0.02575,0.00070,0.0*
%
%ADD22ROTATEDRECTD22*%

%ADD23R,0.07480X0.02756*%
%ADD24O,0.02362X0.00984*%
%ADD25O,0.00984X0.02362*%
%ADD26R,0.11024X0.10630*%
%ADD27R,0.05906X0.05118*%
%ADD28R,0.05906X0.03937*%
%ADD29R,0.04724X0.01654*%
%ADD30R,0.05118X0.05906*%
%ADD31R,0.03543X0.03740*%
%ADD32R,0.03543X0.03740*%
%ADD33C,0.01000*%
%ADD34C,0.05906*%
%ADD35R,0.05906X0.05906*%
%ADD36R,0.05906X0.05906*%
%ADD37C,0.31496*%
%ADD38C,0.01969*%
%ADD39R,0.06102X0.04331*%
%ADD40R,0.06102X0.04331*%
%ADD41R,0.06102X0.13583*%
%ADD42R,0.07874X0.05906*%
%ADD43R,0.09843X0.07087*%
%ADD44R,0.03937X0.01575*%
%ADD45R,0.03937X0.01575*%
%ADD46R,0.07087X0.09843*%
%ADD47R,0.01575X0.03937*%
%ADD48R,0.01575X0.03937*%
%ADD49C,0.00984*%
%ADD50C,0.02362*%
%ADD51C,0.00787*%
D33*
X204517Y1001404D02*
X206638Y1003525D01*
X204517D02*
X206638Y1001404D01*
X192496Y995040D02*
X200274Y1002818D01*
X192496Y995040D02*
X198153Y989383D01*
X205931Y997161D01*
X200274Y1002818D02*
X205931Y997161D01*
X189314Y991858D02*
X194971Y986201D01*
X187192Y978423D02*
X194971Y986201D01*
X181536Y984080D02*
X187192Y978423D01*
X181536Y984080D02*
X189314Y991858D01*
X181182Y980191D02*
X183303Y978069D01*
X571904Y979984D02*
X574025Y977862D01*
X571904D02*
X574025Y979984D01*
X565540Y992004D02*
X573318Y984226D01*
X559883Y986347D02*
X565540Y992004D01*
X559883Y986347D02*
X567661Y978569D01*
X573318Y984226D01*
X556701Y989529D02*
X562358Y995186D01*
X548923Y997308D02*
X556701Y989529D01*
X548923Y997308D02*
X554580Y1002964D01*
X562358Y995186D01*
X548569Y1001197D02*
X550691Y1003318D01*
X180975Y636138D02*
X183096Y634017D01*
X180975D02*
X183096Y636138D01*
X181682Y629774D02*
X189460Y621996D01*
X195117Y627653D01*
X187339Y635431D02*
X195117Y627653D01*
X181682Y629774D02*
X187339Y635431D01*
X192642Y618814D02*
X198299Y624471D01*
X206077Y616692D01*
X200420Y611036D02*
X206077Y616692D01*
X192642Y618814D02*
X200420Y611036D01*
X204309Y610682D02*
X206431Y612803D01*
X548362Y610475D02*
X550484Y612596D01*
X548362D02*
X550484Y610475D01*
X554726Y611182D02*
X562504Y618960D01*
X556847Y624617D02*
X562504Y618960D01*
X549069Y616839D02*
X556847Y624617D01*
X549069Y616839D02*
X554726Y611182D01*
X560029Y627799D02*
X565686Y622142D01*
X560029Y627799D02*
X567808Y635577D01*
X573464Y629920D01*
X565686Y622142D02*
X573464Y629920D01*
X571697Y635931D02*
X573818Y633809D01*
X294500Y713500D02*
Y749720D01*
X308280D01*
Y713500D02*
Y749720D01*
X294500Y713500D02*
X308280D01*
X375500Y717500D02*
Y733500D01*
X353500D02*
X375500D01*
X353500Y717500D02*
Y733500D01*
Y717500D02*
X375500D01*
X390000Y871000D02*
Y874936D01*
X391312Y873624D01*
X392624Y874936D01*
Y871000D01*
X393936D02*
X395248D01*
X394592D01*
Y873624D01*
X393936D01*
X399839D02*
X397871D01*
X397216Y872968D01*
Y871656D01*
X397871Y871000D01*
X399839D01*
X401151Y873624D02*
Y871000D01*
Y872312D01*
X401807Y872968D01*
X402463Y873624D01*
X403119D01*
X405087Y874936D02*
Y871000D01*
X407055D01*
X407711Y871656D01*
Y874280D01*
X407055Y874936D01*
X405087D01*
X409023Y873624D02*
Y871000D01*
Y872312D01*
X409679Y872968D01*
X410335Y873624D01*
X410991D01*
X413614Y871000D02*
X414926D01*
X415582Y871656D01*
Y872968D01*
X414926Y873624D01*
X413614D01*
X412958Y872968D01*
Y871656D01*
X413614Y871000D01*
X416894D02*
Y873624D01*
X418862D01*
X419518Y872968D01*
Y871000D01*
X422798D02*
X421486D01*
X420830Y871656D01*
Y872968D01*
X421486Y873624D01*
X422798D01*
X423454Y872968D01*
Y872312D01*
X420830D01*
X392624Y855500D02*
X390000D01*
X392624Y858124D01*
Y858780D01*
X391968Y859436D01*
X390656D01*
X390000Y858780D01*
X393936D02*
X394592Y859436D01*
X395904D01*
X396560Y858780D01*
Y856156D01*
X395904Y855500D01*
X394592D01*
X393936Y856156D01*
Y858780D01*
X397871Y855500D02*
X399183D01*
X398527D01*
Y859436D01*
X397871Y858780D01*
X401151Y859436D02*
X403775D01*
Y858780D01*
X401151Y856156D01*
Y855500D01*
X405087D02*
Y856156D01*
X405743D01*
Y855500D01*
X405087D01*
X408367D02*
X409679D01*
X409023D01*
Y859436D01*
X408367Y858780D01*
X411647D02*
X412302Y859436D01*
X413614D01*
X414270Y858780D01*
Y856156D01*
X413614Y855500D01*
X412302D01*
X411647Y856156D01*
Y858780D01*
X415582Y855500D02*
Y856156D01*
X416238D01*
Y855500D01*
X415582D01*
X421486D02*
X418862D01*
X421486Y858124D01*
Y858780D01*
X420830Y859436D01*
X419518D01*
X418862Y858780D01*
X425422Y859436D02*
X422798D01*
Y857468D01*
X424110Y858124D01*
X424766D01*
X425422Y857468D01*
Y856156D01*
X424766Y855500D01*
X423454D01*
X422798Y856156D01*
X392624Y866780D02*
X391968Y867436D01*
X390656D01*
X390000Y866780D01*
Y866124D01*
X390656Y865468D01*
X391968D01*
X392624Y864812D01*
Y864156D01*
X391968Y863500D01*
X390656D01*
X390000Y864156D01*
X396560Y866124D02*
X394592D01*
X393936Y865468D01*
Y864156D01*
X394592Y863500D01*
X396560D01*
X397871Y867436D02*
Y863500D01*
Y865468D01*
X398527Y866124D01*
X399839D01*
X400495Y865468D01*
Y863500D01*
X401807D02*
Y864156D01*
X402463D01*
Y863500D01*
X401807D01*
X409023Y867436D02*
Y863500D01*
X410991D01*
X411647Y864156D01*
Y864812D01*
Y865468D01*
X410991Y866124D01*
X409023D01*
X412958D02*
Y864156D01*
X413614Y863500D01*
X415582D01*
Y862844D01*
X414926Y862188D01*
X414270D01*
X415582Y863500D02*
Y866124D01*
X420830Y867436D02*
Y863500D01*
X422142Y864812D01*
X423454Y863500D01*
Y867436D01*
X426734Y863500D02*
X425422D01*
X424766Y864156D01*
Y865468D01*
X425422Y866124D01*
X426734D01*
X427389Y865468D01*
Y864812D01*
X424766D01*
X428701Y863500D02*
Y866124D01*
X430669D01*
X431325Y865468D01*
Y863500D01*
X432637Y867436D02*
Y863500D01*
Y865468D01*
X433293Y866124D01*
X434605D01*
X435261Y865468D01*
Y863500D01*
X437229Y866124D02*
X438541D01*
X439197Y865468D01*
Y863500D01*
X437229D01*
X436573Y864156D01*
X437229Y864812D01*
X439197D01*
X441165Y863500D02*
X442477D01*
X443132Y864156D01*
Y865468D01*
X442477Y866124D01*
X441165D01*
X440509Y865468D01*
Y864156D01*
X441165Y863500D01*
X371936Y741500D02*
X371280D01*
X369968Y740188D01*
X371280Y738876D01*
X371936D01*
X369968Y740188D02*
X368000D01*
Y737564D02*
Y736252D01*
Y736908D01*
X371936D01*
X371280Y737564D01*
X321500Y878436D02*
Y875156D01*
X322156Y874500D01*
X323468D01*
X324124Y875156D01*
Y878436D01*
X328060D02*
X326748Y877780D01*
X325436Y876468D01*
Y875156D01*
X326092Y874500D01*
X327404D01*
X328060Y875156D01*
Y875812D01*
X327404Y876468D01*
X325436D01*
X301124Y744280D02*
X300468Y744936D01*
X299156D01*
X298500Y744280D01*
Y743624D01*
X299156Y742968D01*
X300468D01*
X301124Y742312D01*
Y741656D01*
X300468Y741000D01*
X299156D01*
X298500Y741656D01*
X302436Y741000D02*
X303748D01*
X303092D01*
Y744936D01*
X302436Y744280D01*
X281000Y764500D02*
Y768436D01*
X282968D01*
X283624Y767780D01*
Y766468D01*
X282968Y765812D01*
X281000D01*
X282312D02*
X283624Y764500D01*
X284936Y767780D02*
X285592Y768436D01*
X286904D01*
X287560Y767780D01*
Y767124D01*
X286904Y766468D01*
X286248D01*
X286904D01*
X287560Y765812D01*
Y765156D01*
X286904Y764500D01*
X285592D01*
X284936Y765156D01*
X288872Y768436D02*
X291495D01*
Y767780D01*
X288872Y765156D01*
Y764500D01*
X281000Y773500D02*
Y777436D01*
X282968D01*
X283624Y776780D01*
Y775468D01*
X282968Y774812D01*
X281000D01*
X282312D02*
X283624Y773500D01*
X284936Y776780D02*
X285592Y777436D01*
X286904D01*
X287560Y776780D01*
Y776124D01*
X286904Y775468D01*
X286248D01*
X286904D01*
X287560Y774812D01*
Y774156D01*
X286904Y773500D01*
X285592D01*
X284936Y774156D01*
X291495Y777436D02*
X290183Y776780D01*
X288872Y775468D01*
Y774156D01*
X289527Y773500D01*
X290839D01*
X291495Y774156D01*
Y774812D01*
X290839Y775468D01*
X288872D01*
X281000Y781500D02*
Y785436D01*
X282968D01*
X283624Y784780D01*
Y783468D01*
X282968Y782812D01*
X281000D01*
X282312D02*
X283624Y781500D01*
X284936Y784780D02*
X285592Y785436D01*
X286904D01*
X287560Y784780D01*
Y784124D01*
X286904Y783468D01*
X286248D01*
X286904D01*
X287560Y782812D01*
Y782156D01*
X286904Y781500D01*
X285592D01*
X284936Y782156D01*
X291495Y785436D02*
X288872D01*
Y783468D01*
X290183Y784124D01*
X290839D01*
X291495Y783468D01*
Y782156D01*
X290839Y781500D01*
X289527D01*
X288872Y782156D01*
X447500Y733500D02*
Y737436D01*
X449468D01*
X450124Y736780D01*
Y735468D01*
X449468Y734812D01*
X447500D01*
X448812D02*
X450124Y733500D01*
X451436Y736780D02*
X452092Y737436D01*
X453404D01*
X454060Y736780D01*
Y736124D01*
X453404Y735468D01*
X452748D01*
X453404D01*
X454060Y734812D01*
Y734156D01*
X453404Y733500D01*
X452092D01*
X451436Y734156D01*
X457339Y733500D02*
Y737436D01*
X455372Y735468D01*
X457995D01*
X435000Y733500D02*
Y737436D01*
X436968D01*
X437624Y736780D01*
Y735468D01*
X436968Y734812D01*
X435000D01*
X436312D02*
X437624Y733500D01*
X438936Y736780D02*
X439592Y737436D01*
X440904D01*
X441560Y736780D01*
Y736124D01*
X440904Y735468D01*
X440248D01*
X440904D01*
X441560Y734812D01*
Y734156D01*
X440904Y733500D01*
X439592D01*
X438936Y734156D01*
X442872Y736780D02*
X443527Y737436D01*
X444839D01*
X445495Y736780D01*
Y736124D01*
X444839Y735468D01*
X444183D01*
X444839D01*
X445495Y734812D01*
Y734156D01*
X444839Y733500D01*
X443527D01*
X442872Y734156D01*
X520500Y978500D02*
X523283Y981283D01*
X524675Y979891D01*
Y978964D01*
X523747Y978036D01*
X522819D01*
X521428Y979428D01*
X522355Y978500D02*
Y976645D01*
X525602Y978036D02*
X526530D01*
X527458Y977108D01*
X527458Y976181D01*
X526994Y975717D01*
X526066D01*
X525602Y976181D01*
X526066Y975717D01*
X526066Y974789D01*
X525602Y974325D01*
X524675D01*
X523747Y975253D01*
Y976181D01*
X527921Y971079D02*
X526066Y972934D01*
X529777D01*
X530240Y973398D01*
X530240Y974325D01*
X529313Y975253D01*
X528385D01*
X527500Y642500D02*
X530283Y639717D01*
X528892Y638326D01*
X527964D01*
X527036Y639253D01*
Y640181D01*
X528428Y641572D01*
X527500Y640645D02*
X525645D01*
X527036Y637398D02*
Y636470D01*
X526109Y635542D01*
X525181Y635542D01*
X524717Y636006D01*
Y636934D01*
X525181Y637398D01*
X524717Y636934D01*
X523789Y636934D01*
X523325Y637398D01*
Y638326D01*
X524253Y639253D01*
X525181D01*
X521934Y636934D02*
X521006Y636006D01*
X521470Y636470D01*
X524253Y633687D01*
Y634615D01*
X227500Y639500D02*
X230283Y642283D01*
X231675Y640892D01*
Y639964D01*
X230747Y639036D01*
X229819D01*
X228428Y640428D01*
X229355Y639500D02*
Y637645D01*
X232602Y639036D02*
X233530D01*
X234457Y638108D01*
X234457Y637181D01*
X233994Y636717D01*
X233066D01*
X232602Y637181D01*
X233066Y636717D01*
X233066Y635789D01*
X232602Y635325D01*
X231675D01*
X230747Y636253D01*
Y637181D01*
X235385Y636253D02*
X236313D01*
X237241Y635325D01*
X237241Y634398D01*
X235385Y632543D01*
X234457Y632543D01*
X233530Y633470D01*
Y634398D01*
X235385Y636253D01*
X205500Y949000D02*
X202717Y951783D01*
X204109Y953174D01*
X205036D01*
X205964Y952247D01*
Y951319D01*
X204572Y949928D01*
X205500Y950855D02*
X207355D01*
X210138Y953638D02*
X208283Y951783D01*
Y955494D01*
X207819Y955958D01*
X206891Y955958D01*
X205964Y955030D01*
Y954102D01*
X210602Y955030D02*
X211530D01*
X212457Y955958D01*
X212457Y956885D01*
X210602Y958741D01*
X209675Y958741D01*
X208747Y957813D01*
Y956885D01*
X209211Y956421D01*
X210138D01*
X211530Y957813D01*
X542500Y958000D02*
X545283Y960783D01*
X546674Y959391D01*
Y958464D01*
X545747Y957536D01*
X544819D01*
X543428Y958928D01*
X544355Y958000D02*
Y956145D01*
X547138Y953362D02*
X545283Y955217D01*
X548994D01*
X549458Y955681D01*
X549458Y956608D01*
X548530Y957536D01*
X547602D01*
X550385Y954753D02*
X551313D01*
X552241Y953825D01*
X552240Y952898D01*
X551777Y952434D01*
X550849D01*
X550849Y951506D01*
X550385Y951042D01*
X549458Y951042D01*
X548530Y951970D01*
Y952898D01*
X548994Y953362D01*
X549921D01*
Y954289D01*
X550385Y954753D01*
X549921Y953362D02*
X550849Y952434D01*
X549500Y665000D02*
X552283Y662217D01*
X550891Y660825D01*
X549964D01*
X549036Y661753D01*
Y662681D01*
X550428Y664072D01*
X549500Y663145D02*
X547645D01*
X544862Y660362D02*
X546717Y662217D01*
Y658506D01*
X547181Y658042D01*
X548108Y658042D01*
X549036Y658970D01*
Y659898D01*
X546717Y656651D02*
X544862Y654796D01*
X544398Y655260D01*
Y658970D01*
X543934Y659434D01*
X205000Y660500D02*
X207783Y663283D01*
X209174Y661892D01*
Y660964D01*
X208247Y660036D01*
X207319D01*
X205928Y661428D01*
X206855Y660500D02*
Y658645D01*
X209638Y655862D02*
X207783Y657717D01*
X211494D01*
X211958Y658181D01*
X211958Y659108D01*
X211030Y660036D01*
X210102D01*
X215204Y655862D02*
X213813Y656325D01*
X211958D01*
X211030Y655398D01*
Y654470D01*
X211958Y653543D01*
X212885Y653543D01*
X213349Y654006D01*
X213349Y654934D01*
X211958Y656325D01*
X227000Y970500D02*
X224217Y973283D01*
X225608Y974675D01*
X226536D01*
X227464Y973747D01*
Y972819D01*
X226072Y971428D01*
X227000Y972355D02*
X228855D01*
X231638Y975138D02*
X229783Y973283D01*
Y976994D01*
X229319Y977458D01*
X228392Y977458D01*
X227464Y976530D01*
Y975602D01*
X231638Y980704D02*
X229783Y978849D01*
X231174Y977458D01*
X231638Y978849D01*
X232102Y979313D01*
X233030D01*
X233958Y978385D01*
X233958Y977458D01*
X233030Y976530D01*
X232102D01*
X541500Y981500D02*
X538717Y984283D01*
X540108Y985674D01*
X541036D01*
X541964Y984747D01*
Y983819D01*
X540572Y982428D01*
X541500Y983355D02*
X543355D01*
X546138Y986138D02*
X544283Y984283D01*
Y987994D01*
X543819Y988457D01*
X542892Y988457D01*
X541964Y987530D01*
Y986602D01*
X548457Y988457D02*
X545675Y991241D01*
Y988457D01*
X547530Y990313D01*
X556000Y969000D02*
X553217Y971783D01*
X554608Y973174D01*
X555536D01*
X556464Y972247D01*
Y971319D01*
X555072Y969928D01*
X556000Y970855D02*
X557855D01*
X560638Y973638D02*
X558783Y971783D01*
Y975494D01*
X558319Y975957D01*
X557392Y975957D01*
X556464Y975030D01*
Y974102D01*
X559247Y976885D02*
Y977813D01*
X560175Y978741D01*
X561102Y978741D01*
X561566Y978277D01*
Y977349D01*
X561102Y976885D01*
X561566Y977349D01*
X562494Y977349D01*
X562957Y976885D01*
X562957Y975957D01*
X562030Y975030D01*
X561102D01*
X563500Y639000D02*
X560717Y636217D01*
X559326Y637608D01*
Y638536D01*
X560253Y639464D01*
X561181D01*
X562572Y638072D01*
X561645Y639000D02*
Y640855D01*
X558862Y643638D02*
X560717Y641783D01*
X557006D01*
X556542Y641319D01*
X556542Y640391D01*
X557470Y639464D01*
X558398D01*
X556079Y646421D02*
X557934Y644566D01*
X554223D01*
X553760Y644102D01*
X553759Y643175D01*
X554687Y642247D01*
X555615D01*
X539000Y629000D02*
X541783Y631783D01*
X543175Y630392D01*
Y629464D01*
X542247Y628536D01*
X541319D01*
X539928Y629928D01*
X540855Y629000D02*
Y627145D01*
X543638Y624362D02*
X541783Y626217D01*
X545494D01*
X545958Y626681D01*
X545958Y627608D01*
X545030Y628536D01*
X544102D01*
X544566Y623434D02*
X545494Y622506D01*
X545030Y622970D01*
X547813Y625753D01*
X546885D01*
X209500Y622500D02*
X206717Y625283D01*
X208108Y626675D01*
X209036D01*
X209964Y625747D01*
Y624819D01*
X208572Y623428D01*
X209500Y624355D02*
X211355D01*
X214138Y627138D02*
X212283Y625283D01*
Y628994D01*
X211819Y629458D01*
X210892Y629458D01*
X209964Y628530D01*
Y627602D01*
X212747Y630385D02*
Y631313D01*
X213674Y632240D01*
X214602Y632240D01*
X216458Y630385D01*
X216458Y629458D01*
X215530Y628530D01*
X214602D01*
X212747Y630385D01*
X195000Y636000D02*
X192217Y638783D01*
X193608Y640174D01*
X194536D01*
X195464Y639247D01*
Y638319D01*
X194072Y636928D01*
X195000Y637855D02*
X196855D01*
X197783Y638783D02*
X198711Y639711D01*
X198247Y639247D01*
X195464Y642030D01*
Y641102D01*
X199638Y641566D02*
X200566D01*
X201494Y642494D01*
X201494Y643421D01*
X199638Y645277D01*
X198711Y645277D01*
X197783Y644349D01*
Y643421D01*
X198247Y642957D01*
X199174Y642957D01*
X200566Y644349D01*
X193000Y975000D02*
X195783Y977783D01*
X197175Y976392D01*
Y975464D01*
X196247Y974536D01*
X195319D01*
X193928Y975928D01*
X194855Y975000D02*
Y973145D01*
X195783Y972217D02*
X196711Y971289D01*
X196247Y971753D01*
X199030Y974536D01*
X198102D01*
X200421Y972217D02*
X201349D01*
X202277Y971289D01*
X202277Y970362D01*
X201813Y969898D01*
X200885D01*
X200885Y968970D01*
X200421Y968506D01*
X199494Y968506D01*
X198566Y969434D01*
Y970362D01*
X199030Y970825D01*
X199958D01*
X199958Y971753D01*
X200421Y972217D01*
X199958Y970825D02*
X200885Y969898D01*
X207000Y987500D02*
X209783Y990283D01*
X211175Y988892D01*
Y987964D01*
X210247Y987036D01*
X209319D01*
X207928Y988428D01*
X208855Y987500D02*
Y985645D01*
X209783Y984717D02*
X210711Y983789D01*
X210247Y984253D01*
X213030Y987036D01*
X212102D01*
X214885Y985181D02*
X216740Y983325D01*
X216277Y982862D01*
X212566D01*
X212102Y982398D01*
X400000Y897500D02*
Y901436D01*
X401968D01*
X402624Y900780D01*
Y899468D01*
X401968Y898812D01*
X400000D01*
X401312D02*
X402624Y897500D01*
X403936D02*
X405248D01*
X404592D01*
Y901436D01*
X403936Y900780D01*
X409839Y901436D02*
X408527Y900780D01*
X407215Y899468D01*
Y898156D01*
X407871Y897500D01*
X409183D01*
X409839Y898156D01*
Y898812D01*
X409183Y899468D01*
X407215D01*
X412000Y897500D02*
Y901436D01*
X413968D01*
X414624Y900780D01*
Y899468D01*
X413968Y898812D01*
X412000D01*
X413312D02*
X414624Y897500D01*
X415936D02*
X417248D01*
X416592D01*
Y901436D01*
X415936Y900780D01*
X421839Y901436D02*
X419215D01*
Y899468D01*
X420527Y900124D01*
X421183D01*
X421839Y899468D01*
Y898156D01*
X421183Y897500D01*
X419872D01*
X419215Y898156D01*
X282500Y915500D02*
Y919436D01*
X284468D01*
X285124Y918780D01*
Y917468D01*
X284468Y916812D01*
X282500D01*
X283812D02*
X285124Y915500D01*
X286436D02*
X287748D01*
X287092D01*
Y919436D01*
X286436Y918780D01*
X291683Y915500D02*
Y919436D01*
X289716Y917468D01*
X292339D01*
X270500Y915500D02*
Y919436D01*
X272468D01*
X273124Y918780D01*
Y917468D01*
X272468Y916812D01*
X270500D01*
X271812D02*
X273124Y915500D01*
X274436D02*
X275748D01*
X275092D01*
Y919436D01*
X274436Y918780D01*
X277715D02*
X278372Y919436D01*
X279683D01*
X280339Y918780D01*
Y918124D01*
X279683Y917468D01*
X279027D01*
X279683D01*
X280339Y916812D01*
Y916156D01*
X279683Y915500D01*
X278372D01*
X277715Y916156D01*
X259000Y915500D02*
Y919436D01*
X260968D01*
X261624Y918780D01*
Y917468D01*
X260968Y916812D01*
X259000D01*
X260312D02*
X261624Y915500D01*
X262936D02*
X264248D01*
X263592D01*
Y919436D01*
X262936Y918780D01*
X268839Y915500D02*
X266215D01*
X268839Y918124D01*
Y918780D01*
X268183Y919436D01*
X266872D01*
X266215Y918780D01*
X423500Y804500D02*
Y808436D01*
X425468D01*
X426124Y807780D01*
Y806468D01*
X425468Y805812D01*
X423500D01*
X424812D02*
X426124Y804500D01*
X427436D02*
X428748D01*
X428092D01*
Y808436D01*
X427436Y807780D01*
X430716Y804500D02*
X432027D01*
X431371D01*
Y808436D01*
X430716Y807780D01*
X462000Y786000D02*
Y789936D01*
X463968D01*
X464624Y789280D01*
Y787968D01*
X463968Y787312D01*
X462000D01*
X463312D02*
X464624Y786000D01*
X465936D02*
X467248D01*
X466592D01*
Y789936D01*
X465936Y789280D01*
X469215D02*
X469872Y789936D01*
X471183D01*
X471839Y789280D01*
Y786656D01*
X471183Y786000D01*
X469872D01*
X469215Y786656D01*
Y789280D01*
X453500Y786000D02*
Y789936D01*
X455468D01*
X456124Y789280D01*
Y787968D01*
X455468Y787312D01*
X453500D01*
X454812D02*
X456124Y786000D01*
X457436Y786656D02*
X458092Y786000D01*
X459404D01*
X460060Y786656D01*
Y789280D01*
X459404Y789936D01*
X458092D01*
X457436Y789280D01*
Y788624D01*
X458092Y787968D01*
X460060D01*
X444500Y786000D02*
Y789936D01*
X446468D01*
X447124Y789280D01*
Y787968D01*
X446468Y787312D01*
X444500D01*
X445812D02*
X447124Y786000D01*
X448436Y789280D02*
X449092Y789936D01*
X450404D01*
X451060Y789280D01*
Y788624D01*
X450404Y787968D01*
X451060Y787312D01*
Y786656D01*
X450404Y786000D01*
X449092D01*
X448436Y786656D01*
Y787312D01*
X449092Y787968D01*
X448436Y788624D01*
Y789280D01*
X449092Y787968D02*
X450404D01*
X414500Y804500D02*
Y808436D01*
X416468D01*
X417124Y807780D01*
Y806468D01*
X416468Y805812D01*
X414500D01*
X415812D02*
X417124Y804500D01*
X418436Y808436D02*
X421060D01*
Y807780D01*
X418436Y805156D01*
Y804500D01*
X414000Y824500D02*
Y828436D01*
X415968D01*
X416624Y827780D01*
Y826468D01*
X415968Y825812D01*
X414000D01*
X415312D02*
X416624Y824500D01*
X420560Y828436D02*
X419248Y827780D01*
X417936Y826468D01*
Y825156D01*
X418592Y824500D01*
X419904D01*
X420560Y825156D01*
Y825812D01*
X419904Y826468D01*
X417936D01*
X322500Y805500D02*
Y809436D01*
X324468D01*
X325124Y808780D01*
Y807468D01*
X324468Y806812D01*
X322500D01*
X323812D02*
X325124Y805500D01*
X329060Y809436D02*
X326436D01*
Y807468D01*
X327748Y808124D01*
X328404D01*
X329060Y807468D01*
Y806156D01*
X328404Y805500D01*
X327092D01*
X326436Y806156D01*
X423500Y824500D02*
Y828436D01*
X425468D01*
X426124Y827780D01*
Y826468D01*
X425468Y825812D01*
X423500D01*
X424812D02*
X426124Y824500D01*
X429404D02*
Y828436D01*
X427436Y826468D01*
X430060D01*
X322500Y785500D02*
Y789436D01*
X324468D01*
X325124Y788780D01*
Y787468D01*
X324468Y786812D01*
X322500D01*
X323812D02*
X325124Y785500D01*
X326436Y788780D02*
X327092Y789436D01*
X328404D01*
X329060Y788780D01*
Y788124D01*
X328404Y787468D01*
X327748D01*
X328404D01*
X329060Y786812D01*
Y786156D01*
X328404Y785500D01*
X327092D01*
X326436Y786156D01*
X413000Y845000D02*
Y848936D01*
X414968D01*
X415624Y848280D01*
Y846968D01*
X414968Y846312D01*
X413000D01*
X414312D02*
X415624Y845000D01*
X419560D02*
X416936D01*
X419560Y847624D01*
Y848280D01*
X418904Y848936D01*
X417592D01*
X416936Y848280D01*
X333000Y785500D02*
Y789436D01*
X334968D01*
X335624Y788780D01*
Y787468D01*
X334968Y786812D01*
X333000D01*
X334312D02*
X335624Y785500D01*
X336936D02*
X338248D01*
X337592D01*
Y789436D01*
X336936Y788780D01*
X470624Y734656D02*
Y737280D01*
X469968Y737936D01*
X468656D01*
X468000Y737280D01*
Y734656D01*
X468656Y734000D01*
X469968D01*
X469312Y735312D02*
X470624Y734000D01*
X469968D02*
X470624Y734656D01*
X474560Y737936D02*
X471936D01*
Y735968D01*
X473248Y736624D01*
X473904D01*
X474560Y735968D01*
Y734656D01*
X473904Y734000D01*
X472592D01*
X471936Y734656D01*
X548624Y977156D02*
Y979780D01*
X547968Y980436D01*
X546656D01*
X546000Y979780D01*
Y977156D01*
X546656Y976500D01*
X547968D01*
X547312Y977812D02*
X548624Y976500D01*
X547968D02*
X548624Y977156D01*
X551904Y976500D02*
Y980436D01*
X549936Y978468D01*
X552560D01*
X548124Y634656D02*
Y637280D01*
X547468Y637936D01*
X546156D01*
X545500Y637280D01*
Y634656D01*
X546156Y634000D01*
X547468D01*
X546812Y635312D02*
X548124Y634000D01*
X547468D02*
X548124Y634656D01*
X549436Y637280D02*
X550092Y637936D01*
X551404D01*
X552060Y637280D01*
Y636624D01*
X551404Y635968D01*
X550748D01*
X551404D01*
X552060Y635312D01*
Y634656D01*
X551404Y634000D01*
X550092D01*
X549436Y634656D01*
X205124Y634156D02*
Y636780D01*
X204468Y637436D01*
X203156D01*
X202500Y636780D01*
Y634156D01*
X203156Y633500D01*
X204468D01*
X203812Y634812D02*
X205124Y633500D01*
X204468D02*
X205124Y634156D01*
X209060Y633500D02*
X206436D01*
X209060Y636124D01*
Y636780D01*
X208404Y637436D01*
X207092D01*
X206436Y636780D01*
X206124Y976656D02*
Y979280D01*
X205468Y979936D01*
X204156D01*
X203500Y979280D01*
Y976656D01*
X204156Y976000D01*
X205468D01*
X204812Y977312D02*
X206124Y976000D01*
X205468D02*
X206124Y976656D01*
X207436Y976000D02*
X208748D01*
X208092D01*
Y979936D01*
X207436Y979280D01*
X294000Y867000D02*
X297936D01*
Y865032D01*
X297280Y864376D01*
X295968D01*
X295312Y865032D01*
Y867000D01*
X297936Y861096D02*
Y862408D01*
X297280Y863064D01*
X294656D01*
X294000Y862408D01*
Y861096D01*
X294656Y860440D01*
X297280D01*
X297936Y861096D01*
Y859128D02*
X294000D01*
X295312Y857817D01*
X294000Y856505D01*
X297936D01*
Y852569D02*
Y855193D01*
X294000D01*
Y852569D01*
X295968Y855193D02*
Y853881D01*
X294000Y851257D02*
X297936D01*
Y849289D01*
X297280Y848633D01*
X295968D01*
X295312Y849289D01*
Y851257D01*
Y849945D02*
X294000Y848633D01*
X445600Y870600D02*
Y874536D01*
X447568D01*
X448224Y873880D01*
Y872568D01*
X447568Y871912D01*
X445600D01*
X451504Y874536D02*
X450192D01*
X449536Y873880D01*
Y871256D01*
X450192Y870600D01*
X451504D01*
X452160Y871256D01*
Y873880D01*
X451504Y874536D01*
X453472Y870600D02*
Y874536D01*
X455439D01*
X456095Y873880D01*
Y872568D01*
X455439Y871912D01*
X453472D01*
X454783D02*
X456095Y870600D01*
X457407Y874536D02*
X460031D01*
X458719D01*
Y870600D01*
X461343D02*
X462655D01*
X461999D01*
Y874536D01*
X461343Y873880D01*
X345600Y762400D02*
Y766336D01*
X347568D01*
X348224Y765680D01*
Y764368D01*
X347568Y763712D01*
X345600D01*
X349536Y762400D02*
X350848D01*
X350192D01*
Y766336D01*
X349536Y765680D01*
X297500Y838436D02*
Y835156D01*
X298156Y834500D01*
X299468D01*
X300124Y835156D01*
Y838436D01*
X304060Y837780D02*
X303404Y838436D01*
X302092D01*
X301436Y837780D01*
Y837124D01*
X302092Y836468D01*
X303404D01*
X304060Y835812D01*
Y835156D01*
X303404Y834500D01*
X302092D01*
X301436Y835156D01*
X305371Y838436D02*
Y834500D01*
X307339D01*
X307995Y835156D01*
Y835812D01*
X307339Y836468D01*
X305371D01*
X307339D01*
X307995Y837124D01*
Y837780D01*
X307339Y838436D01*
X305371D01*
X525283Y961783D02*
X522500Y959000D01*
X523891Y957609D01*
X524819D01*
X526675Y959464D01*
Y960392D01*
X525283Y961783D01*
Y956217D02*
X526211Y955289D01*
X525747Y955753D01*
X528530Y958536D01*
X527602D01*
X528994Y952506D02*
X531777Y955289D01*
X528994D01*
X530849Y953434D01*
X531783Y659217D02*
X529000Y662000D01*
X527608Y660608D01*
Y659681D01*
X529464Y657826D01*
X530392D01*
X531783Y659217D01*
X526217D02*
X525289Y658289D01*
X525753Y658753D01*
X528536Y655970D01*
Y656898D01*
X522043Y655043D02*
X523898Y656898D01*
Y653187D01*
X524362Y652723D01*
X525289Y652723D01*
X526217Y653651D01*
Y654579D01*
X230217Y652717D02*
X233000Y655500D01*
X231609Y656891D01*
X230681D01*
X228825Y655036D01*
Y654108D01*
X230217Y652717D01*
Y658283D02*
X229289Y659211D01*
X229753Y658747D01*
X226970Y655964D01*
X227898D01*
X225579Y658283D02*
X224651D01*
X223723Y659211D01*
X223723Y660138D01*
X225579Y661994D01*
X226506Y661994D01*
X227434Y661066D01*
Y660138D01*
X225579Y658283D01*
X225217Y955783D02*
X228000Y953000D01*
X229392Y954391D01*
Y955319D01*
X227536Y957174D01*
X226608D01*
X225217Y955783D01*
X228464Y958102D02*
Y959030D01*
X229392Y959958D01*
X230319Y959958D01*
X230783Y959494D01*
Y958566D01*
X231711Y958566D01*
X232174Y958102D01*
Y957174D01*
X231247Y956247D01*
X230319D01*
X229855Y956711D01*
Y957638D01*
X228928Y957638D01*
X228464Y958102D01*
X229855Y957638D02*
X230783Y958566D01*
X281000Y891436D02*
Y887500D01*
X282968D01*
X283624Y888156D01*
Y890780D01*
X282968Y891436D01*
X281000D01*
X287560D02*
X286248Y890780D01*
X284936Y889468D01*
Y888156D01*
X285592Y887500D01*
X286904D01*
X287560Y888156D01*
Y888812D01*
X286904Y889468D01*
X284936D01*
X281000Y883436D02*
Y879500D01*
X282968D01*
X283624Y880156D01*
Y882780D01*
X282968Y883436D01*
X281000D01*
X287560D02*
X284936D01*
Y881468D01*
X286248Y882124D01*
X286904D01*
X287560Y881468D01*
Y880156D01*
X286904Y879500D01*
X285592D01*
X284936Y880156D01*
X462000Y811436D02*
Y807500D01*
X463968D01*
X464624Y808156D01*
Y810780D01*
X463968Y811436D01*
X462000D01*
X467904Y807500D02*
Y811436D01*
X465936Y809468D01*
X468560D01*
X453000Y811436D02*
Y807500D01*
X454968D01*
X455624Y808156D01*
Y810780D01*
X454968Y811436D01*
X453000D01*
X456936Y810780D02*
X457592Y811436D01*
X458904D01*
X459560Y810780D01*
Y810124D01*
X458904Y809468D01*
X458248D01*
X458904D01*
X459560Y808812D01*
Y808156D01*
X458904Y807500D01*
X457592D01*
X456936Y808156D01*
X444500Y811436D02*
Y807500D01*
X446468D01*
X447124Y808156D01*
Y810780D01*
X446468Y811436D01*
X444500D01*
X451060Y807500D02*
X448436D01*
X451060Y810124D01*
Y810780D01*
X450404Y811436D01*
X449092D01*
X448436Y810780D01*
X415124Y737280D02*
X414468Y737936D01*
X413156D01*
X412500Y737280D01*
Y734656D01*
X413156Y734000D01*
X414468D01*
X415124Y734656D01*
X419060Y734000D02*
X416436D01*
X419060Y736624D01*
Y737280D01*
X418404Y737936D01*
X417092D01*
X416436Y737280D01*
X422995Y734000D02*
X420371D01*
X422995Y736624D01*
Y737280D01*
X422339Y737936D01*
X421027D01*
X420371Y737280D01*
X403624D02*
X402968Y737936D01*
X401656D01*
X401000Y737280D01*
Y734656D01*
X401656Y734000D01*
X402968D01*
X403624Y734656D01*
X407560Y734000D02*
X404936D01*
X407560Y736624D01*
Y737280D01*
X406904Y737936D01*
X405592D01*
X404936Y737280D01*
X408872Y734000D02*
X410183D01*
X409527D01*
Y737936D01*
X408872Y737280D01*
X424624Y787780D02*
X423968Y788436D01*
X422656D01*
X422000Y787780D01*
Y785156D01*
X422656Y784500D01*
X423968D01*
X424624Y785156D01*
X428560Y784500D02*
X425936D01*
X428560Y787124D01*
Y787780D01*
X427904Y788436D01*
X426592D01*
X425936Y787780D01*
X429872D02*
X430527Y788436D01*
X431839D01*
X432495Y787780D01*
Y785156D01*
X431839Y784500D01*
X430527D01*
X429872Y785156D01*
Y787780D01*
X424624Y848280D02*
X423968Y848936D01*
X422656D01*
X422000Y848280D01*
Y845656D01*
X422656Y845000D01*
X423968D01*
X424624Y845656D01*
X425936Y845000D02*
X427248D01*
X426592D01*
Y848936D01*
X425936Y848280D01*
X429215Y845656D02*
X429872Y845000D01*
X431183D01*
X431839Y845656D01*
Y848280D01*
X431183Y848936D01*
X429872D01*
X429215Y848280D01*
Y847624D01*
X429872Y846968D01*
X431839D01*
X333624Y829280D02*
X332968Y829936D01*
X331656D01*
X331000Y829280D01*
Y826656D01*
X331656Y826000D01*
X332968D01*
X333624Y826656D01*
X334936Y826000D02*
X336248D01*
X335592D01*
Y829936D01*
X334936Y829280D01*
X338215D02*
X338872Y829936D01*
X340183D01*
X340839Y829280D01*
Y828624D01*
X340183Y827968D01*
X340839Y827312D01*
Y826656D01*
X340183Y826000D01*
X338872D01*
X338215Y826656D01*
Y827312D01*
X338872Y827968D01*
X338215Y828624D01*
Y829280D01*
X338872Y827968D02*
X340183D01*
X333624Y768780D02*
X332968Y769436D01*
X331656D01*
X331000Y768780D01*
Y766156D01*
X331656Y765500D01*
X332968D01*
X333624Y766156D01*
X334936Y765500D02*
X336248D01*
X335592D01*
Y769436D01*
X334936Y768780D01*
X338215Y769436D02*
X340839D01*
Y768780D01*
X338215Y766156D01*
Y765500D01*
X324124Y861280D02*
X323468Y861936D01*
X322156D01*
X321500Y861280D01*
Y858656D01*
X322156Y858000D01*
X323468D01*
X324124Y858656D01*
X325436Y858000D02*
X326748D01*
X326092D01*
Y861936D01*
X325436Y861280D01*
X331339Y861936D02*
X330027Y861280D01*
X328715Y859968D01*
Y858656D01*
X329372Y858000D01*
X330683D01*
X331339Y858656D01*
Y859312D01*
X330683Y859968D01*
X328715D01*
X311624Y861280D02*
X310968Y861936D01*
X309656D01*
X309000Y861280D01*
Y858656D01*
X309656Y858000D01*
X310968D01*
X311624Y858656D01*
X312936Y858000D02*
X314248D01*
X313592D01*
Y861936D01*
X312936Y861280D01*
X318839Y861936D02*
X316215D01*
Y859968D01*
X317527Y860624D01*
X318183D01*
X318839Y859968D01*
Y858656D01*
X318183Y858000D01*
X316872D01*
X316215Y858656D01*
X334124Y808780D02*
X333468Y809436D01*
X332156D01*
X331500Y808780D01*
Y806156D01*
X332156Y805500D01*
X333468D01*
X334124Y806156D01*
X335436Y805500D02*
X336748D01*
X336092D01*
Y809436D01*
X335436Y808780D01*
X340683Y805500D02*
Y809436D01*
X338716Y807468D01*
X341339D01*
X345124Y861280D02*
X344468Y861936D01*
X343156D01*
X342500Y861280D01*
Y858656D01*
X343156Y858000D01*
X344468D01*
X345124Y858656D01*
X346436Y858000D02*
X347748D01*
X347092D01*
Y861936D01*
X346436Y861280D01*
X349715D02*
X350372Y861936D01*
X351683D01*
X352339Y861280D01*
Y860624D01*
X351683Y859968D01*
X351027D01*
X351683D01*
X352339Y859312D01*
Y858656D01*
X351683Y858000D01*
X350372D01*
X349715Y858656D01*
X336624Y861280D02*
X335968Y861936D01*
X334656D01*
X334000Y861280D01*
Y858656D01*
X334656Y858000D01*
X335968D01*
X336624Y858656D01*
X340560Y861936D02*
X339248Y861280D01*
X337936Y859968D01*
Y858656D01*
X338592Y858000D01*
X339904D01*
X340560Y858656D01*
Y859312D01*
X339904Y859968D01*
X337936D01*
X348280Y737876D02*
X348936Y738532D01*
Y739844D01*
X348280Y740500D01*
X345656D01*
X345000Y739844D01*
Y738532D01*
X345656Y737876D01*
X348936Y733940D02*
Y736564D01*
X346968D01*
X347624Y735252D01*
Y734596D01*
X346968Y733940D01*
X345656D01*
X345000Y734596D01*
Y735908D01*
X345656Y736564D01*
X382780Y736876D02*
X383436Y737532D01*
Y738844D01*
X382780Y739500D01*
X380156D01*
X379500Y738844D01*
Y737532D01*
X380156Y736876D01*
X379500Y733596D02*
X383436D01*
X381468Y735564D01*
Y732940D01*
X155500Y1006000D02*
X151564D01*
X152876Y1007312D01*
X151564Y1008624D01*
X155500D01*
X152220Y1012560D02*
X151564Y1011904D01*
Y1010592D01*
X152220Y1009936D01*
X154844D01*
X155500Y1010592D01*
Y1011904D01*
X154844Y1012560D01*
X153532D01*
Y1011248D01*
X155500Y1013871D02*
Y1015183D01*
Y1014527D01*
X151564D01*
X152220Y1013871D01*
X156000Y600500D02*
X152064D01*
X153376Y601812D01*
X152064Y603124D01*
X156000D01*
X152720Y607060D02*
X152064Y606404D01*
Y605092D01*
X152720Y604436D01*
X155344D01*
X156000Y605092D01*
Y606404D01*
X155344Y607060D01*
X154032D01*
Y605748D01*
X156000Y610995D02*
Y608371D01*
X153376Y610995D01*
X152720D01*
X152064Y610339D01*
Y609027D01*
X152720Y608371D01*
X599500Y608000D02*
X603436D01*
X602124Y606688D01*
X603436Y605376D01*
X599500D01*
X602780Y601440D02*
X603436Y602096D01*
Y603408D01*
X602780Y604064D01*
X600156D01*
X599500Y603408D01*
Y602096D01*
X600156Y601440D01*
X601468D01*
Y602752D01*
X602780Y600129D02*
X603436Y599473D01*
Y598161D01*
X602780Y597505D01*
X602124D01*
X601468Y598161D01*
Y598817D01*
Y598161D01*
X600812Y597505D01*
X600156D01*
X599500Y598161D01*
Y599473D01*
X600156Y600129D01*
X599000Y1013500D02*
X602936D01*
X601624Y1012188D01*
X602936Y1010876D01*
X599000D01*
X602280Y1006940D02*
X602936Y1007596D01*
Y1008908D01*
X602280Y1009564D01*
X599656D01*
X599000Y1008908D01*
Y1007596D01*
X599656Y1006940D01*
X600968D01*
Y1008252D01*
X599000Y1003661D02*
X602936D01*
X600968Y1005628D01*
Y1003005D01*
X356624Y878436D02*
X354000D01*
Y874500D01*
X356624D01*
X354000Y876468D02*
X355312D01*
X360560Y877780D02*
X359904Y878436D01*
X358592D01*
X357936Y877780D01*
Y877124D01*
X358592Y876468D01*
X359904D01*
X360560Y875812D01*
Y875156D01*
X359904Y874500D01*
X358592D01*
X357936Y875156D01*
X361872Y874500D02*
Y878436D01*
X363839D01*
X364495Y877780D01*
Y876468D01*
X363839Y875812D01*
X361872D01*
X365807Y876468D02*
X368431D01*
X369743Y877780D02*
X370399Y878436D01*
X371711D01*
X372367Y877780D01*
Y875156D01*
X371711Y874500D01*
X370399D01*
X369743Y875156D01*
Y877780D01*
X373679D02*
X374335Y878436D01*
X375647D01*
X376303Y877780D01*
Y877124D01*
X375647Y876468D01*
X374991D01*
X375647D01*
X376303Y875812D01*
Y875156D01*
X375647Y874500D01*
X374335D01*
X373679Y875156D01*
X289000Y746500D02*
X290312D01*
X289656D01*
Y750436D01*
X289000Y749780D01*
X344000Y892001D02*
X346999Y895000D01*
X349998Y892001D01*
X346999Y889002D02*
Y885003D01*
D49*
X358350Y803583D02*
G03*
X358350Y803583I-492J0D01*
G01*
X213523Y961374D02*
G03*
X213523Y961374I-492J0D01*
G01*
X223618Y642531D02*
G03*
X223618Y642531I-492J0D01*
G01*
X363575Y846921D02*
G03*
X363575Y846921I-492J0D01*
G01*
X532366Y971469D02*
G03*
X532366Y971469I-492J0D01*
G01*
X542461Y652626D02*
G03*
X542461Y652626I-492J0D01*
G01*
X459500Y721500D02*
G03*
X459500Y721500I-492J0D01*
G01*
D50*
X368685Y796496D02*
G03*
X368685Y796496I-1181J0D01*
G01*
D51*
X323561Y891500D02*
G03*
X326061Y891500I1250J0D01*
G01*
X465000Y822500D02*
Y862500D01*
X445000Y822500D02*
X465000D01*
X445000D02*
Y862500D01*
X465000D01*
X405000Y749000D02*
Y759000D01*
X345000Y749000D02*
Y759000D01*
X405000D01*
X345000Y749000D02*
X405000D01*
X394000Y880500D02*
Y900500D01*
X354000Y880500D02*
Y900500D01*
X394000D01*
X354000Y880500D02*
X394000D01*
X363567Y779567D02*
Y800433D01*
X384433Y779567D02*
Y800433D01*
X363567D02*
X384433D01*
X363567Y779567D02*
X384433D01*
X208610Y969152D02*
X212716Y965046D01*
X215848Y976390D02*
X219954Y972284D01*
X208610Y969152D02*
X209863Y970405D01*
X214595Y975137D02*
X215848Y976390D01*
X281500Y847500D02*
X291500D01*
X281500D02*
Y867500D01*
X291500D01*
Y847500D02*
Y867500D01*
X302000Y809500D02*
Y813500D01*
X296500Y809500D02*
X302000D01*
X282500D02*
X287000D01*
X282500D02*
Y831500D01*
X287000D01*
X302000Y827500D02*
Y832000D01*
X296500D02*
X302000D01*
X285500Y810500D02*
Y830500D01*
X215348Y638110D02*
X219454Y642216D01*
X208110Y645348D02*
X212216Y649454D01*
X214095Y639363D02*
X215348Y638110D01*
X208110Y645348D02*
X209363Y644095D01*
X226429Y666036D02*
X229964Y669571D01*
X238036Y958571D02*
X241571Y955036D01*
X525536Y945429D02*
X529071Y948964D01*
X514929Y658464D02*
X518464Y654929D01*
X366429Y848004D02*
Y850071D01*
X368496D01*
X380504D02*
X382571D01*
Y848004D02*
Y850071D01*
Y833929D02*
Y835996D01*
X380504Y833929D02*
X382571D01*
X366429D02*
X368496D01*
X366429D02*
Y835996D01*
X535546Y971784D02*
X539652Y975890D01*
X542784Y964546D02*
X546890Y968652D01*
X539652Y975890D02*
X540905Y974637D01*
X545637Y969905D02*
X546890Y968652D01*
X542284Y648954D02*
X546390Y644848D01*
X535046Y641716D02*
X539152Y637610D01*
X545137Y643595D02*
X546390Y644848D01*
X539152Y637610D02*
X540405Y638863D01*
X318256Y891500D02*
X323561D01*
X326061D02*
X331366D01*
Y871500D02*
Y891500D01*
X318256Y871500D02*
X331366D01*
X318256D02*
Y891500D01*
X445500Y805500D02*
X450500D01*
X454000D02*
X459000D01*
X462500D02*
X467500D01*
X289500Y879000D02*
Y884000D01*
Y887000D02*
Y892000D01*
X461382Y724319D02*
Y730126D01*
X471618Y724319D02*
Y730126D01*
X461382D02*
X463154D01*
X469846D02*
X471618D01*
M02*
