%FSLAX25Y25*%
%MOIN*%
G70*
G01*
G75*
G04 Layer_Color=32896*
G04:AMPARAMS|DCode=10|XSize=78.74mil|YSize=47.24mil|CornerRadius=0mil|HoleSize=0mil|Usage=FLASHONLY|Rotation=45.000|XOffset=0mil|YOffset=0mil|HoleType=Round|Shape=Rectangle|*
%AMROTATEDRECTD10*
4,1,4,-0.01114,-0.04454,-0.04454,-0.01114,0.01114,0.04454,0.04454,0.01114,-0.01114,-0.04454,0.0*
%
%ADD10ROTATEDRECTD10*%

G04:AMPARAMS|DCode=11|XSize=78.74mil|YSize=47.24mil|CornerRadius=0mil|HoleSize=0mil|Usage=FLASHONLY|Rotation=315.000|XOffset=0mil|YOffset=0mil|HoleType=Round|Shape=Rectangle|*
%AMROTATEDRECTD11*
4,1,4,-0.04454,0.01114,-0.01114,0.04454,0.04454,-0.01114,0.01114,-0.04454,-0.04454,0.01114,0.0*
%
%ADD11ROTATEDRECTD11*%

%ADD12O,0.08268X0.01181*%
%ADD13O,0.01181X0.08268*%
G04:AMPARAMS|DCode=14|XSize=59.06mil|YSize=51.18mil|CornerRadius=0mil|HoleSize=0mil|Usage=FLASHONLY|Rotation=225.000|XOffset=0mil|YOffset=0mil|HoleType=Round|Shape=Rectangle|*
%AMROTATEDRECTD14*
4,1,4,0.00278,0.03897,0.03897,0.00278,-0.00278,-0.03897,-0.03897,-0.00278,0.00278,0.03897,0.0*
%
%ADD14ROTATEDRECTD14*%

G04:AMPARAMS|DCode=15|XSize=35.43mil|YSize=37.4mil|CornerRadius=0mil|HoleSize=0mil|Usage=FLASHONLY|Rotation=45.000|XOffset=0mil|YOffset=0mil|HoleType=Round|Shape=Rectangle|*
%AMROTATEDRECTD15*
4,1,4,0.00070,-0.02575,-0.02575,0.00070,-0.00070,0.02575,0.02575,-0.00070,0.00070,-0.02575,0.0*
%
%ADD15ROTATEDRECTD15*%

G04:AMPARAMS|DCode=16|XSize=35.43mil|YSize=37.4mil|CornerRadius=0mil|HoleSize=0mil|Usage=FLASHONLY|Rotation=45.000|XOffset=0mil|YOffset=0mil|HoleType=Round|Shape=Rectangle|*
%AMROTATEDRECTD16*
4,1,4,0.00070,-0.02575,-0.02575,0.00070,-0.00070,0.02575,0.02575,-0.00070,0.00070,-0.02575,0.0*
%
%ADD16ROTATEDRECTD16*%

G04:AMPARAMS|DCode=17|XSize=59.06mil|YSize=51.18mil|CornerRadius=0mil|HoleSize=0mil|Usage=FLASHONLY|Rotation=135.000|XOffset=0mil|YOffset=0mil|HoleType=Round|Shape=Rectangle|*
%AMROTATEDRECTD17*
4,1,4,0.03897,-0.00278,0.00278,-0.03897,-0.03897,0.00278,-0.00278,0.03897,0.03897,-0.00278,0.0*
%
%ADD17ROTATEDRECTD17*%

G04:AMPARAMS|DCode=18|XSize=53.15mil|YSize=15.75mil|CornerRadius=0mil|HoleSize=0mil|Usage=FLASHONLY|Rotation=0.000|XOffset=0mil|YOffset=0mil|HoleType=Round|Shape=Octagon|*
%AMOCTAGOND18*
4,1,8,0.02658,-0.00394,0.02658,0.00394,0.02264,0.00787,-0.02264,0.00787,-0.02658,0.00394,-0.02658,-0.00394,-0.02264,-0.00787,0.02264,-0.00787,0.02658,-0.00394,0.0*
%
%ADD18OCTAGOND18*%

%ADD19R,0.07480X0.09000*%
%ADD20R,0.07480X0.07087*%
G04:AMPARAMS|DCode=21|XSize=35.43mil|YSize=37.4mil|CornerRadius=0mil|HoleSize=0mil|Usage=FLASHONLY|Rotation=135.000|XOffset=0mil|YOffset=0mil|HoleType=Round|Shape=Rectangle|*
%AMROTATEDRECTD21*
4,1,4,0.02575,0.00070,-0.00070,-0.02575,-0.02575,-0.00070,0.00070,0.02575,0.02575,0.00070,0.0*
%
%ADD21ROTATEDRECTD21*%

G04:AMPARAMS|DCode=22|XSize=35.43mil|YSize=37.4mil|CornerRadius=0mil|HoleSize=0mil|Usage=FLASHONLY|Rotation=135.000|XOffset=0mil|YOffset=0mil|HoleType=Round|Shape=Rectangle|*
%AMROTATEDRECTD22*
4,1,4,0.02575,0.00070,-0.00070,-0.02575,-0.02575,-0.00070,0.00070,0.02575,0.02575,0.00070,0.0*
%
%ADD22ROTATEDRECTD22*%

%ADD23R,0.07480X0.02756*%
%ADD24O,0.02362X0.00984*%
%ADD25O,0.00984X0.02362*%
%ADD26R,0.11024X0.10630*%
%ADD27R,0.05906X0.05118*%
%ADD28R,0.05906X0.03937*%
%ADD29R,0.04724X0.01654*%
%ADD30R,0.05118X0.05906*%
%ADD31R,0.03543X0.03740*%
%ADD32R,0.03543X0.03740*%
%ADD33C,0.01000*%
%ADD34C,0.05906*%
%ADD35R,0.05906X0.05906*%
%ADD36R,0.05906X0.05906*%
%ADD37C,0.31496*%
%ADD38C,0.01969*%
%ADD39R,0.06102X0.04331*%
%ADD40R,0.06102X0.04331*%
%ADD41R,0.06102X0.13583*%
%ADD42R,0.07874X0.05906*%
%ADD43R,0.09843X0.07087*%
%ADD44R,0.03937X0.01575*%
%ADD45R,0.03937X0.01575*%
%ADD46R,0.07087X0.09843*%
%ADD47R,0.01575X0.03937*%
%ADD48R,0.01575X0.03937*%
%ADD49C,0.00984*%
%ADD50C,0.02362*%
%ADD51C,0.00787*%
G04:AMPARAMS|DCode=52|XSize=86.74mil|YSize=55.24mil|CornerRadius=0mil|HoleSize=0mil|Usage=FLASHONLY|Rotation=45.000|XOffset=0mil|YOffset=0mil|HoleType=Round|Shape=Rectangle|*
%AMROTATEDRECTD52*
4,1,4,-0.01114,-0.05020,-0.05020,-0.01114,0.01114,0.05020,0.05020,0.01114,-0.01114,-0.05020,0.0*
%
%ADD52ROTATEDRECTD52*%

G04:AMPARAMS|DCode=53|XSize=86.74mil|YSize=55.24mil|CornerRadius=0mil|HoleSize=0mil|Usage=FLASHONLY|Rotation=315.000|XOffset=0mil|YOffset=0mil|HoleType=Round|Shape=Rectangle|*
%AMROTATEDRECTD53*
4,1,4,-0.05020,0.01114,-0.01114,0.05020,0.05020,-0.01114,0.01114,-0.05020,-0.05020,0.01114,0.0*
%
%ADD53ROTATEDRECTD53*%

%ADD54O,0.09068X0.01981*%
%ADD55O,0.01981X0.09068*%
G04:AMPARAMS|DCode=56|XSize=67.06mil|YSize=59.18mil|CornerRadius=0mil|HoleSize=0mil|Usage=FLASHONLY|Rotation=225.000|XOffset=0mil|YOffset=0mil|HoleType=Round|Shape=Rectangle|*
%AMROTATEDRECTD56*
4,1,4,0.00278,0.04463,0.04463,0.00278,-0.00278,-0.04463,-0.04463,-0.00278,0.00278,0.04463,0.0*
%
%ADD56ROTATEDRECTD56*%

G04:AMPARAMS|DCode=57|XSize=43.43mil|YSize=45.4mil|CornerRadius=0mil|HoleSize=0mil|Usage=FLASHONLY|Rotation=45.000|XOffset=0mil|YOffset=0mil|HoleType=Round|Shape=Rectangle|*
%AMROTATEDRECTD57*
4,1,4,0.00070,-0.03141,-0.03141,0.00070,-0.00070,0.03141,0.03141,-0.00070,0.00070,-0.03141,0.0*
%
%ADD57ROTATEDRECTD57*%

G04:AMPARAMS|DCode=58|XSize=43.43mil|YSize=45.4mil|CornerRadius=0mil|HoleSize=0mil|Usage=FLASHONLY|Rotation=45.000|XOffset=0mil|YOffset=0mil|HoleType=Round|Shape=Rectangle|*
%AMROTATEDRECTD58*
4,1,4,0.00070,-0.03141,-0.03141,0.00070,-0.00070,0.03141,0.03141,-0.00070,0.00070,-0.03141,0.0*
%
%ADD58ROTATEDRECTD58*%

G04:AMPARAMS|DCode=59|XSize=67.06mil|YSize=59.18mil|CornerRadius=0mil|HoleSize=0mil|Usage=FLASHONLY|Rotation=135.000|XOffset=0mil|YOffset=0mil|HoleType=Round|Shape=Rectangle|*
%AMROTATEDRECTD59*
4,1,4,0.04463,-0.00278,0.00278,-0.04463,-0.04463,0.00278,-0.00278,0.04463,0.04463,-0.00278,0.0*
%
%ADD59ROTATEDRECTD59*%

G04:AMPARAMS|DCode=60|XSize=61.15mil|YSize=23.75mil|CornerRadius=0mil|HoleSize=0mil|Usage=FLASHONLY|Rotation=0.000|XOffset=0mil|YOffset=0mil|HoleType=Round|Shape=Octagon|*
%AMOCTAGOND60*
4,1,8,0.03058,-0.00594,0.03058,0.00594,0.02464,0.01187,-0.02464,0.01187,-0.03058,0.00594,-0.03058,-0.00594,-0.02464,-0.01187,0.02464,-0.01187,0.03058,-0.00594,0.0*
%
%ADD60OCTAGOND60*%

%ADD61R,0.08280X0.09800*%
%ADD62R,0.08280X0.07887*%
G04:AMPARAMS|DCode=63|XSize=43.43mil|YSize=45.4mil|CornerRadius=0mil|HoleSize=0mil|Usage=FLASHONLY|Rotation=135.000|XOffset=0mil|YOffset=0mil|HoleType=Round|Shape=Rectangle|*
%AMROTATEDRECTD63*
4,1,4,0.03141,0.00070,-0.00070,-0.03141,-0.03141,-0.00070,0.00070,0.03141,0.03141,0.00070,0.0*
%
%ADD63ROTATEDRECTD63*%

G04:AMPARAMS|DCode=64|XSize=43.43mil|YSize=45.4mil|CornerRadius=0mil|HoleSize=0mil|Usage=FLASHONLY|Rotation=135.000|XOffset=0mil|YOffset=0mil|HoleType=Round|Shape=Rectangle|*
%AMROTATEDRECTD64*
4,1,4,0.03141,0.00070,-0.00070,-0.03141,-0.03141,-0.00070,0.00070,0.03141,0.03141,0.00070,0.0*
%
%ADD64ROTATEDRECTD64*%

%ADD65R,0.08280X0.03556*%
%ADD66O,0.03162X0.01784*%
%ADD67O,0.01784X0.03162*%
%ADD68R,0.11824X0.11430*%
%ADD69R,0.06706X0.05918*%
%ADD70R,0.06706X0.04737*%
%ADD71R,0.05524X0.02454*%
%ADD72R,0.05918X0.06706*%
%ADD73R,0.04343X0.04540*%
%ADD74R,0.04343X0.04540*%
%ADD75C,0.06706*%
%ADD76R,0.06706X0.06706*%
%ADD77R,0.06706X0.06706*%
%ADD78C,0.32296*%
%ADD79C,0.02769*%
%ADD80R,0.06902X0.05131*%
%ADD81R,0.06902X0.05131*%
%ADD82R,0.06902X0.14383*%
%ADD83R,0.08674X0.06706*%
%ADD84R,0.10642X0.07887*%
%ADD85R,0.04737X0.02375*%
%ADD86R,0.04737X0.02375*%
%ADD87R,0.07887X0.10642*%
%ADD88R,0.02375X0.04737*%
%ADD89R,0.02375X0.04737*%
%ADD90C,0.00394*%
%ADD91C,0.00700*%
D33*
X450700Y803736D02*
Y800456D01*
X450044Y799800D01*
X448732D01*
X448076Y800456D01*
Y803736D01*
X444140D02*
X446764D01*
Y801768D01*
X445452Y802424D01*
X444796D01*
X444140Y801768D01*
Y800456D01*
X444796Y799800D01*
X446108D01*
X446764Y800456D01*
X326400Y757236D02*
Y753956D01*
X325744Y753300D01*
X324432D01*
X323776Y753956D01*
Y757236D01*
X320496Y753300D02*
Y757236D01*
X322464Y755268D01*
X319840D01*
X470800Y890836D02*
Y887556D01*
X470144Y886900D01*
X468832D01*
X468176Y887556D01*
Y890836D01*
X464240Y886900D02*
X466864D01*
X464240Y889524D01*
Y890180D01*
X464896Y890836D01*
X466208D01*
X466864Y890180D01*
X420064Y740000D02*
X424000D01*
Y737376D01*
Y733440D02*
Y736064D01*
X421376Y733440D01*
X420720D01*
X420064Y734096D01*
Y735408D01*
X420720Y736064D01*
X420064Y751000D02*
X424000D01*
Y748376D01*
Y747064D02*
Y745752D01*
Y746408D01*
X420064D01*
X420720Y747064D01*
X572717Y1033283D02*
X575500Y1030500D01*
X574109Y1029109D01*
X573181D01*
X571325Y1030964D01*
Y1031892D01*
X572717Y1033283D01*
Y1027717D02*
X571789Y1026789D01*
X572253Y1027253D01*
X569470Y1030036D01*
X570398D01*
X568079Y1027717D02*
X567151D01*
X566223Y1026789D01*
X566223Y1025862D01*
X566687Y1025398D01*
X567615D01*
X568079Y1025862D01*
X567615Y1025398D01*
X567615Y1024470D01*
X568079Y1024006D01*
X569006Y1024006D01*
X569934Y1024934D01*
Y1025862D01*
X569217Y585717D02*
X572000Y588500D01*
X573391Y587109D01*
Y586181D01*
X571536Y584326D01*
X570609D01*
X569217Y585717D01*
X574783D02*
X575711Y584789D01*
X575247Y585253D01*
X572464Y582470D01*
Y583398D01*
X577102D02*
X578030Y582470D01*
X577566Y582934D01*
X574783Y580151D01*
Y581079D01*
X183283Y582717D02*
X180500Y585500D01*
X181892Y586892D01*
X182819D01*
X184675Y585036D01*
Y584108D01*
X183283Y582717D01*
X183747Y587819D02*
Y588747D01*
X184675Y589675D01*
X185602D01*
X187458Y587819D01*
X187458Y586892D01*
X186530Y585964D01*
X185602D01*
X185138Y586428D01*
X185138Y587355D01*
X186530Y588747D01*
X184783Y1028283D02*
X182000Y1025500D01*
X180608Y1026892D01*
Y1027819D01*
X182464Y1029675D01*
X183391D01*
X184783Y1028283D01*
X182000Y1031066D02*
X180145Y1032921D01*
X179681Y1032458D01*
Y1028747D01*
X179217Y1028283D01*
X444564Y759500D02*
X448500D01*
Y757532D01*
X447844Y756876D01*
X445220D01*
X444564Y757532D01*
Y759500D01*
X448500Y755564D02*
Y754252D01*
Y754908D01*
X444564D01*
X445220Y755564D01*
X319124Y712220D02*
X318468Y711564D01*
X317156D01*
X316500Y712220D01*
Y714844D01*
X317156Y715500D01*
X318468D01*
X319124Y714844D01*
X320436Y715500D02*
X321748D01*
X321092D01*
Y711564D01*
X320436Y712220D01*
X326339Y715500D02*
X323715D01*
X326339Y712876D01*
Y712220D01*
X325683Y711564D01*
X324372D01*
X323715Y712220D01*
X300776Y766680D02*
X301432Y767336D01*
X302744D01*
X303400Y766680D01*
Y764056D01*
X302744Y763400D01*
X301432D01*
X300776Y764056D01*
X299464Y763400D02*
X298152D01*
X298808D01*
Y767336D01*
X299464Y766680D01*
X296184Y763400D02*
X294873D01*
X295529D01*
Y767336D01*
X296184Y766680D01*
X307124Y712220D02*
X306468Y711564D01*
X305156D01*
X304500Y712220D01*
Y714844D01*
X305156Y715500D01*
X306468D01*
X307124Y714844D01*
X308436Y715500D02*
X309748D01*
X309092D01*
Y711564D01*
X308436Y712220D01*
X311716D02*
X312371Y711564D01*
X313683D01*
X314339Y712220D01*
Y714844D01*
X313683Y715500D01*
X312371D01*
X311716Y714844D01*
Y712220D01*
X297624D02*
X296968Y711564D01*
X295656D01*
X295000Y712220D01*
Y714844D01*
X295656Y715500D01*
X296968D01*
X297624Y714844D01*
X298936D02*
X299592Y715500D01*
X300904D01*
X301560Y714844D01*
Y712220D01*
X300904Y711564D01*
X299592D01*
X298936Y712220D01*
Y712876D01*
X299592Y713532D01*
X301560D01*
X421720Y760876D02*
X421064Y761532D01*
Y762844D01*
X421720Y763500D01*
X424344D01*
X425000Y762844D01*
Y761532D01*
X424344Y760876D01*
X421720Y759564D02*
X421064Y758908D01*
Y757596D01*
X421720Y756940D01*
X422376D01*
X423032Y757596D01*
X423688Y756940D01*
X424344D01*
X425000Y757596D01*
Y758908D01*
X424344Y759564D01*
X423688D01*
X423032Y758908D01*
X422376Y759564D01*
X421720D01*
X423032Y758908D02*
Y757596D01*
X453780Y898624D02*
X454436Y897968D01*
Y896656D01*
X453780Y896000D01*
X451156D01*
X450500Y896656D01*
Y897968D01*
X451156Y898624D01*
X454436Y899936D02*
Y902560D01*
X453780D01*
X451156Y899936D01*
X450500D01*
X479276Y912180D02*
X479932Y912836D01*
X481244D01*
X481900Y912180D01*
Y909556D01*
X481244Y908900D01*
X479932D01*
X479276Y909556D01*
X477964Y912180D02*
X477308Y912836D01*
X475996D01*
X475340Y912180D01*
Y911524D01*
X475996Y910868D01*
X476652D01*
X475996D01*
X475340Y910212D01*
Y909556D01*
X475996Y908900D01*
X477308D01*
X477964Y909556D01*
X453780Y887624D02*
X454436Y886968D01*
Y885656D01*
X453780Y885000D01*
X451156D01*
X450500Y885656D01*
Y886968D01*
X451156Y887624D01*
X450500Y891560D02*
Y888936D01*
X453124Y891560D01*
X453780D01*
X454436Y890904D01*
Y889592D01*
X453780Y888936D01*
Y877124D02*
X454436Y876468D01*
Y875156D01*
X453780Y874500D01*
X451156D01*
X450500Y875156D01*
Y876468D01*
X451156Y877124D01*
X450500Y878436D02*
Y879748D01*
Y879092D01*
X454436D01*
X453780Y878436D01*
D49*
X448692Y795792D02*
G03*
X448692Y795792I-492J0D01*
G01*
D51*
X318553Y749870D02*
G03*
X320423Y749870I935J0D01*
G01*
X471370Y876947D02*
G03*
X471370Y875077I0J-935D01*
G01*
X152929Y1021464D02*
X156464Y1017929D01*
X599536Y1017429D02*
X603071Y1020964D01*
X152929Y593536D02*
X156464Y597071D01*
X588786Y586321D02*
X592321Y582786D01*
X427717Y769311D02*
Y795689D01*
Y769311D02*
X442283D01*
Y795689D01*
X427717D02*
X442283D01*
X293500Y760000D02*
X302500D01*
X304000Y741500D02*
Y755488D01*
X292000Y741500D02*
Y755500D01*
X320423Y749870D02*
X322000D01*
X317000D02*
X318553D01*
X317000Y738650D02*
Y749870D01*
Y738650D02*
X322000D01*
Y749870D01*
X482500Y895000D02*
Y904000D01*
X464000Y893500D02*
X477988D01*
X464000Y905500D02*
X478000D01*
X471370Y873500D02*
Y875077D01*
Y876947D02*
Y878500D01*
X460150D02*
X471370D01*
X460150Y873500D02*
Y878500D01*
Y873500D02*
X471370D01*
D90*
X425500Y740500D02*
X431500D01*
X425500Y732500D02*
Y740500D01*
Y732500D02*
X431500D01*
X434500D02*
X440500D01*
Y740500D01*
X434500D02*
X440500D01*
X425500Y752500D02*
X431500D01*
X425500Y744500D02*
Y752500D01*
Y744500D02*
X431500D01*
X434500D02*
X440500D01*
Y752500D01*
X434500D02*
X440500D01*
D91*
X447000Y744358D02*
X450937Y740421D01*
X443063D02*
X447000Y744358D01*
X443063D02*
X450937D01*
X443063Y740421D02*
X450937D01*
M02*
