%FSLAX25Y25*%
%MOIN*%
G70*
G01*
G75*
G04:AMPARAMS|DCode=10|XSize=78.74mil|YSize=47.24mil|CornerRadius=0mil|HoleSize=0mil|Usage=FLASHONLY|Rotation=45.000|XOffset=0mil|YOffset=0mil|HoleType=Round|Shape=Rectangle|*
%AMROTATEDRECTD10*
4,1,4,-0.01114,-0.04454,-0.04454,-0.01114,0.01114,0.04454,0.04454,0.01114,-0.01114,-0.04454,0.0*
%
%ADD10ROTATEDRECTD10*%

G04:AMPARAMS|DCode=11|XSize=78.74mil|YSize=47.24mil|CornerRadius=0mil|HoleSize=0mil|Usage=FLASHONLY|Rotation=315.000|XOffset=0mil|YOffset=0mil|HoleType=Round|Shape=Rectangle|*
%AMROTATEDRECTD11*
4,1,4,-0.04454,0.01114,-0.01114,0.04454,0.04454,-0.01114,0.01114,-0.04454,-0.04454,0.01114,0.0*
%
%ADD11ROTATEDRECTD11*%

%ADD12O,0.08268X0.01181*%
%ADD13O,0.01181X0.08268*%
G04:AMPARAMS|DCode=14|XSize=59.06mil|YSize=51.18mil|CornerRadius=0mil|HoleSize=0mil|Usage=FLASHONLY|Rotation=225.000|XOffset=0mil|YOffset=0mil|HoleType=Round|Shape=Rectangle|*
%AMROTATEDRECTD14*
4,1,4,0.00278,0.03897,0.03897,0.00278,-0.00278,-0.03897,-0.03897,-0.00278,0.00278,0.03897,0.0*
%
%ADD14ROTATEDRECTD14*%

G04:AMPARAMS|DCode=15|XSize=35.43mil|YSize=37.4mil|CornerRadius=0mil|HoleSize=0mil|Usage=FLASHONLY|Rotation=45.000|XOffset=0mil|YOffset=0mil|HoleType=Round|Shape=Rectangle|*
%AMROTATEDRECTD15*
4,1,4,0.00070,-0.02575,-0.02575,0.00070,-0.00070,0.02575,0.02575,-0.00070,0.00070,-0.02575,0.0*
%
%ADD15ROTATEDRECTD15*%

G04:AMPARAMS|DCode=16|XSize=35.43mil|YSize=37.4mil|CornerRadius=0mil|HoleSize=0mil|Usage=FLASHONLY|Rotation=45.000|XOffset=0mil|YOffset=0mil|HoleType=Round|Shape=Rectangle|*
%AMROTATEDRECTD16*
4,1,4,0.00070,-0.02575,-0.02575,0.00070,-0.00070,0.02575,0.02575,-0.00070,0.00070,-0.02575,0.0*
%
%ADD16ROTATEDRECTD16*%

G04:AMPARAMS|DCode=17|XSize=59.06mil|YSize=51.18mil|CornerRadius=0mil|HoleSize=0mil|Usage=FLASHONLY|Rotation=135.000|XOffset=0mil|YOffset=0mil|HoleType=Round|Shape=Rectangle|*
%AMROTATEDRECTD17*
4,1,4,0.03897,-0.00278,0.00278,-0.03897,-0.03897,0.00278,-0.00278,0.03897,0.03897,-0.00278,0.0*
%
%ADD17ROTATEDRECTD17*%

G04:AMPARAMS|DCode=18|XSize=53.15mil|YSize=15.75mil|CornerRadius=0mil|HoleSize=0mil|Usage=FLASHONLY|Rotation=0.000|XOffset=0mil|YOffset=0mil|HoleType=Round|Shape=Octagon|*
%AMOCTAGOND18*
4,1,8,0.02658,-0.00394,0.02658,0.00394,0.02264,0.00787,-0.02264,0.00787,-0.02658,0.00394,-0.02658,-0.00394,-0.02264,-0.00787,0.02264,-0.00787,0.02658,-0.00394,0.0*
%
%ADD18OCTAGOND18*%

%ADD19R,0.07480X0.09000*%
%ADD20R,0.07480X0.07087*%
G04:AMPARAMS|DCode=21|XSize=35.43mil|YSize=37.4mil|CornerRadius=0mil|HoleSize=0mil|Usage=FLASHONLY|Rotation=135.000|XOffset=0mil|YOffset=0mil|HoleType=Round|Shape=Rectangle|*
%AMROTATEDRECTD21*
4,1,4,0.02575,0.00070,-0.00070,-0.02575,-0.02575,-0.00070,0.00070,0.02575,0.02575,0.00070,0.0*
%
%ADD21ROTATEDRECTD21*%

G04:AMPARAMS|DCode=22|XSize=35.43mil|YSize=37.4mil|CornerRadius=0mil|HoleSize=0mil|Usage=FLASHONLY|Rotation=135.000|XOffset=0mil|YOffset=0mil|HoleType=Round|Shape=Rectangle|*
%AMROTATEDRECTD22*
4,1,4,0.02575,0.00070,-0.00070,-0.02575,-0.02575,-0.00070,0.00070,0.02575,0.02575,0.00070,0.0*
%
%ADD22ROTATEDRECTD22*%

%ADD23R,0.07480X0.02756*%
%ADD24O,0.02362X0.00984*%
%ADD25O,0.00984X0.02362*%
%ADD26R,0.11024X0.10630*%
%ADD27R,0.05906X0.05118*%
%ADD28R,0.05906X0.03937*%
%ADD29R,0.04724X0.01654*%
%ADD30R,0.05118X0.05906*%
%ADD31R,0.03543X0.03740*%
%ADD32R,0.03543X0.03740*%
%ADD33C,0.01000*%
%ADD34C,0.05906*%
%ADD35R,0.05906X0.05906*%
%ADD36R,0.05906X0.05906*%
%ADD37C,0.31496*%
%ADD38C,0.01969*%
%ADD39R,0.06102X0.04331*%
%ADD40R,0.06102X0.04331*%
%ADD41R,0.06102X0.13583*%
%ADD42R,0.07874X0.05906*%
%ADD43R,0.09843X0.07087*%
%ADD44R,0.03937X0.01575*%
%ADD45R,0.03937X0.01575*%
%ADD46R,0.07087X0.09843*%
%ADD47R,0.01575X0.03937*%
%ADD48R,0.01575X0.03937*%
D10*
X188253Y985140D02*
D03*
X199213Y996101D02*
D03*
X566747Y628860D02*
D03*
X555787Y617899D02*
D03*
D11*
X555640Y996247D02*
D03*
X566601Y985287D02*
D03*
X199360Y617753D02*
D03*
X188399Y628713D02*
D03*
D12*
X357858Y800827D02*
D03*
Y798858D02*
D03*
Y796890D02*
D03*
Y794921D02*
D03*
Y792953D02*
D03*
Y790984D02*
D03*
Y789016D02*
D03*
Y787047D02*
D03*
Y785079D02*
D03*
Y783110D02*
D03*
Y781142D02*
D03*
Y779173D02*
D03*
X390142D02*
D03*
Y781142D02*
D03*
Y783110D02*
D03*
Y785079D02*
D03*
Y787047D02*
D03*
Y789016D02*
D03*
Y790984D02*
D03*
Y792953D02*
D03*
Y794921D02*
D03*
Y796890D02*
D03*
Y798858D02*
D03*
Y800827D02*
D03*
D13*
X363173Y773858D02*
D03*
X365142D02*
D03*
X367110D02*
D03*
X369079D02*
D03*
X371047D02*
D03*
X373016D02*
D03*
X374984D02*
D03*
X376953D02*
D03*
X378921D02*
D03*
X380890D02*
D03*
X382858D02*
D03*
X384827D02*
D03*
Y806142D02*
D03*
X382858D02*
D03*
X380890D02*
D03*
X378921D02*
D03*
X376953D02*
D03*
X374984D02*
D03*
X373016D02*
D03*
X371047D02*
D03*
X369079D02*
D03*
X367110D02*
D03*
X365142D02*
D03*
X363173D02*
D03*
D14*
X189855Y970645D02*
D03*
X195145Y965355D02*
D03*
X214355Y993645D02*
D03*
X219645Y988355D02*
D03*
X217645Y660355D02*
D03*
X212355Y665645D02*
D03*
X233355Y646145D02*
D03*
X238645Y640855D02*
D03*
X230855Y665145D02*
D03*
X236145Y659855D02*
D03*
X524645Y949855D02*
D03*
X519355Y955145D02*
D03*
X523145Y967855D02*
D03*
X517855Y973145D02*
D03*
X544645Y947855D02*
D03*
X539355Y953145D02*
D03*
X541145Y619355D02*
D03*
X535855Y624645D02*
D03*
X560855Y648645D02*
D03*
X566145Y643355D02*
D03*
D15*
X216126Y963584D02*
D03*
X212229Y972771D02*
D03*
X538874Y650416D02*
D03*
X542771Y641229D02*
D03*
D16*
X221416Y968874D02*
D03*
X533584Y645126D02*
D03*
D17*
X218145Y953645D02*
D03*
X212855Y948355D02*
D03*
X231355Y966855D02*
D03*
X236645Y972145D02*
D03*
X195145Y648145D02*
D03*
X189855Y642855D02*
D03*
X219145Y625145D02*
D03*
X213855Y619855D02*
D03*
X237145Y954145D02*
D03*
X231855Y948855D02*
D03*
X565645Y971645D02*
D03*
X560355Y966355D02*
D03*
X535855Y988855D02*
D03*
X541145Y994145D02*
D03*
X517855Y640355D02*
D03*
X523145Y645645D02*
D03*
X539355Y661855D02*
D03*
X544645Y667145D02*
D03*
X519355Y659355D02*
D03*
X524645Y664645D02*
D03*
D18*
X301500Y825618D02*
D03*
Y823059D02*
D03*
Y820500D02*
D03*
Y817941D02*
D03*
Y815382D02*
D03*
D19*
X291500Y807000D02*
D03*
Y834000D02*
D03*
D20*
Y820500D02*
D03*
D21*
X220916Y645626D02*
D03*
X211729Y641729D02*
D03*
X534084Y968374D02*
D03*
X543271Y972271D02*
D03*
D22*
X215626Y650916D02*
D03*
X539374Y963084D02*
D03*
D23*
X289000Y742000D02*
D03*
Y732000D02*
D03*
Y722000D02*
D03*
X313500Y742000D02*
D03*
Y732000D02*
D03*
Y722000D02*
D03*
D24*
X366429Y846921D02*
D03*
Y844953D02*
D03*
Y842984D02*
D03*
Y841016D02*
D03*
Y839047D02*
D03*
Y837079D02*
D03*
X382571D02*
D03*
Y839047D02*
D03*
Y841016D02*
D03*
Y842984D02*
D03*
Y844953D02*
D03*
Y846921D02*
D03*
D25*
X369579Y833929D02*
D03*
X371547D02*
D03*
X373516D02*
D03*
X375484D02*
D03*
X377453D02*
D03*
X379421D02*
D03*
Y850071D02*
D03*
X377453D02*
D03*
X375484D02*
D03*
X373516D02*
D03*
X371547D02*
D03*
X369579D02*
D03*
D26*
X374500Y842000D02*
D03*
D27*
X315500Y853240D02*
D03*
Y845760D02*
D03*
X325500Y853240D02*
D03*
Y845760D02*
D03*
X347000Y853740D02*
D03*
Y846260D02*
D03*
X337500D02*
D03*
Y853740D02*
D03*
X382000Y728740D02*
D03*
Y721260D02*
D03*
X347000Y721760D02*
D03*
Y729240D02*
D03*
X326000Y781240D02*
D03*
Y773760D02*
D03*
X335500Y781240D02*
D03*
Y773760D02*
D03*
X417000Y812760D02*
D03*
Y820240D02*
D03*
X426500Y812760D02*
D03*
Y820240D02*
D03*
X417000Y792760D02*
D03*
Y800240D02*
D03*
X427000Y792760D02*
D03*
Y800240D02*
D03*
X326000Y801240D02*
D03*
Y793760D02*
D03*
X335500Y801240D02*
D03*
Y793760D02*
D03*
X441000Y728740D02*
D03*
Y721260D02*
D03*
X451500Y728740D02*
D03*
Y721260D02*
D03*
X335500Y760740D02*
D03*
Y753260D02*
D03*
X427000Y779740D02*
D03*
Y772260D02*
D03*
X426500Y840240D02*
D03*
Y832760D02*
D03*
X335500Y821740D02*
D03*
Y814260D02*
D03*
X406000Y893240D02*
D03*
Y885760D02*
D03*
X416000Y893240D02*
D03*
Y885760D02*
D03*
X406500Y729240D02*
D03*
Y721760D02*
D03*
X417000Y729240D02*
D03*
Y721760D02*
D03*
X448000Y781740D02*
D03*
Y774260D02*
D03*
X456500D02*
D03*
Y781740D02*
D03*
X465000Y774260D02*
D03*
Y781740D02*
D03*
X448000Y801740D02*
D03*
Y794260D02*
D03*
X456500Y801740D02*
D03*
Y794260D02*
D03*
X465000Y801740D02*
D03*
Y794260D02*
D03*
X266000Y911240D02*
D03*
Y903760D02*
D03*
X275500Y911240D02*
D03*
Y903760D02*
D03*
X285000D02*
D03*
Y911240D02*
D03*
X417000Y832760D02*
D03*
Y840240D02*
D03*
D28*
X358870Y729374D02*
D03*
Y721500D02*
D03*
X369500Y729374D02*
D03*
Y721500D02*
D03*
D29*
X313000Y889000D02*
D03*
Y884000D02*
D03*
Y879000D02*
D03*
Y874000D02*
D03*
X336622Y889000D02*
D03*
Y884000D02*
D03*
Y879000D02*
D03*
Y874000D02*
D03*
D30*
X296260Y783500D02*
D03*
X303740D02*
D03*
X296260Y775000D02*
D03*
X303740D02*
D03*
X296260Y766500D02*
D03*
X303740D02*
D03*
X293260Y881500D02*
D03*
X300740D02*
D03*
X293260Y889500D02*
D03*
X300740D02*
D03*
D31*
X462760Y720874D02*
D03*
X466500Y730126D02*
D03*
D32*
X470240Y720874D02*
D03*
D34*
X450000Y857500D02*
D03*
Y847500D02*
D03*
Y837500D02*
D03*
Y827500D02*
D03*
X460000Y857500D02*
D03*
Y847500D02*
D03*
Y837500D02*
D03*
X360000Y754000D02*
D03*
X370000D02*
D03*
X380000D02*
D03*
X390000D02*
D03*
X400000D02*
D03*
X359000Y885500D02*
D03*
X369000D02*
D03*
Y895500D02*
D03*
X379000Y885500D02*
D03*
Y895500D02*
D03*
X389000Y885500D02*
D03*
Y895500D02*
D03*
X286500Y852500D02*
D03*
D35*
X460000Y827500D02*
D03*
X286500Y862500D02*
D03*
D36*
X350000Y754000D02*
D03*
X359000Y895500D02*
D03*
D37*
X174818Y1009182D02*
D03*
X579682Y1009682D02*
D03*
X175318Y604318D02*
D03*
X580182Y604818D02*
D03*
M02*
