%FSLAX25Y25*%
%MOIN*%
G70*
G01*
G75*
%ADD10C,0.00591*%
%ADD11C,0.00500*%
%ADD12C,0.00667*%
D10*
X300567Y812626D02*
G03*
X300567Y812626I-1102J0D01*
G01*
Y828374D02*
G03*
X300567Y828374I-1102J0D01*
G01*
D11*
X448228Y857500D02*
X451772D01*
X450000Y855728D02*
Y859272D01*
X448228Y847500D02*
X451772D01*
X450000Y845728D02*
Y849272D01*
X448228Y837500D02*
X451772D01*
X450000Y835728D02*
Y839272D01*
X448228Y827500D02*
X451772D01*
X450000Y825728D02*
Y829272D01*
X458228Y857500D02*
X461772D01*
X460000Y855728D02*
Y859272D01*
X458228Y847500D02*
X461772D01*
X460000Y845728D02*
Y849272D01*
X458228Y837500D02*
X461772D01*
X460000Y835728D02*
Y839272D01*
X458228Y827500D02*
X461772D01*
X460000Y825728D02*
Y829272D01*
X348228Y754000D02*
X351772D01*
X350000Y752228D02*
Y755772D01*
X358228Y754000D02*
X361772D01*
X360000Y752228D02*
Y755772D01*
X368228Y754000D02*
X371772D01*
X370000Y752228D02*
Y755772D01*
X378228Y754000D02*
X381772D01*
X380000Y752228D02*
Y755772D01*
X388228Y754000D02*
X391772D01*
X390000Y752228D02*
Y755772D01*
X398228Y754000D02*
X401772D01*
X400000Y752228D02*
Y755772D01*
X160842Y1009182D02*
X188794D01*
X174818Y995206D02*
Y1023158D01*
X565706Y1009682D02*
X593658D01*
X579682Y995706D02*
Y1023658D01*
X161342Y604318D02*
X189294D01*
X175318Y590342D02*
Y618294D01*
X566206Y604818D02*
X594158D01*
X580182Y590842D02*
Y618794D01*
X357228Y895500D02*
X360772D01*
X359000Y893728D02*
Y897272D01*
X357228Y885500D02*
X360772D01*
X359000Y883728D02*
Y887272D01*
X367228Y885500D02*
X370772D01*
X369000Y883728D02*
Y887272D01*
X367228Y895500D02*
X370772D01*
X369000Y893728D02*
Y897272D01*
X377228Y885500D02*
X380772D01*
X379000Y883728D02*
Y887272D01*
X377228Y895500D02*
X380772D01*
X379000Y893728D02*
Y897272D01*
X387228Y885500D02*
X390772D01*
X389000Y883728D02*
Y887272D01*
X387228Y895500D02*
X390772D01*
X389000Y893728D02*
Y897272D01*
X284728Y862500D02*
X288272D01*
X286500Y860728D02*
Y864272D01*
X284728Y852500D02*
X288272D01*
X286500Y850728D02*
Y854272D01*
X371547Y844362D02*
X372728D01*
X372138Y843772D02*
Y844953D01*
X376272Y844362D02*
X377453D01*
X376862Y843772D02*
Y844953D01*
X371547Y839638D02*
X372728D01*
X372138Y839047D02*
Y840228D01*
X376272Y839638D02*
X377453D01*
X376862Y839047D02*
Y840228D01*
X398110Y779400D02*
X399290D01*
X398700Y778809D02*
Y779990D01*
X401909Y792890D02*
X403090D01*
X402500Y792299D02*
Y793480D01*
X422909Y756760D02*
X424090D01*
X423500Y756169D02*
Y757350D01*
X448009Y807600D02*
X449191D01*
X448600Y807010D02*
Y808191D01*
X368488Y784100D02*
X369669D01*
X369079Y783509D02*
Y784691D01*
X170309Y585300D02*
X171491D01*
X170900Y584710D02*
Y585890D01*
X337109Y744200D02*
X338291D01*
X337700Y743610D02*
Y744791D01*
X242109Y959600D02*
X243290D01*
X242700Y959009D02*
Y960191D01*
X328710Y727000D02*
X329890D01*
X329300Y726409D02*
Y727591D01*
X283310Y717900D02*
X284490D01*
X283900Y717310D02*
Y718491D01*
X337310Y859600D02*
X338491D01*
X337900Y859009D02*
Y860191D01*
X309010Y766300D02*
X310191D01*
X309600Y765709D02*
Y766890D01*
X359910Y831800D02*
X361090D01*
X360500Y831209D02*
Y832391D01*
X371309Y798800D02*
X372491D01*
X371900Y798209D02*
Y799391D01*
X384509Y861940D02*
X385690D01*
X385100Y861350D02*
Y862531D01*
X372410Y788900D02*
X373590D01*
X373000Y788309D02*
Y789491D01*
X401469Y820000D02*
X402650D01*
X402060Y819409D02*
Y820591D01*
X265409Y898200D02*
X266590D01*
X266000Y897609D02*
Y898791D01*
X327810Y876600D02*
X328991D01*
X328400Y876009D02*
Y877191D01*
X274909Y898000D02*
X276091D01*
X275500Y897409D02*
Y898591D01*
X364409Y819300D02*
X365591D01*
X365000Y818709D02*
Y819891D01*
X365009Y831400D02*
X366191D01*
X365600Y830809D02*
Y831991D01*
X435709Y835800D02*
X436891D01*
X436300Y835209D02*
Y836391D01*
X368988Y866700D02*
X370169D01*
X369579Y866109D02*
Y867291D01*
X378331Y783825D02*
X379512D01*
X378921Y783235D02*
Y784416D01*
X442809Y741800D02*
X443991D01*
X443400Y741210D02*
Y742390D01*
X450910Y741800D02*
X452091D01*
X451500Y741210D02*
Y742390D01*
X255996Y678100D02*
X257177D01*
X256587Y677509D02*
Y678690D01*
X206610Y628713D02*
X207790D01*
X207200Y628123D02*
Y629304D01*
X204009Y1003492D02*
X205190D01*
X204600Y1002901D02*
Y1004083D01*
X341009Y865500D02*
X342191D01*
X341600Y864909D02*
Y866091D01*
X469009Y912200D02*
X470190D01*
X469600Y911609D02*
Y912791D01*
X554410Y963800D02*
X555590D01*
X555000Y963209D02*
Y964391D01*
X344009Y781300D02*
X345191D01*
X344600Y780710D02*
Y781890D01*
X319110Y775900D02*
X320290D01*
X319700Y775310D02*
Y776490D01*
X421410Y867800D02*
X422590D01*
X422000Y867209D02*
Y868391D01*
X555196Y628626D02*
X556377D01*
X555787Y628035D02*
Y629216D01*
X329010Y719700D02*
X330190D01*
X329600Y719109D02*
Y720291D01*
X318409Y781800D02*
X319590D01*
X319000Y781210D02*
Y782390D01*
X285287Y869678D02*
X286468D01*
X285878Y869087D02*
Y870268D01*
X202396Y991300D02*
X203577D01*
X202986Y990709D02*
Y991891D01*
X202509Y963600D02*
X203691D01*
X203100Y963009D02*
Y964191D01*
X405409Y744100D02*
X406591D01*
X406000Y743509D02*
Y744691D01*
X415410Y848700D02*
X416590D01*
X416000Y848109D02*
Y849291D01*
X377110Y798900D02*
X378291D01*
X377700Y798310D02*
Y799490D01*
X427709Y785600D02*
X428891D01*
X428300Y785009D02*
Y786191D01*
X370709Y764210D02*
X371890D01*
X371300Y763620D02*
Y764801D01*
X376862Y859453D02*
X378043D01*
X377453Y858862D02*
Y860043D01*
X353809Y841900D02*
X354991D01*
X354400Y841309D02*
Y842491D01*
X527973Y944300D02*
X529153D01*
X528563Y943709D02*
Y944891D01*
X238054Y943355D02*
X239235D01*
X238645Y942765D02*
Y943946D01*
X267322Y701025D02*
X268503D01*
X267913Y700434D02*
Y701615D01*
X524909Y675200D02*
X526090D01*
X525500Y674610D02*
Y675791D01*
X577210Y634100D02*
X578391D01*
X577800Y633509D02*
Y634691D01*
X575510Y585100D02*
X576690D01*
X576100Y584510D02*
Y585690D01*
X230265Y677153D02*
X231446D01*
X230855Y676562D02*
Y677743D01*
X471584Y710500D02*
X472765D01*
X472175Y709909D02*
Y711091D01*
X226013Y933304D02*
X227194D01*
X226604Y932714D02*
Y933895D01*
X223110Y664700D02*
X224290D01*
X223700Y664110D02*
Y665290D01*
X560656Y611400D02*
X561837D01*
X561246Y610810D02*
Y611990D01*
X575109Y1028700D02*
X576291D01*
X575700Y1028109D02*
Y1029291D01*
X362409Y766400D02*
X363591D01*
X363000Y765809D02*
Y766991D01*
X342309Y771300D02*
X343491D01*
X342900Y770710D02*
Y771890D01*
X341309Y804600D02*
X342491D01*
X341900Y804010D02*
Y805190D01*
X364510Y716800D02*
X365690D01*
X365100Y716210D02*
Y717390D01*
X345210Y793600D02*
X346391D01*
X345800Y793010D02*
Y794191D01*
X347110Y716400D02*
X348290D01*
X347700Y715809D02*
Y716991D01*
X303309Y857200D02*
X304490D01*
X303900Y856609D02*
Y857791D01*
X303309Y807000D02*
X304490D01*
X303900Y806409D02*
Y807590D01*
X280809Y700810D02*
X281991D01*
X281400Y700220D02*
Y701401D01*
X271110Y710510D02*
X272290D01*
X271700Y709920D02*
Y711101D01*
X485009Y704200D02*
X486191D01*
X485600Y703610D02*
Y704790D01*
X510310Y680900D02*
X511490D01*
X510900Y680309D02*
Y681491D01*
X340109Y726700D02*
X341290D01*
X340700Y726110D02*
Y727290D01*
X414509Y783600D02*
X415691D01*
X415100Y783009D02*
Y784191D01*
X376509Y765400D02*
X377691D01*
X377100Y764810D02*
Y765990D01*
X432409Y789500D02*
X433591D01*
X433000Y788909D02*
Y790091D01*
X408910Y803000D02*
X410090D01*
X409500Y802409D02*
Y803590D01*
X527910Y931000D02*
X529090D01*
X528500Y930409D02*
Y931591D01*
X456910Y718000D02*
X458090D01*
X457500Y717410D02*
Y718590D01*
X467451Y713500D02*
X468632D01*
X468041Y712910D02*
Y714090D01*
M02*
