%FSLAX25Y25*%
%MOIN*%
G70*
G01*
G75*
G04 Layer_Physical_Order=1*
G04 Layer_Color=255*
G04:AMPARAMS|DCode=10|XSize=78.74mil|YSize=47.24mil|CornerRadius=0mil|HoleSize=0mil|Usage=FLASHONLY|Rotation=45.000|XOffset=0mil|YOffset=0mil|HoleType=Round|Shape=Rectangle|*
%AMROTATEDRECTD10*
4,1,4,-0.01114,-0.04454,-0.04454,-0.01114,0.01114,0.04454,0.04454,0.01114,-0.01114,-0.04454,0.0*
%
%ADD10ROTATEDRECTD10*%

G04:AMPARAMS|DCode=11|XSize=78.74mil|YSize=47.24mil|CornerRadius=0mil|HoleSize=0mil|Usage=FLASHONLY|Rotation=315.000|XOffset=0mil|YOffset=0mil|HoleType=Round|Shape=Rectangle|*
%AMROTATEDRECTD11*
4,1,4,-0.04454,0.01114,-0.01114,0.04454,0.04454,-0.01114,0.01114,-0.04454,-0.04454,0.01114,0.0*
%
%ADD11ROTATEDRECTD11*%

%ADD12O,0.08268X0.01181*%
%ADD13O,0.01181X0.08268*%
G04:AMPARAMS|DCode=14|XSize=59.06mil|YSize=51.18mil|CornerRadius=0mil|HoleSize=0mil|Usage=FLASHONLY|Rotation=225.000|XOffset=0mil|YOffset=0mil|HoleType=Round|Shape=Rectangle|*
%AMROTATEDRECTD14*
4,1,4,0.00278,0.03897,0.03897,0.00278,-0.00278,-0.03897,-0.03897,-0.00278,0.00278,0.03897,0.0*
%
%ADD14ROTATEDRECTD14*%

G04:AMPARAMS|DCode=15|XSize=35.43mil|YSize=37.4mil|CornerRadius=0mil|HoleSize=0mil|Usage=FLASHONLY|Rotation=45.000|XOffset=0mil|YOffset=0mil|HoleType=Round|Shape=Rectangle|*
%AMROTATEDRECTD15*
4,1,4,0.00070,-0.02575,-0.02575,0.00070,-0.00070,0.02575,0.02575,-0.00070,0.00070,-0.02575,0.0*
%
%ADD15ROTATEDRECTD15*%

G04:AMPARAMS|DCode=16|XSize=35.43mil|YSize=37.4mil|CornerRadius=0mil|HoleSize=0mil|Usage=FLASHONLY|Rotation=45.000|XOffset=0mil|YOffset=0mil|HoleType=Round|Shape=Rectangle|*
%AMROTATEDRECTD16*
4,1,4,0.00070,-0.02575,-0.02575,0.00070,-0.00070,0.02575,0.02575,-0.00070,0.00070,-0.02575,0.0*
%
%ADD16ROTATEDRECTD16*%

G04:AMPARAMS|DCode=17|XSize=59.06mil|YSize=51.18mil|CornerRadius=0mil|HoleSize=0mil|Usage=FLASHONLY|Rotation=135.000|XOffset=0mil|YOffset=0mil|HoleType=Round|Shape=Rectangle|*
%AMROTATEDRECTD17*
4,1,4,0.03897,-0.00278,0.00278,-0.03897,-0.03897,0.00278,-0.00278,0.03897,0.03897,-0.00278,0.0*
%
%ADD17ROTATEDRECTD17*%

G04:AMPARAMS|DCode=18|XSize=53.15mil|YSize=15.75mil|CornerRadius=0mil|HoleSize=0mil|Usage=FLASHONLY|Rotation=0.000|XOffset=0mil|YOffset=0mil|HoleType=Round|Shape=Octagon|*
%AMOCTAGOND18*
4,1,8,0.02658,-0.00394,0.02658,0.00394,0.02264,0.00787,-0.02264,0.00787,-0.02658,0.00394,-0.02658,-0.00394,-0.02264,-0.00787,0.02264,-0.00787,0.02658,-0.00394,0.0*
%
%ADD18OCTAGOND18*%

%ADD19R,0.07480X0.09000*%
%ADD20R,0.07480X0.07087*%
G04:AMPARAMS|DCode=21|XSize=35.43mil|YSize=37.4mil|CornerRadius=0mil|HoleSize=0mil|Usage=FLASHONLY|Rotation=135.000|XOffset=0mil|YOffset=0mil|HoleType=Round|Shape=Rectangle|*
%AMROTATEDRECTD21*
4,1,4,0.02575,0.00070,-0.00070,-0.02575,-0.02575,-0.00070,0.00070,0.02575,0.02575,0.00070,0.0*
%
%ADD21ROTATEDRECTD21*%

G04:AMPARAMS|DCode=22|XSize=35.43mil|YSize=37.4mil|CornerRadius=0mil|HoleSize=0mil|Usage=FLASHONLY|Rotation=135.000|XOffset=0mil|YOffset=0mil|HoleType=Round|Shape=Rectangle|*
%AMROTATEDRECTD22*
4,1,4,0.02575,0.00070,-0.00070,-0.02575,-0.02575,-0.00070,0.00070,0.02575,0.02575,0.00070,0.0*
%
%ADD22ROTATEDRECTD22*%

%ADD23R,0.07480X0.02756*%
%ADD24O,0.02362X0.00984*%
%ADD25O,0.00984X0.02362*%
%ADD26R,0.11024X0.10630*%
%ADD27R,0.05906X0.05118*%
%ADD28R,0.05906X0.03937*%
%ADD29R,0.04724X0.01654*%
%ADD30R,0.05118X0.05906*%
%ADD31R,0.03543X0.03740*%
%ADD32R,0.03543X0.03740*%
%ADD33C,0.01000*%
%ADD34C,0.05906*%
%ADD35R,0.05906X0.05906*%
%ADD36R,0.05906X0.05906*%
%ADD37C,0.31496*%
%ADD38C,0.01969*%
D10*
X188253Y985140D02*
D03*
X199213Y996101D02*
D03*
X566747Y628860D02*
D03*
X555787Y617899D02*
D03*
D11*
X555640Y996247D02*
D03*
X566601Y985287D02*
D03*
X199360Y617753D02*
D03*
X188399Y628713D02*
D03*
D12*
X357858Y800827D02*
D03*
Y798858D02*
D03*
Y796890D02*
D03*
Y794921D02*
D03*
Y792953D02*
D03*
Y790984D02*
D03*
Y789016D02*
D03*
Y787047D02*
D03*
Y785079D02*
D03*
Y783110D02*
D03*
Y781142D02*
D03*
Y779173D02*
D03*
X390142D02*
D03*
Y781142D02*
D03*
Y783110D02*
D03*
Y785079D02*
D03*
Y787047D02*
D03*
Y789016D02*
D03*
Y790984D02*
D03*
Y792953D02*
D03*
Y794921D02*
D03*
Y796890D02*
D03*
Y798858D02*
D03*
Y800827D02*
D03*
D13*
X363173Y773858D02*
D03*
X365142D02*
D03*
X367110D02*
D03*
X369079D02*
D03*
X371047D02*
D03*
X373016D02*
D03*
X374984D02*
D03*
X376953D02*
D03*
X378921D02*
D03*
X380890D02*
D03*
X382858D02*
D03*
X384827D02*
D03*
Y806142D02*
D03*
X382858D02*
D03*
X380890D02*
D03*
X378921D02*
D03*
X376953D02*
D03*
X374984D02*
D03*
X373016D02*
D03*
X371047D02*
D03*
X369079D02*
D03*
X367110D02*
D03*
X365142D02*
D03*
X363173D02*
D03*
D14*
X189855Y970645D02*
D03*
X195145Y965355D02*
D03*
X214355Y993645D02*
D03*
X219645Y988355D02*
D03*
X217645Y660355D02*
D03*
X212355Y665645D02*
D03*
X233355Y646145D02*
D03*
X238645Y640855D02*
D03*
X230855Y665145D02*
D03*
X236145Y659855D02*
D03*
X524645Y949855D02*
D03*
X519355Y955145D02*
D03*
X523145Y967855D02*
D03*
X517855Y973145D02*
D03*
X544645Y947855D02*
D03*
X539355Y953145D02*
D03*
X541145Y619355D02*
D03*
X535855Y624645D02*
D03*
X560855Y648645D02*
D03*
X566145Y643355D02*
D03*
D15*
X216126Y963584D02*
D03*
X212229Y972771D02*
D03*
X538874Y650416D02*
D03*
X542771Y641229D02*
D03*
D16*
X221416Y968874D02*
D03*
X533584Y645126D02*
D03*
D17*
X218145Y953645D02*
D03*
X212855Y948355D02*
D03*
X231355Y966855D02*
D03*
X236645Y972145D02*
D03*
X195145Y648145D02*
D03*
X189855Y642855D02*
D03*
X219145Y625145D02*
D03*
X213855Y619855D02*
D03*
X237145Y954145D02*
D03*
X231855Y948855D02*
D03*
X565645Y971645D02*
D03*
X560355Y966355D02*
D03*
X535855Y988855D02*
D03*
X541145Y994145D02*
D03*
X517855Y640355D02*
D03*
X523145Y645645D02*
D03*
X539355Y661855D02*
D03*
X544645Y667145D02*
D03*
X519355Y659355D02*
D03*
X524645Y664645D02*
D03*
D18*
X301500Y825618D02*
D03*
Y823059D02*
D03*
Y820500D02*
D03*
Y817941D02*
D03*
Y815382D02*
D03*
D19*
X291500Y807000D02*
D03*
Y834000D02*
D03*
D20*
Y820500D02*
D03*
D21*
X220916Y645626D02*
D03*
X211729Y641729D02*
D03*
X534084Y968374D02*
D03*
X543271Y972271D02*
D03*
D22*
X215626Y650916D02*
D03*
X539374Y963084D02*
D03*
D23*
X289000Y742000D02*
D03*
Y732000D02*
D03*
Y722000D02*
D03*
X313500Y742000D02*
D03*
Y732000D02*
D03*
Y722000D02*
D03*
D24*
X366429Y846921D02*
D03*
Y844953D02*
D03*
Y842984D02*
D03*
Y841016D02*
D03*
Y839047D02*
D03*
Y837079D02*
D03*
X382571D02*
D03*
Y839047D02*
D03*
Y841016D02*
D03*
Y842984D02*
D03*
Y844953D02*
D03*
Y846921D02*
D03*
D25*
X369579Y833929D02*
D03*
X371547D02*
D03*
X373516D02*
D03*
X375484D02*
D03*
X377453D02*
D03*
X379421D02*
D03*
Y850071D02*
D03*
X377453D02*
D03*
X375484D02*
D03*
X373516D02*
D03*
X371547D02*
D03*
X369579D02*
D03*
D26*
X374500Y842000D02*
D03*
D27*
X315500Y853240D02*
D03*
Y845760D02*
D03*
X325500Y853240D02*
D03*
Y845760D02*
D03*
X347000Y853740D02*
D03*
Y846260D02*
D03*
X337500D02*
D03*
Y853740D02*
D03*
X382000Y728740D02*
D03*
Y721260D02*
D03*
X347000Y721760D02*
D03*
Y729240D02*
D03*
X326000Y781240D02*
D03*
Y773760D02*
D03*
X335500Y781240D02*
D03*
Y773760D02*
D03*
X417000Y812760D02*
D03*
Y820240D02*
D03*
X426500Y812760D02*
D03*
Y820240D02*
D03*
X417000Y792760D02*
D03*
Y800240D02*
D03*
X427000Y792760D02*
D03*
Y800240D02*
D03*
X326000Y801240D02*
D03*
Y793760D02*
D03*
X335500Y801240D02*
D03*
Y793760D02*
D03*
X441000Y728740D02*
D03*
Y721260D02*
D03*
X451500Y728740D02*
D03*
Y721260D02*
D03*
X335500Y760740D02*
D03*
Y753260D02*
D03*
X427000Y779740D02*
D03*
Y772260D02*
D03*
X426500Y840240D02*
D03*
Y832760D02*
D03*
X335500Y821740D02*
D03*
Y814260D02*
D03*
X406000Y893240D02*
D03*
Y885760D02*
D03*
X416000Y893240D02*
D03*
Y885760D02*
D03*
X406500Y729240D02*
D03*
Y721760D02*
D03*
X417000Y729240D02*
D03*
Y721760D02*
D03*
X448000Y781740D02*
D03*
Y774260D02*
D03*
X456500D02*
D03*
Y781740D02*
D03*
X465000Y774260D02*
D03*
Y781740D02*
D03*
X448000Y801740D02*
D03*
Y794260D02*
D03*
X456500Y801740D02*
D03*
Y794260D02*
D03*
X465000Y801740D02*
D03*
Y794260D02*
D03*
X266000Y911240D02*
D03*
Y903760D02*
D03*
X275500Y911240D02*
D03*
Y903760D02*
D03*
X285000D02*
D03*
Y911240D02*
D03*
X417000Y832760D02*
D03*
Y840240D02*
D03*
D28*
X358870Y729374D02*
D03*
Y721500D02*
D03*
X369500Y729374D02*
D03*
Y721500D02*
D03*
D29*
X313000Y889000D02*
D03*
Y884000D02*
D03*
Y879000D02*
D03*
Y874000D02*
D03*
X336622Y889000D02*
D03*
Y884000D02*
D03*
Y879000D02*
D03*
Y874000D02*
D03*
D30*
X296260Y783500D02*
D03*
X303740D02*
D03*
X296260Y775000D02*
D03*
X303740D02*
D03*
X296260Y766500D02*
D03*
X303740D02*
D03*
X293260Y881500D02*
D03*
X300740D02*
D03*
X293260Y889500D02*
D03*
X300740D02*
D03*
D31*
X462760Y720874D02*
D03*
X466500Y730126D02*
D03*
D32*
X470240Y720874D02*
D03*
D33*
X406500Y721760D02*
X417000D01*
X327500Y853740D02*
X337500D01*
X315500Y853240D02*
X325500D01*
X373516Y833929D02*
X375484D01*
X406500Y729240D02*
X417000D01*
Y832760D02*
Y840240D01*
Y832760D02*
X426500D01*
Y820240D02*
Y832760D01*
X417000Y820240D02*
X426500D01*
X456500Y781740D02*
Y794260D01*
X465000Y781740D02*
Y794260D01*
X539355Y953145D02*
Y958100D01*
X539374Y958118D01*
Y963084D01*
X326000Y773760D02*
X335500D01*
X369500Y721500D02*
X375600D01*
X375840Y721260D01*
X382000D01*
X303740Y766500D02*
Y775000D01*
X326000Y793760D02*
X335500D01*
X300740Y881500D02*
Y889500D01*
X423940Y800240D02*
X427000D01*
X422700Y799000D02*
X423940Y800240D01*
X422700Y781000D02*
Y799000D01*
Y781000D02*
X423960Y779740D01*
X427000D01*
X369000Y885500D02*
X374500Y880000D01*
X404000D01*
X406000Y882000D01*
Y885760D01*
X382000Y726000D02*
Y728740D01*
X351400Y729240D02*
X354640Y726000D01*
X347000Y729240D02*
X351400D01*
X355700Y749700D02*
X360000Y754000D01*
X335500Y749700D02*
X355700D01*
X335500D02*
Y753260D01*
X315500Y853240D02*
Y868300D01*
X318000Y870800D01*
X313000Y879000D02*
X315000D01*
X465000Y801740D02*
Y832500D01*
X460000Y837500D02*
X465000Y832500D01*
X417000Y729240D02*
Y755100D01*
X427000Y765100D02*
Y772260D01*
X347000Y883500D02*
X359000Y895500D01*
X347000Y853740D02*
Y883500D01*
X550002Y985287D02*
X566601D01*
X541145Y994145D02*
X550002Y985287D01*
X209142Y628713D02*
X213855Y624000D01*
Y619855D02*
Y624000D01*
X347000Y853740D02*
X354700D01*
X361519Y846921D01*
X366429D01*
X293260Y889500D02*
Y895500D01*
X455000Y842500D02*
X460000Y837500D01*
X455000Y842500D02*
Y852500D01*
X450000Y857500D02*
X455000Y852500D01*
X357858Y800827D02*
X362000D01*
X363173Y802000D01*
Y806142D01*
X221416Y968874D02*
Y969342D01*
X384827Y759173D02*
Y773858D01*
Y759173D02*
X390000Y754000D01*
X380890Y759350D02*
Y773858D01*
X343260Y760740D02*
X350000Y754000D01*
X335500Y760740D02*
X343260D01*
X310100Y874000D02*
X313000D01*
X309100Y875000D02*
X310100Y874000D01*
X309100Y875000D02*
Y881600D01*
X319700D01*
X327100Y889000D01*
X336622Y884000D02*
X339300D01*
X212355Y650916D02*
Y665645D01*
Y650916D02*
X215626D01*
X552100Y617899D02*
X555787D01*
X188253Y985140D02*
X208386D01*
X456500Y771600D02*
Y774260D01*
X454000Y769100D02*
X456500Y771600D01*
X445000Y769100D02*
X454000D01*
X443700Y770400D02*
X445000Y769100D01*
X373016Y806142D02*
Y811000D01*
X427000Y792760D02*
X430060D01*
X407700Y776560D02*
X412000Y772260D01*
X407700Y776560D02*
Y795000D01*
X403842Y798858D02*
X407700Y795000D01*
X390142Y798858D02*
X403842D01*
X390142Y800827D02*
X405848D01*
X407462Y799213D01*
X411287D01*
X412315Y800240D01*
X417000D01*
X390142Y796890D02*
X398500D01*
X402500Y792890D01*
X423500Y772260D02*
X427000D01*
X347000Y729240D02*
Y741000D01*
X450000Y807600D02*
X455800Y801800D01*
X448600Y807600D02*
X450000D01*
X369079Y773858D02*
Y784100D01*
X337500Y853740D02*
X347000D01*
X212229Y948982D02*
Y972771D01*
X523145Y645645D02*
X532789Y636000D01*
X195145Y641845D02*
Y648145D01*
X441000Y717700D02*
Y721260D01*
X335500Y746400D02*
X337700Y744200D01*
X468041Y708259D02*
X470600Y705700D01*
X479000D01*
X481600Y708300D01*
X489400D01*
X518655Y645645D02*
X523145D01*
X301500Y815382D02*
X306582D01*
X311600Y853240D02*
X315500D01*
X275500Y911240D02*
Y916000D01*
X271000Y920500D02*
X275500Y916000D01*
X263426Y920500D02*
X271000D01*
X258926Y916000D02*
X263426Y920500D01*
X258926Y898974D02*
Y916000D01*
Y898974D02*
X280700Y877200D01*
X304000D01*
X306800Y880000D01*
Y882000D01*
X308800Y884000D01*
X313000D01*
X335500Y793760D02*
X340040D01*
X344784Y789016D01*
X357858D01*
X324300Y732000D02*
X329300Y727000D01*
X313500Y732000D02*
X324300D01*
X284900Y722000D02*
X289000D01*
X283900Y721000D02*
X284900Y722000D01*
X283900Y717900D02*
Y721000D01*
X337800Y859700D02*
X337900Y859600D01*
X336622Y874000D02*
X337800D01*
X296260Y775000D02*
Y778000D01*
X297510Y779250D01*
X297500Y825618D02*
X301500D01*
X308300Y757425D02*
X313387Y762513D01*
X308300Y733000D02*
Y757425D01*
Y733000D02*
X309300Y732000D01*
X385700Y885500D02*
X389000D01*
X374700Y892000D02*
Y898500D01*
X376000Y899800D01*
X418000D01*
X420300Y897500D01*
Y880700D02*
Y897500D01*
X418200Y878600D02*
X420300Y880700D01*
X418200Y864000D02*
Y878600D01*
Y864000D02*
X426500Y855700D01*
Y840240D02*
Y855700D01*
X379000Y895500D02*
X384000Y890500D01*
X395100D01*
X401700Y897100D01*
X415000D01*
X416000Y896100D01*
Y893240D02*
Y896100D01*
X335500Y821740D02*
X352000D01*
X357700Y816040D01*
Y800827D02*
X357858D01*
X347000Y846260D02*
X359140D01*
X360500Y831800D02*
Y844900D01*
X437260Y840240D02*
X450000Y827500D01*
X426500Y840240D02*
X437260D01*
X374984Y801884D02*
Y806142D01*
X371900Y798800D02*
X374984Y801884D01*
X371547Y850071D02*
Y862547D01*
X376953Y773858D02*
Y779500D01*
X373000Y783453D02*
X376953Y779500D01*
X373000Y783453D02*
Y788900D01*
X402060Y820000D02*
X409300Y812760D01*
X417000D01*
X535855Y988845D02*
X547700Y977000D01*
X535855Y988845D02*
Y988855D01*
X538874Y650416D02*
X548984D01*
X566747Y632653D01*
Y628860D02*
Y632653D01*
X335500Y801240D02*
Y814260D01*
X266000Y898200D02*
Y903760D01*
X328400Y876600D02*
X330800Y879000D01*
X336622D01*
X218145Y953645D02*
X218423D01*
X231355Y966577D01*
Y966855D01*
X189855Y963345D02*
Y970645D01*
X231855Y945000D02*
Y948855D01*
X448000Y774260D02*
X451000D01*
X452240Y775500D01*
Y785600D01*
X448000Y789840D02*
X452240Y785600D01*
X448000Y789840D02*
Y794260D01*
X376158Y794700D02*
X382858Y788000D01*
X369400Y794700D02*
X376158D01*
X365142Y798958D02*
X369400Y794700D01*
X275500Y898000D02*
Y903760D01*
X357700Y812000D02*
X365000Y819300D01*
X365600Y831400D02*
X371547D01*
Y833929D01*
X363200Y833800D02*
X365600Y831400D01*
X363200Y833800D02*
Y842200D01*
X369579Y850071D02*
Y866700D01*
X378921Y773858D02*
Y783825D01*
X417000Y721760D02*
X427213D01*
X431300Y725847D01*
Y778440D01*
X430000Y779740D02*
X431300Y778440D01*
X559700Y648645D02*
X560855D01*
X524645Y663611D02*
Y664645D01*
X417000Y829100D02*
Y832760D01*
X371047Y806142D02*
Y813600D01*
X409687Y808913D02*
X425413D01*
X426500Y810000D01*
Y812760D01*
X373516Y829400D02*
Y833929D01*
X330987Y829613D02*
X349520D01*
X325500Y835100D02*
X330987Y829613D01*
X325500Y835100D02*
Y845760D01*
X441000Y728740D02*
Y739400D01*
X443400Y741800D01*
X566145Y643355D02*
X570245D01*
X276700Y710000D02*
Y730900D01*
X273600Y706900D02*
X276700Y710000D01*
X273600Y695113D02*
Y706900D01*
X256587Y678100D02*
X273600Y695113D01*
X301300Y722000D02*
X313500D01*
X295700Y727600D02*
X301300Y722000D01*
X285200Y727600D02*
X295700D01*
X288000Y845200D02*
X304200D01*
X313000Y870000D02*
Y874000D01*
X214355Y993645D02*
Y994000D01*
X210345Y988355D02*
X219645D01*
X341600Y865500D02*
X343900Y867800D01*
Y889700D01*
X356800Y902600D01*
X442700D01*
X452300Y912200D01*
X469600D01*
X555640Y996247D02*
X568803D01*
X576000Y989050D01*
Y974028D02*
Y989050D01*
X560903Y958931D02*
X576000Y974028D01*
X445000Y781740D02*
X448000D01*
X443700Y780440D02*
X445000Y781740D01*
X443700Y779740D02*
Y780440D01*
X400000Y723760D02*
Y754000D01*
Y723760D02*
X402000Y721760D01*
X406500D01*
X344600Y781300D02*
X348379Y785079D01*
X357858D01*
X363173Y806142D02*
Y812573D01*
X382600Y832000D01*
X382571Y837079D02*
X382600D01*
X450000Y827500D02*
X460740Y816760D01*
Y774260D02*
Y816760D01*
X456500Y774260D02*
X460740D01*
X452200Y865300D02*
X460000Y857500D01*
X431800Y865300D02*
X452200D01*
X426500Y860000D02*
X431800Y865300D01*
X288713Y715913D02*
X333387D01*
X158200Y588300D02*
X165100Y581400D01*
X158200Y588300D02*
Y618132D01*
X182924Y642855D01*
X189855D01*
X555787Y617899D02*
Y628626D01*
X326400Y722900D02*
X329600Y719700D01*
X320000Y725700D02*
X322800Y722900D01*
X289000Y732000D02*
X303000D01*
X309300Y725700D01*
X320000D01*
X331578Y722900D02*
X333087Y724409D01*
Y729981D01*
X282200Y856800D02*
X286500Y852500D01*
X195145Y965355D02*
X201345D01*
X203100Y963600D01*
X282200Y866000D02*
X285878Y869678D01*
X282200Y856800D02*
Y866000D01*
X566601Y981800D02*
Y985287D01*
X560355Y975555D02*
X566601Y981800D01*
X560355Y966355D02*
Y975555D01*
X382571Y846921D02*
X384000D01*
X365142Y806142D02*
Y810642D01*
X385758Y798858D02*
X390142D01*
X382858Y795958D02*
X385758Y798858D01*
X357858Y787047D02*
X362189D01*
X365142Y790000D01*
X337700Y744100D02*
Y744200D01*
X406000Y744100D02*
X406500Y743600D01*
Y729240D02*
Y743600D01*
X359000Y895500D02*
X363300Y891200D01*
Y879200D02*
Y891200D01*
Y879200D02*
X368000Y874500D01*
X388000D01*
X392100Y870400D01*
X416000Y848700D02*
Y885760D01*
X376953Y799647D02*
X377700Y798900D01*
X376953Y799647D02*
Y806142D01*
X444000Y801740D02*
X448000D01*
X437100Y794840D02*
X444000Y801740D01*
X437100Y788000D02*
Y794840D01*
X434700Y785600D02*
X437100Y788000D01*
X428300Y785600D02*
X434700D01*
X367110Y768400D02*
X371300Y764210D01*
X367110Y768400D02*
Y773858D01*
X377453Y850071D02*
Y859453D01*
X338600Y841900D02*
X354400D01*
X337500Y843000D02*
X338600Y841900D01*
X337500Y843000D02*
Y846260D01*
X285732Y881500D02*
X293260D01*
X271232Y896000D02*
X285732Y881500D01*
X271232Y896000D02*
Y909568D01*
X269560Y911240D02*
X271232Y909568D01*
X266000Y911240D02*
X269560D01*
X528563Y944300D02*
X528700D01*
X238645Y943355D02*
Y953645D01*
X267913Y697913D02*
Y701025D01*
X235145Y665145D02*
X267913Y697913D01*
X230855Y665145D02*
X235145D01*
X577800Y634100D02*
X597218Y614682D01*
Y592000D02*
Y614682D01*
X590318Y585100D02*
X597218Y592000D01*
X576100Y585100D02*
X590318D01*
X230855Y665145D02*
Y677153D01*
X226604Y933304D02*
X238645Y943355D01*
X224145Y665145D02*
X230855D01*
X223700Y664700D02*
X224145Y665145D01*
X229953Y659855D02*
X236145D01*
X216800Y625145D02*
X219145D01*
X541145Y614355D02*
Y619355D01*
Y614355D02*
X544100Y611400D01*
X561246D01*
X565645Y971645D02*
X566945D01*
X293000Y766500D02*
X296260D01*
X286400Y839800D02*
X300000D01*
X301500Y820500D02*
X306000D01*
X192347Y617753D02*
X199360D01*
X185000Y634900D02*
X196200D01*
X365142Y768542D02*
Y773858D01*
X363000Y766400D02*
X365142Y768542D01*
X353547Y792953D02*
X357858D01*
X341900Y804600D02*
X353547Y792953D01*
X365100Y716800D02*
Y721500D01*
X369500D01*
X347000Y721760D02*
X350030Y718730D01*
X348416Y790984D02*
X357858D01*
X345800Y793600D02*
X348416Y790984D01*
X350030Y718730D02*
X353060Y721500D01*
X358870D01*
X278128Y874900D02*
X286200D01*
X303900Y857200D01*
Y799013D02*
Y807000D01*
Y799013D02*
X315200Y787713D01*
X338080D01*
X342687Y777513D02*
X346413D01*
X234000Y647645D02*
X247417D01*
X281400Y681628D01*
Y700810D01*
X436000Y728740D02*
X441000D01*
X433800Y726540D02*
X436000Y728740D01*
X433800Y723700D02*
Y726540D01*
X428000Y717900D02*
X433800Y723700D01*
X400400Y717900D02*
X428000D01*
X382300Y736000D02*
X400400Y717900D01*
X368300Y736000D02*
X382300D01*
X364300Y740000D02*
X368300Y736000D01*
X364300Y740000D02*
Y756000D01*
X359200Y761100D02*
X364300Y756000D01*
X359200Y761100D02*
Y771058D01*
X362000Y773858D01*
X363173D01*
X525187Y940200D02*
X541200D01*
X544645Y943645D01*
Y947855D01*
X417000Y785500D02*
Y792760D01*
X415100Y783600D02*
X417000Y785500D01*
X377100Y761100D02*
Y765400D01*
X370000Y754000D02*
X377100Y761100D01*
X407165Y807126D02*
X428174D01*
X384827Y806142D02*
X385488Y805338D01*
X409500Y805000D01*
Y803000D02*
Y805000D01*
X300740Y889500D02*
X305800D01*
X307900Y891600D01*
X323500D01*
X327100Y889000D01*
X336622D01*
X295600Y742000D02*
X305600Y732000D01*
X289000Y742000D02*
X295600D01*
X332300Y781240D02*
X335500D01*
X329475Y785925D02*
X332300Y783100D01*
X357700Y800827D02*
Y812000D01*
Y816040D01*
X359140Y846260D02*
X360500Y844900D01*
X363200Y842200D01*
X382600Y832000D02*
Y837079D01*
X460740Y774260D02*
X465000D01*
X443700Y770400D02*
Y779740D01*
X427000D02*
X430000D01*
X443700D01*
X426500Y855700D02*
Y860000D01*
X417000Y800240D02*
X423940D01*
X188399Y628713D02*
X207200D01*
X209142D01*
X322800Y722900D02*
X326400D01*
X331578D01*
X337800Y859700D02*
Y874000D01*
X335500Y746400D02*
Y749700D01*
X354640Y726000D02*
X382000D01*
X347000Y741000D02*
X355700Y749700D01*
X365142Y790000D02*
Y798958D01*
Y806142D01*
X382858Y773858D02*
Y788000D01*
Y795958D01*
X417000Y755100D02*
X423500Y761600D01*
X427000Y765100D01*
X412000Y772260D02*
X423500D01*
Y756760D02*
Y761600D01*
Y772260D01*
X347700Y716400D02*
X350030Y718730D01*
X451500Y728740D02*
Y735100D01*
Y741800D01*
X305600Y732000D02*
X309300D01*
X313500D01*
X332300Y781240D02*
Y783100D01*
X306582Y815382D02*
X310464Y811500D01*
X332740D01*
X335500Y814260D01*
X480500Y732100D02*
Y883100D01*
X528450Y931050D01*
X471500Y772000D02*
Y906515D01*
X451500Y735100D02*
X476000Y759600D01*
Y886893D01*
X492700Y903593D01*
X422000Y867800D02*
X432785D01*
X471500Y906515D01*
X473387Y908402D01*
X274000Y733600D02*
X276700Y730900D01*
X274000Y733600D02*
Y840000D01*
X286500Y852500D01*
X277500Y735300D02*
X285200Y727600D01*
X277500Y735300D02*
Y834700D01*
X288000Y845200D01*
X281500Y778000D02*
X293000Y766500D01*
X281500Y778000D02*
Y834900D01*
X286400Y839800D01*
X285000Y823858D02*
X288842Y827700D01*
X285000Y798000D02*
Y823858D01*
Y798000D02*
X295000Y788000D01*
Y786000D02*
Y788000D01*
Y786000D02*
X296260Y784740D01*
Y783500D02*
Y784740D01*
X335500Y773760D02*
X340440D01*
X342900Y771300D01*
X333387Y715913D02*
X335500Y718025D01*
Y731400D01*
X338000Y716950D02*
Y732303D01*
X281400Y681628D02*
X313272Y713500D01*
X334550D01*
X338000Y716950D01*
X277500Y686100D02*
Y704700D01*
X288713Y715913D01*
X230672Y653000D02*
X244400D01*
X277500Y686100D01*
X211729Y641729D02*
X217458Y636000D01*
X221502Y641000D02*
X225000Y644498D01*
Y654902D01*
X229953Y659855D01*
X207000Y634945D02*
X216800Y625145D01*
X207000Y634945D02*
Y641900D01*
X227500Y644855D02*
Y649828D01*
X230672Y653000D01*
X227500Y644855D02*
X232355Y640000D01*
X217458Y636000D02*
X233000D01*
X232355Y640000D02*
X237000D01*
X237789D01*
X233000Y636000D02*
X237000Y640000D01*
X218000Y641000D02*
X221502D01*
X196200Y634900D02*
X210400Y649100D01*
X215901Y645626D02*
X220916D01*
X212528Y649000D02*
X215901Y645626D01*
X207000Y641900D02*
X211600Y646500D01*
X212500D01*
X218000Y641000D01*
X210500Y649000D02*
X212528D01*
X178000Y626300D02*
Y633700D01*
X180500Y629600D02*
X192347Y617753D01*
X180500Y629600D02*
Y630400D01*
X185000Y634900D01*
X165100Y581400D02*
X182400D01*
X213855Y612855D01*
Y619855D01*
X170900Y585300D02*
X181800D01*
X194500Y598000D01*
Y609800D01*
X178000Y626300D02*
X194500Y609800D01*
X178000Y633700D02*
X181300Y637000D01*
X190300D01*
X195145Y641845D01*
X212229Y948982D02*
X212855Y948355D01*
X315000Y879000D02*
X318000Y876000D01*
Y870800D02*
Y876000D01*
X349520Y829613D02*
X356633Y822500D01*
X359013Y825000D02*
X369116D01*
X373516Y829400D01*
X371047Y813600D02*
X373447Y816000D01*
X402600D01*
X409687Y808913D01*
X373016Y811000D02*
X375516Y813500D01*
X400791D01*
X407165Y807126D01*
X436300Y811800D02*
Y835800D01*
X431626Y807126D02*
X436300Y811800D01*
X428174Y807126D02*
X431626D01*
X430060Y792760D02*
X433000Y795700D01*
Y802300D01*
X428174Y807126D02*
X433000Y802300D01*
Y789500D02*
Y795700D01*
X537500Y636000D02*
X541500Y640000D01*
X532789Y636000D02*
X537500D01*
X531500Y641000D02*
X534800D01*
X529000Y643500D02*
X531500Y641000D01*
X529000Y643500D02*
Y659255D01*
X524645Y663611D02*
X529000Y659255D01*
X534800Y641000D02*
X538000Y644200D01*
X532000Y646711D02*
X533584Y645126D01*
X532000Y646711D02*
Y652416D01*
X534500Y651100D02*
X537900Y654500D01*
X553845D01*
X559700Y648645D01*
X546500Y661100D02*
Y663789D01*
X544145Y666145D02*
X546500Y663789D01*
X532000Y652416D02*
X536084Y656500D01*
X541900D01*
X546500Y661100D01*
X519355Y955145D02*
X529500Y965290D01*
X545500Y968000D02*
X547700Y970200D01*
Y977000D01*
X542500Y968000D02*
X545500D01*
X534084Y968374D02*
X539126D01*
X548569Y958931D01*
X560903D01*
X523500Y949500D02*
X528700Y944300D01*
X566945Y971645D02*
X573500Y978200D01*
Y986750D01*
X556050Y990000D02*
X561500D01*
X564500Y993000D01*
X567250D01*
X573500Y986750D01*
X549000Y997050D02*
X556050Y990000D01*
X549000Y997050D02*
Y1006500D01*
X571200Y1028700D01*
X575700D01*
X207401Y991300D02*
X210345Y988355D01*
X202986Y991300D02*
X207401D01*
X199213Y995073D02*
Y996101D01*
Y995073D02*
X202986Y991300D01*
X204600Y1003492D02*
X214092Y994000D01*
X214355D01*
X189855Y963345D02*
X211200Y942000D01*
X228855D01*
X231855Y945000D01*
X212855Y948355D02*
X214211Y947000D01*
X221416Y969342D02*
X226073Y974000D01*
X234789D01*
X236645Y972145D01*
X231355Y966855D02*
X232711Y965500D01*
X214211Y947000D02*
X221000D01*
X233600Y959600D01*
X242700D01*
X232711Y965500D02*
X242500D01*
X216126Y963584D02*
X217000Y964458D01*
Y976526D01*
X208386Y985140D02*
X217000Y976526D01*
X351013Y833000D02*
X359013Y825000D01*
X336500Y833000D02*
X351013D01*
X331500Y838000D02*
X336500Y833000D01*
X331500Y838000D02*
Y851740D01*
X329620Y853620D02*
X331500Y851740D01*
X307775Y864775D02*
X313000Y870000D01*
X304200Y845200D02*
X307775Y848775D01*
Y864775D01*
X309600Y766300D02*
X310500Y767200D01*
X297510Y779250D02*
X307750D01*
X310500Y776500D01*
Y767200D02*
Y776500D01*
X320000Y746900D02*
X335500Y731400D01*
X320000Y776200D02*
X325040Y781240D01*
X320000Y746900D02*
Y776200D01*
X325040Y781240D02*
X326000D01*
X324000Y746303D02*
X338000Y732303D01*
X324000Y746303D02*
Y762000D01*
X330000Y768000D01*
X340700Y726700D02*
Y733800D01*
X328000Y746500D02*
X340700Y733800D01*
X328000Y746500D02*
Y761500D01*
X332500Y766000D01*
X316500Y746568D02*
X333087Y729981D01*
X316500Y746568D02*
Y779300D01*
X319000Y781800D01*
X312075Y785925D02*
X329475D01*
X313387Y762513D02*
Y781000D01*
X297500Y800500D02*
Y825618D01*
X313387Y781387D02*
Y784613D01*
X341000Y779200D02*
X342687Y777513D01*
X341000Y779200D02*
Y784793D01*
X338080Y787713D02*
X341000Y784793D01*
X330000Y768000D02*
X344000D01*
X347200Y771200D01*
X352010Y783110D02*
X357858D01*
X346413Y777513D02*
X352010Y783110D01*
X353500Y779173D02*
X357858D01*
X347200Y775401D02*
X352941Y781142D01*
X347200Y771200D02*
Y775401D01*
X352941Y781142D02*
X357858D01*
X349400Y775073D02*
X353500Y779173D01*
X349400Y770400D02*
Y775073D01*
X345000Y766000D02*
X349400Y770400D01*
X332500Y766000D02*
X345000D01*
X395000Y775700D02*
X398700Y779400D01*
X387740Y748500D02*
X392000D01*
X395000Y751500D01*
Y775700D01*
X385000Y751240D02*
X387740Y748500D01*
X385000Y751240D02*
Y755240D01*
X380890Y759350D02*
X385000Y755240D01*
X371547Y862547D02*
X375000Y866000D01*
X381040D01*
X385100Y861940D01*
X374700Y892000D02*
X376200Y890500D01*
X380700D01*
X385700Y885500D01*
X392100Y832000D02*
X398600Y825500D01*
X380000D02*
X413400D01*
X417000Y829100D01*
X384000Y846921D02*
X392100Y838821D01*
Y832000D02*
Y838821D01*
Y870400D01*
X365142Y810642D02*
X380000Y825500D01*
X356633Y822500D02*
X370000D01*
X377453Y829953D01*
Y833929D01*
X315500Y835500D02*
Y845760D01*
Y835500D02*
X329260Y821740D01*
X335500D01*
X306582Y815382D02*
X311000Y819800D01*
Y852640D01*
X311600Y853240D01*
X306000Y820500D02*
X309000Y823500D01*
Y830800D01*
X300000Y839800D02*
X309000Y830800D01*
X301500Y823059D02*
X305059D01*
X288842Y827700D02*
X305300D01*
X305059Y823059D02*
X306500Y824500D01*
Y826500D01*
X305300Y827700D02*
X306500Y826500D01*
X340000Y789500D02*
X344421Y785079D01*
X348379D01*
X319000Y801240D02*
X326000D01*
X319000Y792000D02*
Y801240D01*
Y792000D02*
X321500Y789500D01*
X340000D01*
X297500Y800500D02*
X312075Y785925D01*
X313387Y784613D01*
X441000Y717700D02*
X443700Y715000D01*
X453760Y721260D02*
X462626Y730126D01*
X466500D01*
X446000Y746500D02*
X471500Y772000D01*
X449240Y721260D02*
X451500D01*
X446000Y724500D02*
X449240Y721260D01*
X446000Y724500D02*
Y746500D01*
X473126Y729126D02*
X483474D01*
X469000Y725000D02*
X473126Y729126D01*
X466886Y725000D02*
X469000D01*
X462760Y720874D02*
X466886Y725000D01*
X443700Y715000D02*
X464366D01*
X470240Y720874D01*
X480500Y732100D02*
X483474Y729126D01*
X472175Y710500D02*
X482000D01*
X492050Y720550D01*
X483474Y729126D02*
X492050Y720550D01*
X454240Y721260D02*
X457500Y718000D01*
X451500Y721260D02*
X453760D01*
X454240D01*
X468041Y708259D02*
Y713500D01*
X496000Y668300D02*
X518655Y645645D01*
X496000Y668300D02*
Y701700D01*
X489400Y708300D02*
X496000Y701700D01*
X492050Y720550D02*
X499500Y713100D01*
X485600Y704200D02*
X492000Y697800D01*
Y666211D02*
Y697800D01*
Y666211D02*
X517855Y640355D01*
X499500Y683000D02*
Y713100D01*
Y683000D02*
X507300Y675200D01*
X473387Y908402D02*
Y930887D01*
X492700Y903593D02*
Y943700D01*
X514000Y965000D02*
X520289D01*
X523145Y967855D01*
X514000Y951387D02*
X525187Y940200D01*
X504613Y951387D02*
X514000D01*
X503000Y953000D02*
X504613Y951387D01*
X492700Y943700D02*
X514000Y965000D01*
X517855Y973145D02*
X521711Y977000D01*
X473387Y930887D02*
X512895Y970395D01*
X515105D01*
X517855Y973145D01*
X521711Y977000D02*
X538542D01*
X543271Y972271D01*
X536000Y974500D02*
X542500Y968000D01*
X529500Y965290D02*
Y972500D01*
X531500Y974500D01*
X536000D01*
X254500Y898528D02*
X278128Y874900D01*
X254500Y898528D02*
Y953500D01*
X242500Y965500D02*
X254500Y953500D01*
X285000Y903760D02*
X293260Y895500D01*
X339300Y884000D02*
X341500Y886200D01*
Y895700D01*
X337700Y899500D02*
X341500Y895700D01*
X285000Y911240D02*
X290260D01*
X302000Y899500D01*
X337700D01*
X389000Y885500D02*
X395500D01*
X403240Y893240D01*
X406000D01*
X555000Y963800D02*
X557555Y966355D01*
X560355D01*
X510900Y680900D02*
X528600D01*
X538855Y670645D01*
Y660855D02*
Y670645D01*
X507500Y671210D02*
X519355Y659355D01*
X507500Y671210D02*
Y675200D01*
X507300D02*
X525500D01*
X534500Y649500D02*
Y651100D01*
Y649500D02*
X538000Y646000D01*
Y644200D02*
Y646000D01*
X555787Y617899D02*
X563899D01*
X575000Y629000D01*
Y638600D01*
X570245Y643355D02*
X575000Y638600D01*
X535855Y624645D02*
X537711Y626500D01*
X543499D01*
X552100Y617899D01*
X217645Y660355D02*
Y675145D01*
X253010Y710510D01*
X271700D01*
D34*
X450000Y857500D02*
D03*
Y847500D02*
D03*
Y837500D02*
D03*
Y827500D02*
D03*
X460000Y857500D02*
D03*
Y847500D02*
D03*
Y837500D02*
D03*
X360000Y754000D02*
D03*
X370000D02*
D03*
X380000D02*
D03*
X390000D02*
D03*
X400000D02*
D03*
X359000Y885500D02*
D03*
X369000D02*
D03*
Y895500D02*
D03*
X379000Y885500D02*
D03*
Y895500D02*
D03*
X389000Y885500D02*
D03*
Y895500D02*
D03*
X286500Y852500D02*
D03*
D35*
X460000Y827500D02*
D03*
X286500Y862500D02*
D03*
D36*
X350000Y754000D02*
D03*
X359000Y895500D02*
D03*
D37*
X174818Y1009182D02*
D03*
X579682Y1009682D02*
D03*
X175318Y604318D02*
D03*
X580182Y604818D02*
D03*
D38*
X372138Y844362D02*
D03*
X376862D02*
D03*
X372138Y839638D02*
D03*
X376862D02*
D03*
X398700Y779400D02*
D03*
X402500Y792890D02*
D03*
X423500Y756760D02*
D03*
X448600Y807600D02*
D03*
X369079Y784100D02*
D03*
X170900Y585300D02*
D03*
X337700Y744200D02*
D03*
X242700Y959600D02*
D03*
X329300Y727000D02*
D03*
X283900Y717900D02*
D03*
X337900Y859600D02*
D03*
X309600Y766300D02*
D03*
X360500Y831800D02*
D03*
X371900Y798800D02*
D03*
X385100Y861940D02*
D03*
X373000Y788900D02*
D03*
X402060Y820000D02*
D03*
X266000Y898200D02*
D03*
X328400Y876600D02*
D03*
X275500Y898000D02*
D03*
X365000Y819300D02*
D03*
X365600Y831400D02*
D03*
X436300Y835800D02*
D03*
X369579Y866700D02*
D03*
X378921Y783825D02*
D03*
X443400Y741800D02*
D03*
X451500D02*
D03*
X256587Y678100D02*
D03*
X207200Y628713D02*
D03*
X204600Y1003492D02*
D03*
X341600Y865500D02*
D03*
X469600Y912200D02*
D03*
X555000Y963800D02*
D03*
X344600Y781300D02*
D03*
X319700Y775900D02*
D03*
X422000Y867800D02*
D03*
X555787Y628626D02*
D03*
X329600Y719700D02*
D03*
X319000Y781800D02*
D03*
X285878Y869678D02*
D03*
X202986Y991300D02*
D03*
X203100Y963600D02*
D03*
X406000Y744100D02*
D03*
X416000Y848700D02*
D03*
X377700Y798900D02*
D03*
X428300Y785600D02*
D03*
X371300Y764210D02*
D03*
X377453Y859453D02*
D03*
X354400Y841900D02*
D03*
X528563Y944300D02*
D03*
X238645Y943355D02*
D03*
X267913Y701025D02*
D03*
X525500Y675200D02*
D03*
X577800Y634100D02*
D03*
X576100Y585100D02*
D03*
X230855Y677153D02*
D03*
X472175Y710500D02*
D03*
X226604Y933304D02*
D03*
X223700Y664700D02*
D03*
X561246Y611400D02*
D03*
X575700Y1028700D02*
D03*
X363000Y766400D02*
D03*
X342900Y771300D02*
D03*
X341900Y804600D02*
D03*
X365100Y716800D02*
D03*
X345800Y793600D02*
D03*
X347700Y716400D02*
D03*
X303900Y857200D02*
D03*
Y807000D02*
D03*
X281400Y700810D02*
D03*
X271700Y710510D02*
D03*
X485600Y704200D02*
D03*
X510900Y680900D02*
D03*
X340700Y726700D02*
D03*
X415100Y783600D02*
D03*
X377100Y765400D02*
D03*
X433000Y789500D02*
D03*
X409500Y803000D02*
D03*
X528500Y931000D02*
D03*
X457500Y718000D02*
D03*
X468041Y713500D02*
D03*
M02*
