M48
;Layer_Color=9474304
;FILE_FORMAT=2:5
INCH,LZ
;TYPE=PLATED
T1F00S00C0.01181
T2F00S00C0.03543
T3F00S00C0.27953
%
T01
X05761Y05851
X0561246Y06114
X01709Y05853
X02072Y0628713
X02237Y06647
X0230855Y0677153
X0256587Y06781
X0267913Y0701025
X02717Y071051
X02814Y070081
X02839Y07179
X03096Y07663
X03197Y07759
X03429Y07713
X0363Y07664
X03713Y076421
X03771Y07654
X03987Y07794
X0406Y07441
X04235Y075676
X04434Y07418
X04515
X04575Y0718
X0468041Y07135
X03651Y07168
X03477Y07164
X03407Y07267
X03293Y0727
X03296Y07197
X03377Y07442
X0472175Y07105
X04856Y07042
X05109Y06809
X05255Y06752
X0555787Y0628626
X05778Y06341
X05285Y0931
X04696Y09122
X0422Y08678
X0416Y08487
X04363Y08358
X04486Y08076
X0433Y07895
X04283Y07856
X04151Y07836
X04025Y079289
X04095Y0803
X040206Y082
X0365Y08193
X03656Y08314
X03605Y08318
X03544Y08419
X0372138Y0839638
Y0844362
X0376862
Y0839638
X0377453Y0859453
X03851Y086194
X0369579Y08667
X03416Y08655
X03379Y08596
X03284Y08766
X03419Y08046
X03458Y07936
X03446Y07813
X0319Y07818
X0369079Y07841
X0373Y07889
X0378921Y0783825
X03777Y07989
X03719Y07988
X03039Y0807
Y08572
X0285878Y0869678
X02755Y0898
X0266Y08982
X0226604Y0933304
X0238645Y0943355
X02427Y09596
X02031Y09636
X0202986Y09913
X02046Y1003492
X0528563Y09443
X0555Y09638
X05757Y10287
T02
X035Y0754
X036
X037
X038
X039
X04
X045Y08275
Y08375
Y08475
Y08575
X046
Y08475
Y08375
Y08275
X0389Y08855
X0379
X0369
X0359
Y08955
X0369
X0379
X0389
X02865Y08625
Y08525
T03
X0580182Y0604818
X0175318Y0604318
X0174818Y1009182
X0579682Y1009682
M30
