%FSLAX25Y25*%
%MOIN*%
G70*
G01*
G75*
G04 Layer_Color=2752767*
%ADD10C,0.00591*%
%ADD11C,0.00500*%
%ADD12C,0.00667*%
D10*
X300567Y812626D02*
G03*
X300567Y812626I-1102J0D01*
G01*
Y828374D02*
G03*
X300567Y828374I-1102J0D01*
G01*
D11*
X448000Y855500D02*
Y859500D01*
X452000D01*
Y855500D01*
X448000D01*
Y845500D02*
Y849500D01*
X452000D01*
Y845500D01*
X448000D01*
Y835500D02*
Y839500D01*
X452000D01*
Y835500D01*
X448000D01*
Y825500D02*
Y829500D01*
X452000D01*
Y825500D01*
X448000D01*
X458000Y855500D02*
Y859500D01*
X462000D01*
Y855500D01*
X458000D01*
Y845500D02*
Y849500D01*
X462000D01*
Y845500D01*
X458000D01*
Y835500D02*
Y839500D01*
X462000D01*
Y835500D01*
X458000D01*
Y825500D02*
Y829500D01*
X462000D01*
Y825500D01*
X458000D01*
X348000Y752000D02*
Y756000D01*
X352000D01*
Y752000D01*
X348000D01*
X358000D02*
Y756000D01*
X362000D01*
Y752000D01*
X358000D01*
X368000D02*
Y756000D01*
X372000D01*
Y752000D01*
X368000D01*
X378000D02*
Y756000D01*
X382000D01*
Y752000D01*
X378000D01*
X388000D02*
Y756000D01*
X392000D01*
Y752000D01*
X388000D01*
X398000D02*
Y756000D01*
X402000D01*
Y752000D01*
X398000D01*
X357000Y893500D02*
Y897500D01*
X361000D01*
Y893500D01*
X357000D01*
Y883500D02*
Y887500D01*
X361000D01*
Y883500D01*
X357000D01*
X367000D02*
Y887500D01*
X371000D01*
Y883500D01*
X367000D01*
Y893500D02*
Y897500D01*
X371000D01*
Y893500D01*
X367000D01*
X377000Y883500D02*
Y887500D01*
X381000D01*
Y883500D01*
X377000D01*
Y893500D02*
Y897500D01*
X381000D01*
Y893500D01*
X377000D01*
X387000Y883500D02*
Y887500D01*
X391000D01*
Y883500D01*
X387000D01*
Y893500D02*
Y897500D01*
X391000D01*
Y893500D01*
X387000D01*
X284500Y860500D02*
Y864500D01*
X288500D01*
Y860500D01*
X284500D01*
Y850500D02*
Y854500D01*
X288500D01*
Y850500D01*
X284500D01*
X372138Y842362D02*
X370138Y846362D01*
X374138D01*
X372138Y842362D01*
X376862D02*
X374862Y846362D01*
X378862D01*
X376862Y842362D01*
X372138Y837638D02*
X370138Y841638D01*
X374138D01*
X372138Y837638D01*
X376862D02*
X374862Y841638D01*
X378862D01*
X376862Y837638D01*
X398700Y777400D02*
X396700Y781400D01*
X400700D01*
X398700Y777400D01*
X402500Y790890D02*
X400500Y794890D01*
X404500D01*
X402500Y790890D01*
X423500Y754760D02*
X421500Y758760D01*
X425500D01*
X423500Y754760D01*
X448600Y805600D02*
X446600Y809600D01*
X450600D01*
X448600Y805600D01*
X369079Y782100D02*
X367079Y786100D01*
X371079D01*
X369079Y782100D01*
X170900Y583300D02*
X168900Y587300D01*
X172900D01*
X170900Y583300D01*
X337700Y742200D02*
X335700Y746200D01*
X339700D01*
X337700Y742200D01*
X242700Y957600D02*
X240700Y961600D01*
X244700D01*
X242700Y957600D01*
X329300Y725000D02*
X327300Y729000D01*
X331300D01*
X329300Y725000D01*
X283900Y715900D02*
X281900Y719900D01*
X285900D01*
X283900Y715900D01*
X337900Y857600D02*
X335900Y861600D01*
X339900D01*
X337900Y857600D01*
X309600Y764300D02*
X307600Y768300D01*
X311600D01*
X309600Y764300D01*
X360500Y829800D02*
X358500Y833800D01*
X362500D01*
X360500Y829800D01*
X371900Y796800D02*
X369900Y800800D01*
X373900D01*
X371900Y796800D01*
X385100Y859940D02*
X383100Y863940D01*
X387100D01*
X385100Y859940D01*
X373000Y786900D02*
X371000Y790900D01*
X375000D01*
X373000Y786900D01*
X402060Y818000D02*
X400060Y822000D01*
X404060D01*
X402060Y818000D01*
X266000Y896200D02*
X264000Y900200D01*
X268000D01*
X266000Y896200D01*
X328400Y874600D02*
X326400Y878600D01*
X330400D01*
X328400Y874600D01*
X275500Y896000D02*
X273500Y900000D01*
X277500D01*
X275500Y896000D01*
X365000Y817300D02*
X363000Y821300D01*
X367000D01*
X365000Y817300D01*
X365600Y829400D02*
X363600Y833400D01*
X367600D01*
X365600Y829400D01*
X436300Y833800D02*
X434300Y837800D01*
X438300D01*
X436300Y833800D01*
X369579Y864700D02*
X367579Y868700D01*
X371579D01*
X369579Y864700D01*
X378921Y781825D02*
X376921Y785825D01*
X380921D01*
X378921Y781825D01*
X443400Y739800D02*
X441400Y743800D01*
X445400D01*
X443400Y739800D01*
X451500D02*
X449500Y743800D01*
X453500D01*
X451500Y739800D01*
X256587Y676100D02*
X254587Y680100D01*
X258587D01*
X256587Y676100D01*
X207200Y626713D02*
X205200Y630713D01*
X209200D01*
X207200Y626713D01*
X204600Y1001492D02*
X202600Y1005492D01*
X206600D01*
X204600Y1001492D01*
X341600Y863500D02*
X339600Y867500D01*
X343600D01*
X341600Y863500D01*
X469600Y910200D02*
X467600Y914200D01*
X471600D01*
X469600Y910200D01*
X555000Y961800D02*
X553000Y965800D01*
X557000D01*
X555000Y961800D01*
X344600Y779300D02*
X342600Y783300D01*
X346600D01*
X344600Y779300D01*
X319700Y773900D02*
X317700Y777900D01*
X321700D01*
X319700Y773900D01*
X422000Y865800D02*
X420000Y869800D01*
X424000D01*
X422000Y865800D01*
X555787Y626626D02*
X553787Y630626D01*
X557787D01*
X555787Y626626D01*
X329600Y717700D02*
X327600Y721700D01*
X331600D01*
X329600Y717700D01*
X319000Y779800D02*
X317000Y783800D01*
X321000D01*
X319000Y779800D01*
X285878Y867678D02*
X283878Y871678D01*
X287878D01*
X285878Y867678D01*
X202986Y989300D02*
X200986Y993300D01*
X204986D01*
X202986Y989300D01*
X203100Y961600D02*
X201100Y965600D01*
X205100D01*
X203100Y961600D01*
X406000Y742100D02*
X404000Y746100D01*
X408000D01*
X406000Y742100D01*
X416000Y846700D02*
X414000Y850700D01*
X418000D01*
X416000Y846700D01*
X377700Y796900D02*
X375700Y800900D01*
X379700D01*
X377700Y796900D01*
X428300Y783600D02*
X426300Y787600D01*
X430300D01*
X428300Y783600D01*
X371300Y762210D02*
X369300Y766210D01*
X373300D01*
X371300Y762210D01*
X377453Y857453D02*
X375453Y861453D01*
X379453D01*
X377453Y857453D01*
X354400Y839900D02*
X352400Y843900D01*
X356400D01*
X354400Y839900D01*
X528563Y942300D02*
X526563Y946300D01*
X530563D01*
X528563Y942300D01*
X238645Y941355D02*
X236645Y945355D01*
X240645D01*
X238645Y941355D01*
X267913Y699025D02*
X265913Y703025D01*
X269913D01*
X267913Y699025D01*
X525500Y673200D02*
X523500Y677200D01*
X527500D01*
X525500Y673200D01*
X577800Y632100D02*
X575800Y636100D01*
X579800D01*
X577800Y632100D01*
X576100Y583100D02*
X574100Y587100D01*
X578100D01*
X576100Y583100D01*
X230855Y675153D02*
X228855Y679153D01*
X232855D01*
X230855Y675153D01*
X472175Y708500D02*
X470175Y712500D01*
X474175D01*
X472175Y708500D01*
X226604Y931304D02*
X224604Y935304D01*
X228604D01*
X226604Y931304D01*
X223700Y662700D02*
X221700Y666700D01*
X225700D01*
X223700Y662700D01*
X561246Y609400D02*
X559246Y613400D01*
X563246D01*
X561246Y609400D01*
X575700Y1026700D02*
X573700Y1030700D01*
X577700D01*
X575700Y1026700D01*
X363000Y764400D02*
X361000Y768400D01*
X365000D01*
X363000Y764400D01*
X342900Y769300D02*
X340900Y773300D01*
X344900D01*
X342900Y769300D01*
X341900Y802600D02*
X339900Y806600D01*
X343900D01*
X341900Y802600D01*
X365100Y714800D02*
X363100Y718800D01*
X367100D01*
X365100Y714800D01*
X345800Y791600D02*
X343800Y795600D01*
X347800D01*
X345800Y791600D01*
X347700Y714400D02*
X345700Y718400D01*
X349700D01*
X347700Y714400D01*
X303900Y855200D02*
X301900Y859200D01*
X305900D01*
X303900Y855200D01*
Y805000D02*
X301900Y809000D01*
X305900D01*
X303900Y805000D01*
X281400Y698810D02*
X279400Y702810D01*
X283400D01*
X281400Y698810D01*
X271700Y708510D02*
X269700Y712510D01*
X273700D01*
X271700Y708510D01*
X485600Y702200D02*
X483600Y706200D01*
X487600D01*
X485600Y702200D01*
X510900Y678900D02*
X508900Y682900D01*
X512900D01*
X510900Y678900D01*
X340700Y724700D02*
X338700Y728700D01*
X342700D01*
X340700Y724700D01*
X415100Y781600D02*
X413100Y785600D01*
X417100D01*
X415100Y781600D01*
X377100Y763400D02*
X375100Y767400D01*
X379100D01*
X377100Y763400D01*
X433000Y787500D02*
X431000Y791500D01*
X435000D01*
X433000Y787500D01*
X409500Y801000D02*
X407500Y805000D01*
X411500D01*
X409500Y801000D01*
X528500Y929000D02*
X526500Y933000D01*
X530500D01*
X528500Y929000D01*
X457500Y716000D02*
X455500Y720000D01*
X459500D01*
X457500Y716000D01*
X468041Y711500D02*
X466041Y715500D01*
X470041D01*
X468041Y711500D01*
D12*
X176818Y1009182D02*
G03*
X176818Y1009182I-2000J0D01*
G01*
X581682Y1009682D02*
G03*
X581682Y1009682I-2000J0D01*
G01*
X177318Y604318D02*
G03*
X177318Y604318I-2000J0D01*
G01*
X582182Y604818D02*
G03*
X582182Y604818I-2000J0D01*
G01*
M02*
