M48
;Layer_Color=9474304
;FILE_FORMAT=2:5
INCH,LZ
;TYPE=PLATED
T1F00S00C0.01181
T2F00S00C0.03543
T3F00S00C0.03937
T4F00S00C0.27953
%
T01
X0232145Y0668
X02363Y06701
X02572Y06681
X02605Y06911
X02575Y0709
X0279Y07045
X02869Y06968
X02823Y07193
X0374Y0774066
X0381Y0769
X03979Y0768
X04004Y07795
X04145Y07603
X0449Y07412
X04565Y07135
X04695Y071
X047426Y07166
X04721Y07327
X04695Y0689
X0493418Y0691482
X0513018Y0690082
X0513118Y0682282
X0518918Y0678882
X0510918Y0649946
X0487Y08902
X0491645Y0924101
X04974Y0922384
X04709Y09195
X0518353Y0931355
X04285Y0893
X042885Y08702
X04222Y08429
X04265Y08224
X0436Y08215
X04319Y07994
X0418Y07939
X04233Y07833
X04607Y0782
X046Y08017
X03859Y08047
X03868Y0795519
X03759Y07937
X03753Y08024
X03715Y08082
X03627Y08154
X03623Y08222
X0374Y08231
X0379453Y0823747
X0378862Y0843138
Y0847862
X0374138
Y0843138
X03668Y08362
X03588Y08462
X03589Y08592
X037Y08636
X03739Y08578
X03863Y08599
X04013Y08638
X0403Y08363
X03971Y08362
X0409Y0828
X03456Y08036
X03265Y07981
X03158Y07878
X0327Y08207
X0317Y08783
X0311Y08652
X03009Y08657
X0296Y08375
X0289704Y0796004
X0259887Y0897134
X02385Y0935645
X02363Y0971422
X05173Y09558
X05428Y0948664
T02
X0356Y0756
X0366
X0376
X0386
X0396
X0406
X04435Y08545
Y08645
Y08745
Y08845
X04535
Y08745
Y08645
Y08545
X03915Y0879
X03815
X03715
X03615
Y0889
X03715
X03815
X03915
X03025Y07935
Y07835
T03
X0364Y0732
X0384
T04
X0210318Y0639318
X05455Y06395
X0209318Y0974682
X0544682
M30
