%FSLAX25Y25*%
%MOIN*%
G70*
G01*
G75*
G04 Layer_Color=32896*
G04:AMPARAMS|DCode=10|XSize=78.74mil|YSize=47.24mil|CornerRadius=0mil|HoleSize=0mil|Usage=FLASHONLY|Rotation=45.000|XOffset=0mil|YOffset=0mil|HoleType=Round|Shape=Rectangle|*
%AMROTATEDRECTD10*
4,1,4,-0.01114,-0.04454,-0.04454,-0.01114,0.01114,0.04454,0.04454,0.01114,-0.01114,-0.04454,0.0*
%
%ADD10ROTATEDRECTD10*%

G04:AMPARAMS|DCode=11|XSize=78.74mil|YSize=47.24mil|CornerRadius=0mil|HoleSize=0mil|Usage=FLASHONLY|Rotation=315.000|XOffset=0mil|YOffset=0mil|HoleType=Round|Shape=Rectangle|*
%AMROTATEDRECTD11*
4,1,4,-0.04454,0.01114,-0.01114,0.04454,0.04454,-0.01114,0.01114,-0.04454,-0.04454,0.01114,0.0*
%
%ADD11ROTATEDRECTD11*%

%ADD12O,0.01181X0.08268*%
%ADD13O,0.08268X0.01181*%
G04:AMPARAMS|DCode=14|XSize=59.06mil|YSize=51.18mil|CornerRadius=0mil|HoleSize=0mil|Usage=FLASHONLY|Rotation=45.000|XOffset=0mil|YOffset=0mil|HoleType=Round|Shape=Rectangle|*
%AMROTATEDRECTD14*
4,1,4,-0.00278,-0.03897,-0.03897,-0.00278,0.00278,0.03897,0.03897,0.00278,-0.00278,-0.03897,0.0*
%
%ADD14ROTATEDRECTD14*%

G04:AMPARAMS|DCode=15|XSize=35.43mil|YSize=37.4mil|CornerRadius=0mil|HoleSize=0mil|Usage=FLASHONLY|Rotation=45.000|XOffset=0mil|YOffset=0mil|HoleType=Round|Shape=Rectangle|*
%AMROTATEDRECTD15*
4,1,4,0.00070,-0.02575,-0.02575,0.00070,-0.00070,0.02575,0.02575,-0.00070,0.00070,-0.02575,0.0*
%
%ADD15ROTATEDRECTD15*%

G04:AMPARAMS|DCode=16|XSize=35.43mil|YSize=37.4mil|CornerRadius=0mil|HoleSize=0mil|Usage=FLASHONLY|Rotation=45.000|XOffset=0mil|YOffset=0mil|HoleType=Round|Shape=Rectangle|*
%AMROTATEDRECTD16*
4,1,4,0.00070,-0.02575,-0.02575,0.00070,-0.00070,0.02575,0.02575,-0.00070,0.00070,-0.02575,0.0*
%
%ADD16ROTATEDRECTD16*%

G04:AMPARAMS|DCode=17|XSize=59.06mil|YSize=51.18mil|CornerRadius=0mil|HoleSize=0mil|Usage=FLASHONLY|Rotation=135.000|XOffset=0mil|YOffset=0mil|HoleType=Round|Shape=Rectangle|*
%AMROTATEDRECTD17*
4,1,4,0.03897,-0.00278,0.00278,-0.03897,-0.03897,0.00278,-0.00278,0.03897,0.03897,-0.00278,0.0*
%
%ADD17ROTATEDRECTD17*%

G04:AMPARAMS|DCode=18|XSize=35.43mil|YSize=37.4mil|CornerRadius=0mil|HoleSize=0mil|Usage=FLASHONLY|Rotation=135.000|XOffset=0mil|YOffset=0mil|HoleType=Round|Shape=Rectangle|*
%AMROTATEDRECTD18*
4,1,4,0.02575,0.00070,-0.00070,-0.02575,-0.02575,-0.00070,0.00070,0.02575,0.02575,0.00070,0.0*
%
%ADD18ROTATEDRECTD18*%

G04:AMPARAMS|DCode=19|XSize=35.43mil|YSize=37.4mil|CornerRadius=0mil|HoleSize=0mil|Usage=FLASHONLY|Rotation=135.000|XOffset=0mil|YOffset=0mil|HoleType=Round|Shape=Rectangle|*
%AMROTATEDRECTD19*
4,1,4,0.02575,0.00070,-0.00070,-0.02575,-0.02575,-0.00070,0.00070,0.02575,0.02575,0.00070,0.0*
%
%ADD19ROTATEDRECTD19*%

%ADD20R,0.07480X0.02756*%
%ADD21O,0.02362X0.00984*%
%ADD22O,0.00984X0.02362*%
%ADD23R,0.11024X0.10630*%
%ADD24R,0.05906X0.05118*%
%ADD25R,0.03543X0.03740*%
%ADD26R,0.03543X0.03740*%
%ADD27C,0.01063*%
%ADD28C,0.01378*%
%ADD29C,0.01181*%
%ADD30C,0.08268*%
%ADD31C,0.05906*%
%ADD32R,0.05906X0.05906*%
%ADD33R,0.05906X0.05906*%
%ADD34C,0.31496*%
%ADD35C,0.02362*%
%ADD36R,0.01575X0.03937*%
%ADD37R,0.01575X0.03937*%
%ADD38R,0.06000X0.06000*%
%ADD39R,0.03400X0.10000*%
%ADD40R,0.03400X0.05000*%
%ADD41R,0.05118X0.05906*%
%ADD42R,0.07874X0.05906*%
%ADD43C,0.08000*%
%ADD44C,0.01000*%
%ADD45C,0.00984*%
%ADD46C,0.02362*%
%ADD47C,0.00787*%
G04:AMPARAMS|DCode=48|XSize=86.74mil|YSize=55.24mil|CornerRadius=0mil|HoleSize=0mil|Usage=FLASHONLY|Rotation=45.000|XOffset=0mil|YOffset=0mil|HoleType=Round|Shape=Rectangle|*
%AMROTATEDRECTD48*
4,1,4,-0.01114,-0.05020,-0.05020,-0.01114,0.01114,0.05020,0.05020,0.01114,-0.01114,-0.05020,0.0*
%
%ADD48ROTATEDRECTD48*%

G04:AMPARAMS|DCode=49|XSize=86.74mil|YSize=55.24mil|CornerRadius=0mil|HoleSize=0mil|Usage=FLASHONLY|Rotation=315.000|XOffset=0mil|YOffset=0mil|HoleType=Round|Shape=Rectangle|*
%AMROTATEDRECTD49*
4,1,4,-0.05020,0.01114,-0.01114,0.05020,0.05020,-0.01114,0.01114,-0.05020,-0.05020,0.01114,0.0*
%
%ADD49ROTATEDRECTD49*%

%ADD50O,0.01981X0.09068*%
%ADD51O,0.09068X0.01981*%
G04:AMPARAMS|DCode=52|XSize=67.06mil|YSize=59.18mil|CornerRadius=0mil|HoleSize=0mil|Usage=FLASHONLY|Rotation=45.000|XOffset=0mil|YOffset=0mil|HoleType=Round|Shape=Rectangle|*
%AMROTATEDRECTD52*
4,1,4,-0.00278,-0.04463,-0.04463,-0.00278,0.00278,0.04463,0.04463,0.00278,-0.00278,-0.04463,0.0*
%
%ADD52ROTATEDRECTD52*%

G04:AMPARAMS|DCode=53|XSize=43.43mil|YSize=45.4mil|CornerRadius=0mil|HoleSize=0mil|Usage=FLASHONLY|Rotation=45.000|XOffset=0mil|YOffset=0mil|HoleType=Round|Shape=Rectangle|*
%AMROTATEDRECTD53*
4,1,4,0.00070,-0.03141,-0.03141,0.00070,-0.00070,0.03141,0.03141,-0.00070,0.00070,-0.03141,0.0*
%
%ADD53ROTATEDRECTD53*%

G04:AMPARAMS|DCode=54|XSize=43.43mil|YSize=45.4mil|CornerRadius=0mil|HoleSize=0mil|Usage=FLASHONLY|Rotation=45.000|XOffset=0mil|YOffset=0mil|HoleType=Round|Shape=Rectangle|*
%AMROTATEDRECTD54*
4,1,4,0.00070,-0.03141,-0.03141,0.00070,-0.00070,0.03141,0.03141,-0.00070,0.00070,-0.03141,0.0*
%
%ADD54ROTATEDRECTD54*%

G04:AMPARAMS|DCode=55|XSize=67.06mil|YSize=59.18mil|CornerRadius=0mil|HoleSize=0mil|Usage=FLASHONLY|Rotation=135.000|XOffset=0mil|YOffset=0mil|HoleType=Round|Shape=Rectangle|*
%AMROTATEDRECTD55*
4,1,4,0.04463,-0.00278,0.00278,-0.04463,-0.04463,0.00278,-0.00278,0.04463,0.04463,-0.00278,0.0*
%
%ADD55ROTATEDRECTD55*%

G04:AMPARAMS|DCode=56|XSize=43.43mil|YSize=45.4mil|CornerRadius=0mil|HoleSize=0mil|Usage=FLASHONLY|Rotation=135.000|XOffset=0mil|YOffset=0mil|HoleType=Round|Shape=Rectangle|*
%AMROTATEDRECTD56*
4,1,4,0.03141,0.00070,-0.00070,-0.03141,-0.03141,-0.00070,0.00070,0.03141,0.03141,0.00070,0.0*
%
%ADD56ROTATEDRECTD56*%

G04:AMPARAMS|DCode=57|XSize=43.43mil|YSize=45.4mil|CornerRadius=0mil|HoleSize=0mil|Usage=FLASHONLY|Rotation=135.000|XOffset=0mil|YOffset=0mil|HoleType=Round|Shape=Rectangle|*
%AMROTATEDRECTD57*
4,1,4,0.03141,0.00070,-0.00070,-0.03141,-0.03141,-0.00070,0.00070,0.03141,0.03141,0.00070,0.0*
%
%ADD57ROTATEDRECTD57*%

%ADD58R,0.08280X0.03556*%
%ADD59O,0.03162X0.01784*%
%ADD60O,0.01784X0.03162*%
%ADD61R,0.11824X0.11430*%
%ADD62R,0.06706X0.05918*%
%ADD63R,0.04343X0.04540*%
%ADD64R,0.04343X0.04540*%
%ADD65C,0.09068*%
%ADD66C,0.06706*%
%ADD67R,0.06706X0.06706*%
%ADD68R,0.06706X0.06706*%
%ADD69C,0.32296*%
%ADD70C,0.03162*%
%ADD71R,0.02375X0.04737*%
%ADD72R,0.02375X0.04737*%
%ADD73R,0.06800X0.06800*%
%ADD74R,0.04200X0.10800*%
%ADD75R,0.04200X0.05800*%
%ADD76R,0.05918X0.06706*%
%ADD77R,0.08674X0.06706*%
%ADD78C,0.00800*%
%ADD79C,0.00394*%
%ADD80C,0.00700*%
D44*
X337500Y827436D02*
Y824156D01*
X336844Y823500D01*
X335532D01*
X334876Y824156D01*
Y827436D01*
X333564Y826780D02*
X332908Y827436D01*
X331596D01*
X330940Y826780D01*
Y826124D01*
X331596Y825468D01*
X332252D01*
X331596D01*
X330940Y824812D01*
Y824156D01*
X331596Y823500D01*
X332908D01*
X333564Y824156D01*
X334500Y837002D02*
Y843000D01*
X365876Y841280D02*
X366532Y841936D01*
X367844D01*
X368500Y841280D01*
Y838656D01*
X367844Y838000D01*
X366532D01*
X365876Y838656D01*
X361940Y841936D02*
X363252Y841280D01*
X364564Y839968D01*
Y838656D01*
X363908Y838000D01*
X362596D01*
X361940Y838656D01*
Y839312D01*
X362596Y839968D01*
X364564D01*
X322000Y896500D02*
Y892564D01*
X323312Y893876D01*
X324624Y892564D01*
Y896500D01*
X328560Y892564D02*
X325936D01*
Y896500D01*
X328560D01*
X325936Y894532D02*
X327248D01*
X329872Y896500D02*
X331183D01*
X330527D01*
Y892564D01*
X329872Y893220D01*
X286564Y875000D02*
X290500D01*
Y872376D01*
Y868440D02*
Y871064D01*
X287876Y868440D01*
X287220D01*
X286564Y869096D01*
Y870408D01*
X287220Y871064D01*
X286564Y886000D02*
X290500D01*
Y883376D01*
Y882064D02*
Y880752D01*
Y881408D01*
X286564D01*
X287220Y882064D01*
X534283Y988217D02*
X531500Y991000D01*
X532892Y992391D01*
X533819D01*
X535674Y990536D01*
Y989608D01*
X534283Y988217D01*
Y993783D02*
X535211Y994711D01*
X534747Y994247D01*
X537530Y991464D01*
X536602D01*
Y996102D02*
X537530Y997030D01*
X537066Y996566D01*
X539849Y993783D01*
X538921D01*
X540601Y619965D02*
X537818Y617182D01*
X536426Y618574D01*
Y619501D01*
X538282Y621356D01*
X539210D01*
X540601Y619965D01*
X535499Y620429D02*
X534571D01*
X533643Y621356D01*
Y622284D01*
X535499Y624139D01*
X536426Y624139D01*
X537354Y623212D01*
Y622284D01*
X536890Y621820D01*
X535963Y621820D01*
X534571Y623212D01*
X217717Y624283D02*
X220500Y621500D01*
X219109Y620109D01*
X218181D01*
X216325Y621964D01*
Y622892D01*
X217717Y624283D01*
X214934Y621500D02*
X213079Y619645D01*
X213543Y619181D01*
X217253D01*
X217717Y618717D01*
X219283Y993783D02*
X216500Y991000D01*
X215108Y992391D01*
Y993319D01*
X216964Y995175D01*
X217892D01*
X219283Y993783D01*
X214645Y998421D02*
X216500Y996566D01*
X215108Y995175D01*
X214645Y996566D01*
X214181Y997030D01*
X213253D01*
X212326Y996102D01*
Y995175D01*
X213253Y994247D01*
X214181D01*
X312564Y895000D02*
X316500D01*
Y893032D01*
X315844Y892376D01*
X313220D01*
X312564Y893032D01*
Y895000D01*
X316500Y891064D02*
Y889752D01*
Y890408D01*
X312564D01*
X313220Y891064D01*
X288220Y895876D02*
X287564Y896532D01*
Y897844D01*
X288220Y898500D01*
X290844D01*
X291500Y897844D01*
Y896532D01*
X290844Y895876D01*
X288220Y894564D02*
X287564Y893908D01*
Y892596D01*
X288220Y891940D01*
X288876D01*
X289532Y892596D01*
X290188Y891940D01*
X290844D01*
X291500Y892596D01*
Y893908D01*
X290844Y894564D01*
X290188D01*
X289532Y893908D01*
X288876Y894564D01*
X288220D01*
X289532Y893908D02*
Y892596D01*
X313720Y840376D02*
X313064Y841032D01*
Y842344D01*
X313720Y843000D01*
X316344D01*
X317000Y842344D01*
Y841032D01*
X316344Y840376D01*
X313064Y839064D02*
Y836440D01*
X313720D01*
X316344Y839064D01*
X317000D01*
X293720Y840376D02*
X293064Y841032D01*
Y842344D01*
X293720Y843000D01*
X296344D01*
X297000Y842344D01*
Y841032D01*
X296344Y840376D01*
X293064Y836440D02*
Y839064D01*
X295032D01*
X294376Y837752D01*
Y837096D01*
X295032Y836440D01*
X296344D01*
X297000Y837096D01*
Y838408D01*
X296344Y839064D01*
X293720Y830376D02*
X293064Y831032D01*
Y832344D01*
X293720Y833000D01*
X296344D01*
X297000Y832344D01*
Y831032D01*
X296344Y830376D01*
X297000Y827096D02*
X293064D01*
X295032Y829064D01*
Y826440D01*
D47*
X328870Y820947D02*
G03*
X328870Y819077I0J-935D01*
G01*
X328870Y817500D02*
Y819077D01*
Y820947D02*
Y822500D01*
X317650D02*
X328870D01*
X317650Y817500D02*
Y822500D01*
Y817500D02*
X328870D01*
X352000Y844500D02*
X359500D01*
X352000Y835500D02*
X359500D01*
X336500D02*
X344000D01*
X336500Y844500D02*
X344000D01*
X359500Y835500D02*
Y844500D01*
X336500Y835500D02*
Y844500D01*
X187429Y986964D02*
X190964Y983429D01*
X552929Y993536D02*
X556464Y997071D01*
X198536Y617429D02*
X202071Y620964D01*
X564710Y631610D02*
X568246Y628074D01*
D78*
X325000Y868000D02*
X328000D01*
X338000D02*
X341000D01*
X325000D02*
Y881000D01*
X341000Y868000D02*
Y881000D01*
D79*
X292000Y875500D02*
X298000D01*
X292000Y867500D02*
Y875500D01*
Y867500D02*
X298000D01*
X301000D02*
X307000D01*
Y875500D01*
X301000D02*
X307000D01*
X292000Y887500D02*
X298000D01*
X292000Y879500D02*
Y887500D01*
Y879500D02*
X298000D01*
X301000D02*
X307000D01*
Y887500D01*
X301000D02*
X307000D01*
D80*
X315000Y879858D02*
X318937Y875921D01*
X311063D02*
X315000Y879858D01*
X311063D02*
X318937D01*
X311063Y875921D02*
X318937D01*
M02*
