%FSLAX25Y25*%
%MOIN*%
G70*
G01*
G75*
G04:AMPARAMS|DCode=10|XSize=78.74mil|YSize=47.24mil|CornerRadius=0mil|HoleSize=0mil|Usage=FLASHONLY|Rotation=45.000|XOffset=0mil|YOffset=0mil|HoleType=Round|Shape=Rectangle|*
%AMROTATEDRECTD10*
4,1,4,-0.01114,-0.04454,-0.04454,-0.01114,0.01114,0.04454,0.04454,0.01114,-0.01114,-0.04454,0.0*
%
%ADD10ROTATEDRECTD10*%

G04:AMPARAMS|DCode=11|XSize=78.74mil|YSize=47.24mil|CornerRadius=0mil|HoleSize=0mil|Usage=FLASHONLY|Rotation=315.000|XOffset=0mil|YOffset=0mil|HoleType=Round|Shape=Rectangle|*
%AMROTATEDRECTD11*
4,1,4,-0.04454,0.01114,-0.01114,0.04454,0.04454,-0.01114,0.01114,-0.04454,-0.04454,0.01114,0.0*
%
%ADD11ROTATEDRECTD11*%

%ADD12O,0.01181X0.08268*%
%ADD13O,0.08268X0.01181*%
G04:AMPARAMS|DCode=14|XSize=59.06mil|YSize=51.18mil|CornerRadius=0mil|HoleSize=0mil|Usage=FLASHONLY|Rotation=45.000|XOffset=0mil|YOffset=0mil|HoleType=Round|Shape=Rectangle|*
%AMROTATEDRECTD14*
4,1,4,-0.00278,-0.03897,-0.03897,-0.00278,0.00278,0.03897,0.03897,0.00278,-0.00278,-0.03897,0.0*
%
%ADD14ROTATEDRECTD14*%

G04:AMPARAMS|DCode=15|XSize=35.43mil|YSize=37.4mil|CornerRadius=0mil|HoleSize=0mil|Usage=FLASHONLY|Rotation=45.000|XOffset=0mil|YOffset=0mil|HoleType=Round|Shape=Rectangle|*
%AMROTATEDRECTD15*
4,1,4,0.00070,-0.02575,-0.02575,0.00070,-0.00070,0.02575,0.02575,-0.00070,0.00070,-0.02575,0.0*
%
%ADD15ROTATEDRECTD15*%

G04:AMPARAMS|DCode=16|XSize=35.43mil|YSize=37.4mil|CornerRadius=0mil|HoleSize=0mil|Usage=FLASHONLY|Rotation=45.000|XOffset=0mil|YOffset=0mil|HoleType=Round|Shape=Rectangle|*
%AMROTATEDRECTD16*
4,1,4,0.00070,-0.02575,-0.02575,0.00070,-0.00070,0.02575,0.02575,-0.00070,0.00070,-0.02575,0.0*
%
%ADD16ROTATEDRECTD16*%

G04:AMPARAMS|DCode=17|XSize=59.06mil|YSize=51.18mil|CornerRadius=0mil|HoleSize=0mil|Usage=FLASHONLY|Rotation=135.000|XOffset=0mil|YOffset=0mil|HoleType=Round|Shape=Rectangle|*
%AMROTATEDRECTD17*
4,1,4,0.03897,-0.00278,0.00278,-0.03897,-0.03897,0.00278,-0.00278,0.03897,0.03897,-0.00278,0.0*
%
%ADD17ROTATEDRECTD17*%

G04:AMPARAMS|DCode=18|XSize=35.43mil|YSize=37.4mil|CornerRadius=0mil|HoleSize=0mil|Usage=FLASHONLY|Rotation=135.000|XOffset=0mil|YOffset=0mil|HoleType=Round|Shape=Rectangle|*
%AMROTATEDRECTD18*
4,1,4,0.02575,0.00070,-0.00070,-0.02575,-0.02575,-0.00070,0.00070,0.02575,0.02575,0.00070,0.0*
%
%ADD18ROTATEDRECTD18*%

G04:AMPARAMS|DCode=19|XSize=35.43mil|YSize=37.4mil|CornerRadius=0mil|HoleSize=0mil|Usage=FLASHONLY|Rotation=135.000|XOffset=0mil|YOffset=0mil|HoleType=Round|Shape=Rectangle|*
%AMROTATEDRECTD19*
4,1,4,0.02575,0.00070,-0.00070,-0.02575,-0.02575,-0.00070,0.00070,0.02575,0.02575,0.00070,0.0*
%
%ADD19ROTATEDRECTD19*%

%ADD20R,0.07480X0.02756*%
%ADD21O,0.02362X0.00984*%
%ADD22O,0.00984X0.02362*%
%ADD23R,0.11024X0.10630*%
%ADD24R,0.05906X0.05118*%
%ADD25R,0.03543X0.03740*%
%ADD26R,0.03543X0.03740*%
%ADD27C,0.01063*%
%ADD28C,0.01378*%
%ADD29C,0.01181*%
%ADD30C,0.08268*%
%ADD31C,0.05906*%
%ADD32R,0.05906X0.05906*%
%ADD33R,0.05906X0.05906*%
%ADD34C,0.31496*%
%ADD35C,0.02362*%
%ADD36R,0.01575X0.03937*%
%ADD37R,0.01575X0.03937*%
%ADD38R,0.06000X0.06000*%
%ADD39R,0.03400X0.10000*%
%ADD40R,0.03400X0.05000*%
%ADD41R,0.05118X0.05906*%
%ADD42R,0.07874X0.05906*%
%ADD43C,0.08000*%
%ADD44C,0.01000*%
%ADD45C,0.00984*%
%ADD46C,0.02362*%
%ADD47C,0.00787*%
D44*
X360000Y740000D02*
G03*
X360000Y724000I0J-8000D01*
G01*
X388000D02*
G03*
X388000Y740000I0J8000D01*
G01*
X360000Y739994D02*
X388000D01*
X360000Y724026D02*
X388000D01*
X239017Y966904D02*
X241138Y969025D01*
X239017D02*
X241138Y966904D01*
X226996Y960540D02*
X234774Y968318D01*
X226996Y960540D02*
X232653Y954883D01*
X240431Y962661D01*
X234774Y968318D02*
X240431Y962661D01*
X223814Y957358D02*
X229471Y951701D01*
X221692Y943923D02*
X229471Y951701D01*
X216036Y949580D02*
X221692Y943923D01*
X216036Y949580D02*
X223814Y957358D01*
X215682Y945691D02*
X217803Y943569D01*
X536904Y944984D02*
X539025Y942862D01*
X536904D02*
X539025Y944984D01*
X530540Y957004D02*
X538318Y949226D01*
X524883Y951347D02*
X530540Y957004D01*
X524883Y951347D02*
X532661Y943569D01*
X538318Y949226D01*
X521701Y954529D02*
X527358Y960186D01*
X513923Y962308D02*
X521701Y954529D01*
X513923Y962308D02*
X519580Y967964D01*
X527358Y960186D01*
X513569Y966197D02*
X515691Y968318D01*
X215975Y671138D02*
X218096Y669017D01*
X215975D02*
X218096Y671138D01*
X216682Y664774D02*
X224460Y656996D01*
X230117Y662653D01*
X222339Y670431D02*
X230117Y662653D01*
X216682Y664774D02*
X222339Y670431D01*
X227642Y653814D02*
X233299Y659471D01*
X241077Y651692D01*
X235420Y646036D02*
X241077Y651692D01*
X227642Y653814D02*
X235420Y646036D01*
X239309Y645682D02*
X241431Y647803D01*
X513680Y645157D02*
X515802Y647278D01*
X513680D02*
X515802Y645157D01*
X520044Y645864D02*
X527822Y653642D01*
X522165Y659299D02*
X527822Y653642D01*
X514387Y651521D02*
X522165Y659299D01*
X514387Y651521D02*
X520044Y645864D01*
X525347Y662481D02*
X531004Y656824D01*
X525347Y662481D02*
X533126Y670259D01*
X538782Y664602D01*
X531004Y656824D02*
X538782Y664602D01*
X537015Y670613D02*
X539136Y668491D01*
X302000Y721000D02*
Y757220D01*
X315780D01*
Y721000D02*
Y757220D01*
X302000Y721000D02*
X315780D01*
X443000Y892000D02*
Y895936D01*
X444968D01*
X445624Y895280D01*
Y893968D01*
X444968Y893312D01*
X443000D01*
X448904Y895936D02*
X447592D01*
X446936Y895280D01*
Y892656D01*
X447592Y892000D01*
X448904D01*
X449560Y892656D01*
Y895280D01*
X448904Y895936D01*
X450872Y892000D02*
Y895936D01*
X452839D01*
X453495Y895280D01*
Y893968D01*
X452839Y893312D01*
X450872D01*
X452183D02*
X453495Y892000D01*
X454807Y895936D02*
X457431D01*
X456119D01*
Y892000D01*
X358500Y746436D02*
Y745780D01*
X359812Y744468D01*
X361124Y745780D01*
Y746436D01*
X359812Y744468D02*
Y742500D01*
X362436D02*
X363748D01*
X363092D01*
Y746436D01*
X362436Y745780D01*
X308624Y751780D02*
X307968Y752436D01*
X306656D01*
X306000Y751780D01*
Y751124D01*
X306656Y750468D01*
X307968D01*
X308624Y749812D01*
Y749156D01*
X307968Y748500D01*
X306656D01*
X306000Y749156D01*
X309936Y748500D02*
X311248D01*
X310592D01*
Y752436D01*
X309936Y751780D01*
X459000Y724500D02*
Y728436D01*
X460968D01*
X461624Y727780D01*
Y726468D01*
X460968Y725812D01*
X459000D01*
X460312D02*
X461624Y724500D01*
X462936Y727780D02*
X463592Y728436D01*
X464904D01*
X465560Y727780D01*
Y727124D01*
X464904Y726468D01*
X464248D01*
X464904D01*
X465560Y725812D01*
Y725156D01*
X464904Y724500D01*
X463592D01*
X462936Y725156D01*
X466872Y724500D02*
X468183D01*
X467527D01*
Y728436D01*
X466872Y727780D01*
X446500Y724500D02*
Y728436D01*
X448468D01*
X449124Y727780D01*
Y726468D01*
X448468Y725812D01*
X446500D01*
X447812D02*
X449124Y724500D01*
X450436Y727780D02*
X451092Y728436D01*
X452404D01*
X453060Y727780D01*
Y727124D01*
X452404Y726468D01*
X451748D01*
X452404D01*
X453060Y725812D01*
Y725156D01*
X452404Y724500D01*
X451092D01*
X450436Y725156D01*
X454372Y727780D02*
X455027Y728436D01*
X456339D01*
X456995Y727780D01*
Y725156D01*
X456339Y724500D01*
X455027D01*
X454372Y725156D01*
Y727780D01*
X485500Y943000D02*
X488283Y945783D01*
X489675Y944392D01*
Y943464D01*
X488747Y942536D01*
X487819D01*
X486428Y943928D01*
X487355Y943000D02*
Y941145D01*
X490138Y938362D02*
X488283Y940217D01*
X491994D01*
X492457Y940681D01*
X492457Y941609D01*
X491530Y942536D01*
X490602D01*
X491530Y937898D02*
Y936970D01*
X492457Y936042D01*
X493385Y936042D01*
X495240Y937898D01*
X495240Y938826D01*
X494313Y939753D01*
X493385D01*
X492921Y939289D01*
Y938362D01*
X494313Y936970D01*
X492318Y678182D02*
X495101Y675399D01*
X493710Y674008D01*
X492782D01*
X491854Y674935D01*
Y675863D01*
X493246Y677254D01*
X492318Y676327D02*
X490463D01*
X487680Y673544D02*
X489535Y675399D01*
Y671688D01*
X489999Y671224D01*
X490927Y671224D01*
X491854Y672152D01*
Y673080D01*
X489071Y670297D02*
Y669369D01*
X488143Y668441D01*
X487216Y668442D01*
X486752Y668905D01*
Y669833D01*
X485824Y669833D01*
X485360Y670297D01*
X485360Y671224D01*
X486288Y672152D01*
X487216D01*
X487680Y671688D01*
Y670761D01*
X488607D01*
X489071Y670297D01*
X487680Y670761D02*
X486752Y669833D01*
X262500Y674500D02*
X265283Y677283D01*
X266674Y675891D01*
Y674964D01*
X265747Y674036D01*
X264819D01*
X263428Y675428D01*
X264355Y674500D02*
Y672645D01*
X267138Y669862D02*
X265283Y671717D01*
X268994D01*
X269458Y672181D01*
X269458Y673108D01*
X268530Y674036D01*
X267602D01*
X270849Y671717D02*
X272704Y669862D01*
X272240Y669398D01*
X268530D01*
X268066Y668934D01*
X240000Y914500D02*
X237217Y917283D01*
X238609Y918674D01*
X239536D01*
X240464Y917747D01*
Y916819D01*
X239072Y915428D01*
X240000Y916355D02*
X241855D01*
X244638Y919138D02*
X242783Y917283D01*
Y920994D01*
X242319Y921457D01*
X241391Y921457D01*
X240464Y920530D01*
Y919602D01*
X244638Y924704D02*
X244175Y923313D01*
Y921457D01*
X245102Y920530D01*
X246030D01*
X246957Y921457D01*
X246957Y922385D01*
X246494Y922849D01*
X245566Y922849D01*
X244175Y921457D01*
X507000Y922500D02*
X509783Y925283D01*
X511174Y923892D01*
Y922964D01*
X510247Y922036D01*
X509319D01*
X507928Y923428D01*
X508855Y922500D02*
Y920645D01*
X511638Y917862D02*
X509783Y919717D01*
X513494D01*
X513958Y920181D01*
X513958Y921109D01*
X513030Y922036D01*
X512102D01*
X517204Y917862D02*
X515349Y919717D01*
X513958Y918326D01*
X515349Y917862D01*
X515813Y917398D01*
Y916470D01*
X514885Y915543D01*
X513958Y915543D01*
X513030Y916470D01*
Y917398D01*
X514818Y699682D02*
X517601Y696899D01*
X516210Y695507D01*
X515282D01*
X514354Y696435D01*
Y697363D01*
X515746Y698754D01*
X514818Y697827D02*
X512963D01*
X510180Y695044D02*
X512035Y696899D01*
Y693188D01*
X512499Y692725D01*
X513426Y692725D01*
X514354Y693652D01*
Y694580D01*
X507861Y692725D02*
X510643Y689942D01*
Y692725D01*
X508788Y690869D01*
X240000Y695500D02*
X242783Y698283D01*
X244175Y696891D01*
Y695964D01*
X243247Y695036D01*
X242319D01*
X240928Y696428D01*
X241855Y695500D02*
Y693645D01*
X244638Y690862D02*
X242783Y692717D01*
X246494D01*
X246957Y693181D01*
X246957Y694108D01*
X246030Y695036D01*
X245102D01*
X247885Y692253D02*
X248813D01*
X249741Y691326D01*
X249741Y690398D01*
X249277Y689934D01*
X248349D01*
X247885Y690398D01*
X248349Y689934D01*
X248349Y689006D01*
X247885Y688543D01*
X246957Y688543D01*
X246030Y689470D01*
Y690398D01*
X261500Y936000D02*
X258717Y938783D01*
X260108Y940174D01*
X261036D01*
X261964Y939247D01*
Y938319D01*
X260572Y936928D01*
X261500Y937855D02*
X263355D01*
X266138Y940638D02*
X264283Y938783D01*
Y942494D01*
X263819Y942957D01*
X262892Y942957D01*
X261964Y942030D01*
Y941102D01*
X268921Y943421D02*
X267066Y941566D01*
Y945277D01*
X266602Y945741D01*
X265674Y945741D01*
X264747Y944813D01*
Y943885D01*
X506500Y946500D02*
X503717Y949283D01*
X505108Y950675D01*
X506036D01*
X506964Y949747D01*
Y948819D01*
X505572Y947428D01*
X506500Y948355D02*
X508355D01*
X511138Y951138D02*
X509283Y949283D01*
Y952994D01*
X508819Y953458D01*
X507892Y953458D01*
X506964Y952530D01*
Y951602D01*
X512066Y952066D02*
X512994Y952994D01*
X512530Y952530D01*
X509747Y955313D01*
Y954385D01*
X521000Y934000D02*
X518217Y936783D01*
X519608Y938175D01*
X520536D01*
X521464Y937247D01*
Y936319D01*
X520072Y934928D01*
X521000Y935855D02*
X522855D01*
X525638Y938638D02*
X523783Y936783D01*
Y940494D01*
X523319Y940958D01*
X522392Y940958D01*
X521464Y940030D01*
Y939102D01*
X524247Y941885D02*
Y942813D01*
X525175Y943740D01*
X526102Y943740D01*
X527957Y941885D01*
X527957Y940958D01*
X527030Y940030D01*
X526102D01*
X524247Y941885D01*
X528818Y673682D02*
X526035Y670899D01*
X524644Y672291D01*
Y673218D01*
X525571Y674146D01*
X526499D01*
X527890Y672754D01*
X526963Y673682D02*
Y675537D01*
X526035Y676465D02*
X525107Y677393D01*
X525571Y676929D01*
X522788Y674146D01*
X523716D01*
X523252Y678320D02*
Y679248D01*
X522324Y680176D01*
X521397Y680176D01*
X519541Y678320D01*
X519541Y677393D01*
X520469Y676465D01*
X521397D01*
X521861Y676929D01*
X521861Y677856D01*
X520469Y679248D01*
X504318Y663682D02*
X507101Y666465D01*
X508493Y665073D01*
Y664146D01*
X507565Y663218D01*
X506637D01*
X505246Y664610D01*
X506173Y663682D02*
Y661827D01*
X507101Y660899D02*
X508029Y659971D01*
X507565Y660435D01*
X510348Y663218D01*
X509420D01*
X511739Y660899D02*
X512667D01*
X513595Y659971D01*
X513595Y659044D01*
X513131Y658580D01*
X512203D01*
X512203Y657652D01*
X511739Y657188D01*
X510812Y657188D01*
X509884Y658116D01*
Y659044D01*
X510348Y659508D01*
X511275D01*
X511275Y660435D01*
X511739Y660899D01*
X511275Y659508D02*
X512203Y658580D01*
X244500Y657500D02*
X241717Y660283D01*
X243109Y661674D01*
X244036D01*
X244964Y660747D01*
Y659819D01*
X243572Y658428D01*
X244500Y659355D02*
X246355D01*
X247283Y660283D02*
X248211Y661211D01*
X247747Y660747D01*
X244964Y663530D01*
Y662602D01*
X246819Y665385D02*
X248675Y667240D01*
X249138Y666777D01*
Y663066D01*
X249602Y662602D01*
X230000Y671000D02*
X227217Y673783D01*
X228608Y675175D01*
X229536D01*
X230464Y674247D01*
Y673319D01*
X229072Y671928D01*
X230000Y672855D02*
X231855D01*
X232783Y673783D02*
X233711Y674711D01*
X233247Y674247D01*
X230464Y677030D01*
Y676102D01*
X234174Y680740D02*
X233711Y679349D01*
Y677494D01*
X234638Y676566D01*
X235566D01*
X236494Y677494D01*
X236494Y678421D01*
X236030Y678885D01*
X235102Y678885D01*
X233711Y677494D01*
X228500Y939000D02*
X231283Y941783D01*
X232675Y940392D01*
Y939464D01*
X231747Y938536D01*
X230819D01*
X229428Y939928D01*
X230355Y939000D02*
Y937145D01*
X231283Y936217D02*
X232211Y935289D01*
X231747Y935753D01*
X234530Y938536D01*
X233602D01*
X238241Y934826D02*
X236385Y936681D01*
X234994Y935289D01*
X236385Y934826D01*
X236849Y934362D01*
Y933434D01*
X235921Y932506D01*
X234994Y932506D01*
X234066Y933434D01*
Y934362D01*
X241500Y953000D02*
X244283Y955783D01*
X245674Y954391D01*
Y953464D01*
X244747Y952536D01*
X243819D01*
X242428Y953928D01*
X243355Y953000D02*
Y951145D01*
X244283Y950217D02*
X245211Y949289D01*
X244747Y949753D01*
X247530Y952536D01*
X246602D01*
X247994Y946506D02*
X250777Y949289D01*
X247994D01*
X249849Y947434D01*
X416500Y890500D02*
Y894436D01*
X418468D01*
X419124Y893780D01*
Y892468D01*
X418468Y891812D01*
X416500D01*
X417812D02*
X419124Y890500D01*
X420436D02*
X421748D01*
X421092D01*
Y894436D01*
X420436Y893780D01*
X426339Y890500D02*
X423715D01*
X426339Y893124D01*
Y893780D01*
X425683Y894436D01*
X424371D01*
X423715Y893780D01*
X404000Y890500D02*
Y894436D01*
X405968D01*
X406624Y893780D01*
Y892468D01*
X405968Y891812D01*
X404000D01*
X405312D02*
X406624Y890500D01*
X407936D02*
X409248D01*
X408592D01*
Y894436D01*
X407936Y893780D01*
X411215D02*
X411871Y894436D01*
X413183D01*
X413839Y893780D01*
Y893124D01*
X413183Y892468D01*
X412527D01*
X413183D01*
X413839Y891812D01*
Y891156D01*
X413183Y890500D01*
X411871D01*
X411215Y891156D01*
X432500Y840000D02*
Y843936D01*
X434468D01*
X435124Y843280D01*
Y841968D01*
X434468Y841312D01*
X432500D01*
X433812D02*
X435124Y840000D01*
X436436D02*
X437748D01*
X437092D01*
Y843936D01*
X436436Y843280D01*
X439715Y840000D02*
X441027D01*
X440372D01*
Y843936D01*
X439715Y843280D01*
X448500Y764000D02*
Y767936D01*
X450468D01*
X451124Y767280D01*
Y765968D01*
X450468Y765312D01*
X448500D01*
X449812D02*
X451124Y764000D01*
X452436D02*
X453748D01*
X453092D01*
Y767936D01*
X452436Y767280D01*
X455716D02*
X456371Y767936D01*
X457683D01*
X458339Y767280D01*
Y764656D01*
X457683Y764000D01*
X456371D01*
X455716Y764656D01*
Y767280D01*
X439000Y764000D02*
Y767936D01*
X440968D01*
X441624Y767280D01*
Y765968D01*
X440968Y765312D01*
X439000D01*
X440312D02*
X441624Y764000D01*
X442936Y764656D02*
X443592Y764000D01*
X444904D01*
X445560Y764656D01*
Y767280D01*
X444904Y767936D01*
X443592D01*
X442936Y767280D01*
Y766624D01*
X443592Y765968D01*
X445560D01*
X429500Y764000D02*
Y767936D01*
X431468D01*
X432124Y767280D01*
Y765968D01*
X431468Y765312D01*
X429500D01*
X430812D02*
X432124Y764000D01*
X433436Y767280D02*
X434092Y767936D01*
X435404D01*
X436060Y767280D01*
Y766624D01*
X435404Y765968D01*
X436060Y765312D01*
Y764656D01*
X435404Y764000D01*
X434092D01*
X433436Y764656D01*
Y765312D01*
X434092Y765968D01*
X433436Y766624D01*
Y767280D01*
X434092Y765968D02*
X435404D01*
X424000Y840000D02*
Y843936D01*
X425968D01*
X426624Y843280D01*
Y841968D01*
X425968Y841312D01*
X424000D01*
X425312D02*
X426624Y840000D01*
X427936Y843936D02*
X430560D01*
Y843280D01*
X427936Y840656D01*
Y840000D01*
X447500Y819500D02*
Y823436D01*
X449468D01*
X450124Y822780D01*
Y821468D01*
X449468Y820812D01*
X447500D01*
X448812D02*
X450124Y819500D01*
X454060Y823436D02*
X452748Y822780D01*
X451436Y821468D01*
Y820156D01*
X452092Y819500D01*
X453404D01*
X454060Y820156D01*
Y820812D01*
X453404Y821468D01*
X451436D01*
X321000Y818000D02*
Y821936D01*
X322968D01*
X323624Y821280D01*
Y819968D01*
X322968Y819312D01*
X321000D01*
X322312D02*
X323624Y818000D01*
X327560Y821936D02*
X324936D01*
Y819968D01*
X326248Y820624D01*
X326904D01*
X327560Y819968D01*
Y818656D01*
X326904Y818000D01*
X325592D01*
X324936Y818656D01*
X457000Y819500D02*
Y823436D01*
X458968D01*
X459624Y822780D01*
Y821468D01*
X458968Y820812D01*
X457000D01*
X458312D02*
X459624Y819500D01*
X462904D02*
Y823436D01*
X460936Y821468D01*
X463560D01*
X330500Y794000D02*
Y797936D01*
X332468D01*
X333124Y797280D01*
Y795968D01*
X332468Y795312D01*
X330500D01*
X331812D02*
X333124Y794000D01*
X334436Y797280D02*
X335092Y797936D01*
X336404D01*
X337060Y797280D01*
Y796624D01*
X336404Y795968D01*
X335748D01*
X336404D01*
X337060Y795312D01*
Y794656D01*
X336404Y794000D01*
X335092D01*
X334436Y794656D01*
X457500Y839500D02*
Y843436D01*
X459468D01*
X460124Y842780D01*
Y841468D01*
X459468Y840812D01*
X457500D01*
X458812D02*
X460124Y839500D01*
X464060D02*
X461436D01*
X464060Y842124D01*
Y842780D01*
X463404Y843436D01*
X462092D01*
X461436Y842780D01*
X322000Y794240D02*
Y798176D01*
X323968D01*
X324624Y797520D01*
Y796208D01*
X323968Y795552D01*
X322000D01*
X323312D02*
X324624Y794240D01*
X325936D02*
X327248D01*
X326592D01*
Y798176D01*
X325936Y797520D01*
X482124Y725656D02*
Y728280D01*
X481468Y728936D01*
X480156D01*
X479500Y728280D01*
Y725656D01*
X480156Y725000D01*
X481468D01*
X480812Y726312D02*
X482124Y725000D01*
X481468D02*
X482124Y725656D01*
X486060Y728936D02*
X483436D01*
Y726968D01*
X484748Y727624D01*
X485404D01*
X486060Y726968D01*
Y725656D01*
X485404Y725000D01*
X484092D01*
X483436Y725656D01*
X513624Y942156D02*
Y944780D01*
X512968Y945436D01*
X511656D01*
X511000Y944780D01*
Y942156D01*
X511656Y941500D01*
X512968D01*
X512312Y942812D02*
X513624Y941500D01*
X512968D02*
X513624Y942156D01*
X516904Y941500D02*
Y945436D01*
X514936Y943468D01*
X517560D01*
X513442Y669338D02*
Y671962D01*
X512786Y672618D01*
X511474D01*
X510818Y671962D01*
Y669338D01*
X511474Y668682D01*
X512786D01*
X512130Y669994D02*
X513442Y668682D01*
X512786D02*
X513442Y669338D01*
X514754Y671962D02*
X515410Y672618D01*
X516722D01*
X517378Y671962D01*
Y671306D01*
X516722Y670650D01*
X516066D01*
X516722D01*
X517378Y669994D01*
Y669338D01*
X516722Y668682D01*
X515410D01*
X514754Y669338D01*
X240124Y669156D02*
Y671780D01*
X239468Y672436D01*
X238156D01*
X237500Y671780D01*
Y669156D01*
X238156Y668500D01*
X239468D01*
X238812Y669812D02*
X240124Y668500D01*
X239468D02*
X240124Y669156D01*
X244060Y668500D02*
X241436D01*
X244060Y671124D01*
Y671780D01*
X243404Y672436D01*
X242092D01*
X241436Y671780D01*
X240624Y942156D02*
Y944780D01*
X239968Y945436D01*
X238656D01*
X238000Y944780D01*
Y942156D01*
X238656Y941500D01*
X239968D01*
X239312Y942812D02*
X240624Y941500D01*
X239968D02*
X240624Y942156D01*
X241936Y941500D02*
X243248D01*
X242592D01*
Y945436D01*
X241936Y944780D01*
X313000Y798000D02*
X316936D01*
Y796032D01*
X316280Y795376D01*
X314968D01*
X314312Y796032D01*
Y798000D01*
X316936Y792096D02*
Y793408D01*
X316280Y794064D01*
X313656D01*
X313000Y793408D01*
Y792096D01*
X313656Y791440D01*
X316280D01*
X316936Y792096D01*
Y790129D02*
X313000D01*
X314312Y788817D01*
X313000Y787505D01*
X316936D01*
Y783569D02*
Y786193D01*
X313000D01*
Y783569D01*
X314968Y786193D02*
Y784881D01*
X313000Y782257D02*
X316936D01*
Y780289D01*
X316280Y779633D01*
X314968D01*
X314312Y780289D01*
Y782257D01*
Y780945D02*
X313000Y779633D01*
X351600Y768336D02*
Y764400D01*
X353568D01*
X354224Y765056D01*
Y765712D01*
X353568Y766368D01*
X351600D01*
X353568D01*
X354224Y767024D01*
Y767680D01*
X353568Y768336D01*
X351600D01*
X355536Y764400D02*
Y768336D01*
X356848Y767024D01*
X358160Y768336D01*
Y764400D01*
X359472D02*
Y768336D01*
X361439D01*
X362095Y767680D01*
Y766368D01*
X361439Y765712D01*
X359472D01*
X366031Y764400D02*
X363407D01*
X366031Y767024D01*
Y767680D01*
X365375Y768336D01*
X364063D01*
X363407Y767680D01*
X367343D02*
X367999Y768336D01*
X369311D01*
X369967Y767680D01*
Y767024D01*
X369311Y766368D01*
X369967Y765712D01*
Y765056D01*
X369311Y764400D01*
X367999D01*
X367343Y765056D01*
Y765712D01*
X367999Y766368D01*
X367343Y767024D01*
Y767680D01*
X367999Y766368D02*
X369311D01*
X371279Y767680D02*
X371935Y768336D01*
X373247D01*
X373903Y767680D01*
Y765056D01*
X373247Y764400D01*
X371935D01*
X371279Y765056D01*
Y767680D01*
X490283Y926783D02*
X487500Y924000D01*
X488892Y922608D01*
X489819D01*
X491675Y924464D01*
Y925391D01*
X490283Y926783D01*
Y921217D02*
X491211Y920289D01*
X490747Y920753D01*
X493530Y923536D01*
X492602D01*
X494457Y917043D02*
X492602Y918898D01*
X496313D01*
X496777Y919362D01*
X496777Y920289D01*
X495849Y921217D01*
X494921D01*
X497101Y693899D02*
X494318Y696682D01*
X492927Y695291D01*
Y694363D01*
X494782Y692508D01*
X495710D01*
X497101Y693899D01*
X491535D02*
X490607Y692971D01*
X491071Y693435D01*
X493854Y690652D01*
Y691580D01*
X491535Y689261D02*
Y688333D01*
X490607Y687405D01*
X489680Y687405D01*
X487824Y689261D01*
X487824Y690188D01*
X488752Y691116D01*
X489680D01*
X491535Y689261D01*
X265217Y687717D02*
X268000Y690500D01*
X266609Y691891D01*
X265681D01*
X263825Y690036D01*
Y689109D01*
X265217Y687717D01*
X262898Y690964D02*
X261970D01*
X261042Y691891D01*
X261042Y692819D01*
X261506Y693283D01*
X262434D01*
X262434Y694211D01*
X262898Y694674D01*
X263825D01*
X264753Y693747D01*
Y692819D01*
X264289Y692355D01*
X263362D01*
X263362Y691428D01*
X262898Y690964D01*
X263362Y692355D02*
X262434Y693283D01*
X259717Y921283D02*
X262500Y918500D01*
X263892Y919891D01*
Y920819D01*
X262036Y922674D01*
X261108D01*
X259717Y921283D01*
X264355Y925921D02*
X263892Y924530D01*
Y922674D01*
X264819Y921747D01*
X265747D01*
X266674Y922674D01*
Y923602D01*
X266211Y924066D01*
X265283Y924066D01*
X263892Y922674D01*
X448500Y797936D02*
Y794000D01*
X450468D01*
X451124Y794656D01*
Y797280D01*
X450468Y797936D01*
X448500D01*
X454404Y794000D02*
Y797936D01*
X452436Y795968D01*
X455060D01*
X438500Y797936D02*
Y794000D01*
X440468D01*
X441124Y794656D01*
Y797280D01*
X440468Y797936D01*
X438500D01*
X442436Y797280D02*
X443092Y797936D01*
X444404D01*
X445060Y797280D01*
Y796624D01*
X444404Y795968D01*
X443748D01*
X444404D01*
X445060Y795312D01*
Y794656D01*
X444404Y794000D01*
X443092D01*
X442436Y794656D01*
X429000Y797936D02*
Y794000D01*
X430968D01*
X431624Y794656D01*
Y797280D01*
X430968Y797936D01*
X429000D01*
X435560Y794000D02*
X432936D01*
X435560Y796624D01*
Y797280D01*
X434904Y797936D01*
X433592D01*
X432936Y797280D01*
X434124Y741780D02*
X433468Y742436D01*
X432156D01*
X431500Y741780D01*
Y739156D01*
X432156Y738500D01*
X433468D01*
X434124Y739156D01*
X435436Y738500D02*
X436748D01*
X436092D01*
Y742436D01*
X435436Y741780D01*
X438716D02*
X439371Y742436D01*
X440683D01*
X441339Y741780D01*
Y741124D01*
X440683Y740468D01*
X441339Y739812D01*
Y739156D01*
X440683Y738500D01*
X439371D01*
X438716Y739156D01*
Y739812D01*
X439371Y740468D01*
X438716Y741124D01*
Y741780D01*
X439371Y740468D02*
X440683D01*
X422124Y741780D02*
X421468Y742436D01*
X420156D01*
X419500Y741780D01*
Y739156D01*
X420156Y738500D01*
X421468D01*
X422124Y739156D01*
X423436Y738500D02*
X424748D01*
X424092D01*
Y742436D01*
X423436Y741780D01*
X426716Y742436D02*
X429339D01*
Y741780D01*
X426716Y739156D01*
Y738500D01*
X433624Y822780D02*
X432968Y823436D01*
X431656D01*
X431000Y822780D01*
Y820156D01*
X431656Y819500D01*
X432968D01*
X433624Y820156D01*
X434936Y819500D02*
X436248D01*
X435592D01*
Y823436D01*
X434936Y822780D01*
X440839Y823436D02*
X439527Y822780D01*
X438215Y821468D01*
Y820156D01*
X438871Y819500D01*
X440183D01*
X440839Y820156D01*
Y820812D01*
X440183Y821468D01*
X438215D01*
X332528Y774911D02*
X331872Y775567D01*
X330560D01*
X329904Y774911D01*
Y772288D01*
X330560Y771632D01*
X331872D01*
X332528Y772288D01*
X333840Y771632D02*
X335152D01*
X334495D01*
Y775567D01*
X333840Y774911D01*
X339743Y775567D02*
X337119D01*
Y773600D01*
X338431Y774256D01*
X339087D01*
X339743Y773600D01*
Y772288D01*
X339087Y771632D01*
X337775D01*
X337119Y772288D01*
X335624Y865780D02*
X334968Y866436D01*
X333656D01*
X333000Y865780D01*
Y863156D01*
X333656Y862500D01*
X334968D01*
X335624Y863156D01*
X336936Y862500D02*
X338248D01*
X337592D01*
Y866436D01*
X336936Y865780D01*
X342183Y862500D02*
Y866436D01*
X340215Y864468D01*
X342839D01*
X448124Y842780D02*
X447468Y843436D01*
X446156D01*
X445500Y842780D01*
Y840156D01*
X446156Y839500D01*
X447468D01*
X448124Y840156D01*
X449436Y839500D02*
X450748D01*
X450092D01*
Y843436D01*
X449436Y842780D01*
X452715D02*
X453371Y843436D01*
X454683D01*
X455339Y842780D01*
Y842124D01*
X454683Y841468D01*
X454027D01*
X454683D01*
X455339Y840812D01*
Y840156D01*
X454683Y839500D01*
X453371D01*
X452715Y840156D01*
X303624Y865040D02*
X302968Y865695D01*
X301656D01*
X301000Y865040D01*
Y862416D01*
X301656Y861760D01*
X302968D01*
X303624Y862416D01*
X304936Y861760D02*
X306248D01*
X305592D01*
Y865695D01*
X304936Y865040D01*
X310839Y861760D02*
X308215D01*
X310839Y864384D01*
Y865040D01*
X310183Y865695D01*
X308872D01*
X308215Y865040D01*
X292624D02*
X291968Y865695D01*
X290656D01*
X290000Y865040D01*
Y862416D01*
X290656Y861760D01*
X291968D01*
X292624Y862416D01*
X293936Y861760D02*
X295248D01*
X294592D01*
Y865695D01*
X293936Y865040D01*
X297216Y861760D02*
X298527D01*
X297871D01*
Y865695D01*
X297216Y865040D01*
X332624Y821280D02*
X331968Y821936D01*
X330656D01*
X330000Y821280D01*
Y818656D01*
X330656Y818000D01*
X331968D01*
X332624Y818656D01*
X333936Y818000D02*
X335248D01*
X334592D01*
Y821936D01*
X333936Y821280D01*
X337215D02*
X337872Y821936D01*
X339183D01*
X339839Y821280D01*
Y818656D01*
X339183Y818000D01*
X337872D01*
X337215Y818656D01*
Y821280D01*
X325624Y865040D02*
X324968Y865695D01*
X323656D01*
X323000Y865040D01*
Y862416D01*
X323656Y861760D01*
X324968D01*
X325624Y862416D01*
X326936D02*
X327592Y861760D01*
X328904D01*
X329560Y862416D01*
Y865040D01*
X328904Y865695D01*
X327592D01*
X326936Y865040D01*
Y864384D01*
X327592Y863728D01*
X329560D01*
X316124Y865040D02*
X315468Y865695D01*
X314156D01*
X313500Y865040D01*
Y862416D01*
X314156Y861760D01*
X315468D01*
X316124Y862416D01*
X317436Y865040D02*
X318092Y865695D01*
X319404D01*
X320060Y865040D01*
Y864384D01*
X319404Y863728D01*
X318748D01*
X319404D01*
X320060Y863072D01*
Y862416D01*
X319404Y861760D01*
X318092D01*
X317436Y862416D01*
X409124Y743780D02*
X408468Y744436D01*
X407156D01*
X406500Y743780D01*
Y741156D01*
X407156Y740500D01*
X408468D01*
X409124Y741156D01*
X413060Y740500D02*
X410436D01*
X413060Y743124D01*
Y743780D01*
X412404Y744436D01*
X411092D01*
X410436Y743780D01*
X339624D02*
X338968Y744436D01*
X337656D01*
X337000Y743780D01*
Y741156D01*
X337656Y740500D01*
X338968D01*
X339624Y741156D01*
X340936Y740500D02*
X342248D01*
X341592D01*
Y744436D01*
X340936Y743780D01*
X190000Y971500D02*
X186064D01*
X187376Y972812D01*
X186064Y974124D01*
X190000D01*
X186720Y978060D02*
X186064Y977404D01*
Y976092D01*
X186720Y975436D01*
X189344D01*
X190000Y976092D01*
Y977404D01*
X189344Y978060D01*
X188032D01*
Y976748D01*
X190000Y979371D02*
Y980683D01*
Y980027D01*
X186064D01*
X186720Y979371D01*
X191000Y635500D02*
X187064D01*
X188376Y636812D01*
X187064Y638124D01*
X191000D01*
X187720Y642060D02*
X187064Y641404D01*
Y640092D01*
X187720Y639436D01*
X190344D01*
X191000Y640092D01*
Y641404D01*
X190344Y642060D01*
X189032D01*
Y640748D01*
X191000Y645995D02*
Y643371D01*
X188376Y645995D01*
X187720D01*
X187064Y645339D01*
Y644027D01*
X187720Y643371D01*
X564818Y642682D02*
X568754D01*
X567442Y641370D01*
X568754Y640058D01*
X564818D01*
X568098Y636122D02*
X568754Y636778D01*
Y638090D01*
X568098Y638746D01*
X565474D01*
X564818Y638090D01*
Y636778D01*
X565474Y636122D01*
X566786D01*
Y637434D01*
X568098Y634810D02*
X568754Y634155D01*
Y632843D01*
X568098Y632187D01*
X567442D01*
X566786Y632843D01*
Y633499D01*
Y632843D01*
X566130Y632187D01*
X565474D01*
X564818Y632843D01*
Y634155D01*
X565474Y634810D01*
X564000Y978500D02*
X567936D01*
X566624Y977188D01*
X567936Y975876D01*
X564000D01*
X567280Y971940D02*
X567936Y972596D01*
Y973908D01*
X567280Y974564D01*
X564656D01*
X564000Y973908D01*
Y972596D01*
X564656Y971940D01*
X565968D01*
Y973252D01*
X564000Y968661D02*
X567936D01*
X565968Y970629D01*
Y968005D01*
X356500Y871936D02*
Y868000D01*
X357812Y869312D01*
X359124Y868000D01*
Y871936D01*
X360436Y868000D02*
X361748D01*
X361092D01*
Y870624D01*
X360436D01*
X364371Y868000D02*
Y871280D01*
Y869968D01*
X363716D01*
X365027D01*
X364371D01*
Y871280D01*
X365027Y871936D01*
X366995Y868000D02*
X368307D01*
X367651D01*
Y870624D01*
X366995D01*
X407124Y856000D02*
X404500D01*
X407124Y858624D01*
Y859280D01*
X406468Y859936D01*
X405156D01*
X404500Y859280D01*
X408436D02*
X409092Y859936D01*
X410404D01*
X411060Y859280D01*
Y856656D01*
X410404Y856000D01*
X409092D01*
X408436Y856656D01*
Y859280D01*
X412371Y856000D02*
X413683D01*
X413027D01*
Y859936D01*
X412371Y859280D01*
X415651Y859936D02*
X418275D01*
Y859280D01*
X415651Y856656D01*
Y856000D01*
X419587D02*
Y856656D01*
X420243D01*
Y856000D01*
X419587D01*
X422867D02*
X424179D01*
X423523D01*
Y859936D01*
X422867Y859280D01*
X426147Y856000D02*
X427458D01*
X426802D01*
Y859936D01*
X426147Y859280D01*
X429426Y856000D02*
Y856656D01*
X430082D01*
Y856000D01*
X429426D01*
X432706D02*
X434018D01*
X433362D01*
Y859936D01*
X432706Y859280D01*
X383124Y866280D02*
X382468Y866936D01*
X381156D01*
X380500Y866280D01*
Y865624D01*
X381156Y864968D01*
X382468D01*
X383124Y864312D01*
Y863656D01*
X382468Y863000D01*
X381156D01*
X380500Y863656D01*
X387060Y865624D02*
X385092D01*
X384436Y864968D01*
Y863656D01*
X385092Y863000D01*
X387060D01*
X388371Y866936D02*
Y863000D01*
Y864968D01*
X389027Y865624D01*
X390339D01*
X390995Y864968D01*
Y863000D01*
X392307D02*
Y863656D01*
X392963D01*
Y863000D01*
X392307D01*
X399523Y866936D02*
Y863000D01*
X401491D01*
X402147Y863656D01*
Y864312D01*
Y864968D01*
X401491Y865624D01*
X399523D01*
X403458D02*
Y863656D01*
X404114Y863000D01*
X406082D01*
Y862344D01*
X405426Y861688D01*
X404770D01*
X406082Y863000D02*
Y865624D01*
X411330Y866936D02*
Y863000D01*
X412642Y864312D01*
X413954Y863000D01*
Y866936D01*
X417234Y863000D02*
X415922D01*
X415266Y863656D01*
Y864968D01*
X415922Y865624D01*
X417234D01*
X417889Y864968D01*
Y864312D01*
X415266D01*
X419201Y863000D02*
Y865624D01*
X421169D01*
X421825Y864968D01*
Y863000D01*
X423137Y866936D02*
Y863000D01*
Y864968D01*
X423793Y865624D01*
X425105D01*
X425761Y864968D01*
Y863000D01*
X427729Y865624D02*
X429041D01*
X429697Y864968D01*
Y863000D01*
X427729D01*
X427073Y863656D01*
X427729Y864312D01*
X429697D01*
X431665Y863000D02*
X432976D01*
X433633Y863656D01*
Y864968D01*
X432976Y865624D01*
X431665D01*
X431009Y864968D01*
Y863656D01*
X431665Y863000D01*
X296500Y754000D02*
X297812D01*
X297156D01*
Y757936D01*
X296500Y757280D01*
X346500Y890001D02*
X349499Y893000D01*
X352498Y890001D01*
X349499Y887002D02*
Y883003D01*
D45*
X365910Y783358D02*
G03*
X365910Y783358I-492J0D01*
G01*
X248023Y926874D02*
G03*
X248023Y926874I-492J0D01*
G01*
X258618Y677531D02*
G03*
X258618Y677531I-492J0D01*
G01*
X365575Y850421D02*
G03*
X365575Y850421I-492J0D01*
G01*
X497366Y936469D02*
G03*
X497366Y936469I-492J0D01*
G01*
X507779Y687308D02*
G03*
X507779Y687308I-492J0D01*
G01*
X471000Y712500D02*
G03*
X471000Y712500I-492J0D01*
G01*
D46*
X373685Y793004D02*
G03*
X373685Y793004I-1181J0D01*
G01*
D47*
X458500Y849500D02*
Y889500D01*
X438500Y849500D02*
X458500D01*
X438500D02*
Y889500D01*
X458500D01*
X411000Y751000D02*
Y761000D01*
X351000Y751000D02*
Y761000D01*
X411000D01*
X351000Y751000D02*
X411000D01*
X396500Y874000D02*
Y894000D01*
X356500Y874000D02*
Y894000D01*
X396500D01*
X356500Y874000D02*
X396500D01*
X368567Y789067D02*
X389433D01*
X368567Y809933D02*
X389433D01*
X368567Y789067D02*
Y809933D01*
X389433Y789067D02*
Y809933D01*
X243110Y934652D02*
X247216Y930546D01*
X250348Y941890D02*
X254454Y937784D01*
X243110Y934652D02*
X244363Y935905D01*
X249095Y940637D02*
X250348Y941890D01*
X297500Y778500D02*
X307500D01*
X297500D02*
Y798500D01*
X307500D01*
Y778500D02*
Y798500D01*
X250348Y673110D02*
X254454Y677216D01*
X243110Y680348D02*
X247216Y684454D01*
X249095Y674363D02*
X250348Y673110D01*
X243110Y680348D02*
X244363Y679095D01*
X261429Y701036D02*
X264964Y704571D01*
X272536Y924071D02*
X276071Y920536D01*
X490536Y910429D02*
X494071Y913964D01*
X480247Y693146D02*
X483782Y689611D01*
X368429Y851504D02*
Y853571D01*
X370496D01*
X382504D02*
X384571D01*
Y851504D02*
Y853571D01*
Y837429D02*
Y839496D01*
X382504Y837429D02*
X384571D01*
X368429D02*
X370496D01*
X368429D02*
Y839496D01*
X500546Y936784D02*
X504652Y940890D01*
X507784Y929546D02*
X511890Y933652D01*
X504652Y940890D02*
X505905Y939637D01*
X510637Y934905D02*
X511890Y933652D01*
X507602Y683636D02*
X511708Y679530D01*
X500364Y676398D02*
X504470Y672292D01*
X510455Y678277D02*
X511708Y679530D01*
X504470Y672292D02*
X505723Y673545D01*
X430000Y792000D02*
X435000D01*
X439500D02*
X444500D01*
X449000D02*
X454000D01*
X472882Y715319D02*
Y721126D01*
X483118Y715319D02*
Y721126D01*
X472882D02*
X474654D01*
X481346D02*
X483118D01*
M02*
