%FSLAX25Y25*%
%MOIN*%
G70*
G01*
G75*
G04 Layer_Physical_Order=2*
G04 Layer_Color=16711680*
%ADD10R,0.05906X0.05118*%
%ADD11R,0.07480X0.02756*%
G04:AMPARAMS|DCode=12|XSize=59.06mil|YSize=51.18mil|CornerRadius=0mil|HoleSize=0mil|Usage=FLASHONLY|Rotation=315.000|XOffset=0mil|YOffset=0mil|HoleType=Round|Shape=Rectangle|*
%AMROTATEDRECTD12*
4,1,4,-0.03897,0.00278,-0.00278,0.03897,0.03897,-0.00278,0.00278,-0.03897,-0.03897,0.00278,0.0*
%
%ADD12ROTATEDRECTD12*%

G04:AMPARAMS|DCode=13|XSize=59.06mil|YSize=51.18mil|CornerRadius=0mil|HoleSize=0mil|Usage=FLASHONLY|Rotation=225.000|XOffset=0mil|YOffset=0mil|HoleType=Round|Shape=Rectangle|*
%AMROTATEDRECTD13*
4,1,4,0.00278,0.03897,0.03897,0.00278,-0.00278,-0.03897,-0.03897,-0.00278,0.00278,0.03897,0.0*
%
%ADD13ROTATEDRECTD13*%

%ADD14O,0.08268X0.01181*%
%ADD15O,0.01181X0.08268*%
G04:AMPARAMS|DCode=16|XSize=78.74mil|YSize=47.24mil|CornerRadius=0mil|HoleSize=0mil|Usage=FLASHONLY|Rotation=225.000|XOffset=0mil|YOffset=0mil|HoleType=Round|Shape=Rectangle|*
%AMROTATEDRECTD16*
4,1,4,0.01114,0.04454,0.04454,0.01114,-0.01114,-0.04454,-0.04454,-0.01114,0.01114,0.04454,0.0*
%
%ADD16ROTATEDRECTD16*%

G04:AMPARAMS|DCode=17|XSize=78.74mil|YSize=47.24mil|CornerRadius=0mil|HoleSize=0mil|Usage=FLASHONLY|Rotation=135.000|XOffset=0mil|YOffset=0mil|HoleType=Round|Shape=Rectangle|*
%AMROTATEDRECTD17*
4,1,4,0.04454,-0.01114,0.01114,-0.04454,-0.04454,0.01114,-0.01114,0.04454,0.04454,-0.01114,0.0*
%
%ADD17ROTATEDRECTD17*%

G04:AMPARAMS|DCode=18|XSize=35.43mil|YSize=37.4mil|CornerRadius=0mil|HoleSize=0mil|Usage=FLASHONLY|Rotation=225.000|XOffset=0mil|YOffset=0mil|HoleType=Round|Shape=Rectangle|*
%AMROTATEDRECTD18*
4,1,4,-0.00070,0.02575,0.02575,-0.00070,0.00070,-0.02575,-0.02575,0.00070,-0.00070,0.02575,0.0*
%
%ADD18ROTATEDRECTD18*%

G04:AMPARAMS|DCode=19|XSize=35.43mil|YSize=37.4mil|CornerRadius=0mil|HoleSize=0mil|Usage=FLASHONLY|Rotation=225.000|XOffset=0mil|YOffset=0mil|HoleType=Round|Shape=Rectangle|*
%AMROTATEDRECTD19*
4,1,4,-0.00070,0.02575,0.02575,-0.00070,0.00070,-0.02575,-0.02575,0.00070,-0.00070,0.02575,0.0*
%
%ADD19ROTATEDRECTD19*%

G04:AMPARAMS|DCode=20|XSize=35.43mil|YSize=37.4mil|CornerRadius=0mil|HoleSize=0mil|Usage=FLASHONLY|Rotation=315.000|XOffset=0mil|YOffset=0mil|HoleType=Round|Shape=Rectangle|*
%AMROTATEDRECTD20*
4,1,4,-0.02575,-0.00070,0.00070,0.02575,0.02575,0.00070,-0.00070,-0.02575,-0.02575,-0.00070,0.0*
%
%ADD20ROTATEDRECTD20*%

G04:AMPARAMS|DCode=21|XSize=35.43mil|YSize=37.4mil|CornerRadius=0mil|HoleSize=0mil|Usage=FLASHONLY|Rotation=315.000|XOffset=0mil|YOffset=0mil|HoleType=Round|Shape=Rectangle|*
%AMROTATEDRECTD21*
4,1,4,-0.02575,-0.00070,0.00070,0.02575,0.02575,0.00070,-0.00070,-0.02575,-0.02575,-0.00070,0.0*
%
%ADD21ROTATEDRECTD21*%

%ADD22R,0.03543X0.03740*%
%ADD23R,0.03543X0.03740*%
%ADD24C,0.01063*%
%ADD25C,0.01181*%
%ADD26C,0.02756*%
%ADD27C,0.01969*%
%ADD28C,0.05906*%
%ADD29R,0.05906X0.05906*%
%ADD30R,0.05906X0.05906*%
%ADD31C,0.31496*%
%ADD32C,0.08268*%
%ADD33C,0.01969*%
%ADD34C,0.03150*%
%ADD35R,0.05118X0.05906*%
%ADD36R,0.06000X0.06000*%
%ADD37R,0.01575X0.03937*%
%ADD38R,0.01575X0.03937*%
%ADD39C,0.02362*%
D12*
X558530Y621894D02*
D03*
X563820Y627184D02*
D03*
X197145Y993145D02*
D03*
X191855Y987855D02*
D03*
D13*
X192355Y627145D02*
D03*
X197645Y621855D02*
D03*
X562645Y987355D02*
D03*
X557355Y992645D02*
D03*
D24*
X433500Y858500D02*
X434100D01*
X436000Y863500D02*
X438500Y866000D01*
X355900Y863500D02*
X436000D01*
X434100Y858500D02*
X439100Y863500D01*
X383158Y767158D02*
X423442D01*
X380000Y764000D02*
X383158Y767158D01*
X380000Y758200D02*
Y764000D01*
X375800Y754000D02*
X380000Y758200D01*
X351500Y754000D02*
X375800D01*
X345000Y760500D02*
X351500Y754000D01*
X368200Y824000D02*
X379600Y812600D01*
X366500Y824000D02*
X368200D01*
X324520Y806020D02*
Y808900D01*
X317500Y799000D02*
X324520Y806020D01*
X305260Y799000D02*
X317500D01*
X347000Y803500D02*
Y809500D01*
X334300Y822200D02*
X347000Y809500D01*
X332000Y822200D02*
X334300D01*
X548136Y661000D02*
X563820Y645317D01*
X513500Y661000D02*
X548136D01*
X507000Y667500D02*
X513500Y661000D01*
X344500Y817700D02*
X364341D01*
X335000Y827000D02*
X341500D01*
X335000Y824000D02*
X366500D01*
X335000D02*
Y824024D01*
X332000Y821024D02*
X335000Y824024D01*
X366500Y824000D02*
Y858000D01*
X356000Y858500D02*
X367000D01*
X366500Y858000D02*
X367000Y858500D01*
X562645Y987355D02*
X565500Y984500D01*
Y972600D02*
Y984500D01*
X564100Y971200D02*
X565500Y972600D01*
X556000Y994000D02*
X557355Y992645D01*
X536500Y994000D02*
X556000D01*
X510300Y967800D02*
X536500Y994000D01*
X510300Y949000D02*
Y967800D01*
X221755Y621855D02*
X250855Y650955D01*
Y671255D01*
X189500Y985500D02*
X191855Y987855D01*
X189500Y968000D02*
Y985500D01*
Y968000D02*
X212000Y945500D01*
X240700Y958600D02*
Y969800D01*
X217355Y993145D02*
X240700Y969800D01*
X197145Y993145D02*
X217355D01*
X212000Y945500D02*
X231500D01*
X457600Y897000D02*
X459700Y894900D01*
X318928Y897000D02*
X457600D01*
X291228Y924700D02*
X318928Y897000D01*
X450400Y863500D02*
X453900Y867000D01*
X439100Y863500D02*
X450400D01*
X453900Y867000D02*
X456500D01*
X437600Y844000D02*
X492900Y899300D01*
X425300Y844000D02*
X437600D01*
X492900Y899300D02*
Y915645D01*
X381400Y796300D02*
Y800641D01*
X351700Y783200D02*
X371000Y802500D01*
X364341Y817700D02*
X381400Y800641D01*
X371000Y802500D02*
Y805000D01*
X324850Y792250D02*
X326600Y790500D01*
X333500D01*
X324850Y792250D02*
Y793015D01*
X334000Y790500D02*
X347000Y803500D01*
X306500Y809260D02*
X307740Y810500D01*
X306500Y803640D02*
Y809260D01*
Y803640D02*
X307640Y802500D01*
X288100Y769900D02*
X389358D01*
X288000Y770000D02*
X288100Y769900D01*
X370000Y868500D02*
X402200D01*
X296700Y783200D02*
X323600D01*
X500000Y948500D02*
X510304Y948619D01*
X321360Y822200D02*
X324520D01*
Y808900D02*
Y810000D01*
Y808000D02*
Y808900D01*
X367000Y858500D02*
X433500D01*
X326000Y888500D02*
X353500Y861000D01*
X400000Y878500D02*
X433500D01*
X393000Y885500D02*
X400000Y878500D01*
X402200Y868500D02*
X433500D01*
X433800Y848800D02*
X443500Y858500D01*
X393810Y848800D02*
X433800D01*
X373610Y828600D02*
X393810Y848800D01*
X323600Y783200D02*
X351700D01*
X318200Y874200D02*
X322500Y878500D01*
X302500Y874200D02*
X318200D01*
X296300Y868000D02*
X302500Y874200D01*
X296300Y783600D02*
Y868000D01*
Y783600D02*
X296700Y783200D01*
X400700Y749700D02*
Y763800D01*
X396000Y745000D02*
X400700Y749700D01*
X296100Y745000D02*
X396000D01*
X278500Y727400D02*
X296100Y745000D01*
X387390Y806090D02*
X425300Y844000D01*
X459700Y908200D02*
X500000Y948500D01*
X459700Y894900D02*
Y908200D01*
X459000Y715500D02*
Y719900D01*
Y715500D02*
X497145Y677355D01*
X255645Y924700D02*
X291228D01*
X322500Y888500D02*
X326000D01*
X353500Y861000D02*
X356000Y858500D01*
X353500Y861000D02*
Y875900D01*
X358100Y880500D01*
X388000D01*
X393000Y875500D01*
X416100Y821900D02*
X442000D01*
X402600Y808400D02*
X416100Y821900D01*
X423442Y767158D02*
X424200Y766400D01*
X438500Y873500D02*
X443500Y878500D01*
X438500Y866000D02*
Y873500D01*
X324520Y821024D02*
Y822200D01*
X320260Y823300D02*
X321360Y822200D01*
X320260Y823300D02*
Y836000D01*
X485645Y922900D02*
X492900Y915645D01*
X300500Y719900D02*
X459000D01*
X250855Y671255D02*
X300500Y719900D01*
X368700Y766800D02*
X375000Y760500D01*
X333300Y766800D02*
X368700D01*
X240700Y958600D02*
X245600Y953700D01*
X197645Y621855D02*
X221755D01*
X563820Y627184D02*
Y645317D01*
X192355Y627145D02*
Y645492D01*
X221600Y674736D01*
X514400Y646464D02*
X538969Y621894D01*
X558530D01*
X363000Y875500D02*
X370000Y868500D01*
X300260Y804000D02*
X305260Y799000D01*
X300260Y804000D02*
Y810500D01*
X332000Y807600D02*
Y810000D01*
X331000Y806600D02*
X332000Y807600D01*
X325920Y806600D02*
X331000D01*
X324520Y808000D02*
X325920Y806600D01*
X300260Y810500D02*
Y823500D01*
Y836000D01*
D25*
X324641Y785500D02*
X337300D01*
X324578Y785562D02*
X324641Y785500D01*
X337300D02*
X361300Y809500D01*
X324438Y785562D02*
X324578D01*
X319500Y790500D02*
X324438Y785562D01*
X432500Y888500D02*
X433500D01*
X374500Y799000D02*
Y804841D01*
X361300Y809500D02*
X369841D01*
X374500Y804841D01*
X319497Y793600D02*
X319500Y793597D01*
X374500Y799000D02*
X380300Y793200D01*
X387000D01*
X399300Y800000D02*
Y811900D01*
X387000Y781853D02*
Y793200D01*
X392500D01*
X327740Y836000D02*
Y839000D01*
X319500Y790500D02*
Y793597D01*
X392500Y793200D02*
X399300Y800000D01*
Y811900D02*
X422140Y834740D01*
X331600Y837000D02*
Y838600D01*
X330600Y836000D02*
X331600Y837000D01*
X327740Y836000D02*
X330600D01*
X304000Y790500D02*
X319500D01*
X301000Y787500D02*
X304000Y790500D01*
X307740Y836000D02*
Y839040D01*
D26*
X327500Y816000D02*
X333000D01*
X336000Y813000D01*
Y804000D02*
Y813000D01*
X329847Y797847D02*
X336000Y804000D01*
X321000Y797847D02*
X329847D01*
X327740Y812000D02*
Y836000D01*
X223000Y932500D02*
X224200Y931300D01*
Y930300D02*
Y931300D01*
X293400Y780000D02*
Y861100D01*
X224200Y930300D02*
X293400Y861100D01*
X292000Y725000D02*
X475337D01*
X232000Y665000D02*
X292000Y725000D01*
X428000Y893000D02*
X432500Y888500D01*
X370500Y893000D02*
X428000D01*
X363000Y885500D02*
X370500Y893000D01*
X319497Y796344D02*
X321000Y797847D01*
X319497Y793600D02*
Y796344D01*
X354500Y894000D02*
X363000Y885500D01*
X318000Y894000D02*
X354500D01*
X312500Y888500D02*
X318000Y894000D01*
X325300Y883500D02*
X328500Y880300D01*
Y874500D02*
Y880300D01*
X322500Y868500D02*
X328500Y874500D01*
X312500Y888500D02*
X317500Y883500D01*
X323240Y843500D02*
X327740Y839000D01*
X312200Y843500D02*
X323240D01*
X307740Y839040D02*
X312200Y843500D01*
X512000Y912500D02*
Y924000D01*
X466400Y866900D02*
X512000Y912500D01*
X466400Y829200D02*
Y866900D01*
X475337Y725000D02*
X522300Y678037D01*
X422837Y777500D02*
X475337Y725000D01*
X484402Y708098D02*
X524000Y668500D01*
X256500Y905500D02*
X295500D01*
X312500Y888500D01*
X327740Y839000D02*
Y863260D01*
X414700Y777500D02*
X422837D01*
X301000D02*
X414700D01*
X234700Y660100D02*
X269500Y694900D01*
X293400Y780000D02*
X295900Y777500D01*
X301000D01*
X414700D02*
X466400Y829200D01*
X322500Y868500D02*
X327740Y863260D01*
X307740Y823500D02*
Y836000D01*
D28*
X301000Y777500D02*
D03*
X393000Y885500D02*
D03*
Y875500D02*
D03*
X383000Y885500D02*
D03*
Y875500D02*
D03*
X373000Y885500D02*
D03*
Y875500D02*
D03*
X363000D02*
D03*
X443500Y868500D02*
D03*
Y878500D02*
D03*
Y888500D02*
D03*
X433500Y858500D02*
D03*
Y868500D02*
D03*
Y878500D02*
D03*
Y888500D02*
D03*
X322500Y868500D02*
D03*
Y878500D02*
D03*
Y888500D02*
D03*
X312500Y858500D02*
D03*
Y868500D02*
D03*
Y878500D02*
D03*
Y888500D02*
D03*
X345000Y760500D02*
D03*
X355000D02*
D03*
X365000D02*
D03*
X375000D02*
D03*
X385000D02*
D03*
X395000D02*
D03*
X405000D02*
D03*
D29*
X301000Y787500D02*
D03*
X443500Y858500D02*
D03*
X322500D02*
D03*
D30*
X363000Y885500D02*
D03*
X415000Y760500D02*
D03*
D31*
X545500Y639500D02*
D03*
X210318Y639318D02*
D03*
X544682Y974682D02*
D03*
X209318D02*
D03*
D32*
X392000Y733500D02*
D03*
X372000D02*
D03*
D33*
X400450Y764500D02*
D03*
X323600Y783200D02*
D03*
X335000Y827000D02*
D03*
X341500D02*
D03*
X456500Y867000D02*
D03*
X371000Y805000D02*
D03*
X324850Y792250D02*
D03*
X345000Y818000D02*
D03*
X347000Y803500D02*
D03*
X306500Y802500D02*
D03*
X288000Y770000D02*
D03*
X256500Y905500D02*
D03*
X402200Y868500D02*
D03*
X373610Y828600D02*
D03*
X381400Y796300D02*
D03*
X278500Y727400D02*
D03*
X389358Y769900D02*
D03*
X492900Y915645D02*
D03*
X387390Y806090D02*
D03*
X510300Y949000D02*
D03*
X497145Y677355D02*
D03*
X459700Y894900D02*
D03*
X255645Y924700D02*
D03*
X387000Y781853D02*
D03*
X379600Y812600D02*
D03*
X422140Y834740D02*
D03*
X442000Y821900D02*
D03*
X402600Y808400D02*
D03*
X331600Y838600D02*
D03*
X424200Y766400D02*
D03*
X355900Y863500D02*
D03*
X564100Y971200D02*
D03*
X485645Y922900D02*
D03*
X459000Y719900D02*
D03*
X250855Y671255D02*
D03*
X333300Y766800D02*
D03*
X245600Y953700D02*
D03*
X231500Y945500D02*
D03*
X507000Y667500D02*
D03*
X221600Y674736D02*
D03*
X514400Y646464D02*
D03*
D34*
X223000Y932500D02*
D03*
X484500Y708000D02*
D03*
X524000Y668500D02*
D03*
X232500Y665500D02*
D03*
X234700Y660100D02*
D03*
X269500Y694900D02*
D03*
X522300Y678037D02*
D03*
X512000Y924000D02*
D03*
D35*
X300260Y823500D02*
D03*
X307740D02*
D03*
X300260Y836000D02*
D03*
X307740D02*
D03*
X320260D02*
D03*
X327740D02*
D03*
X307740Y810500D02*
D03*
X300260D02*
D03*
D36*
X319500Y790500D02*
D03*
X333500D02*
D03*
D37*
X324520Y821024D02*
D03*
Y810000D02*
D03*
X328260D02*
D03*
X332000D02*
D03*
D38*
Y821024D02*
D03*
D39*
X317500Y883500D02*
X325300D01*
M02*
