%FSLAX25Y25*%
%MOIN*%
G70*
G01*
G75*
%ADD10R,0.05906X0.05118*%
%ADD11R,0.07480X0.02756*%
G04:AMPARAMS|DCode=12|XSize=59.06mil|YSize=51.18mil|CornerRadius=0mil|HoleSize=0mil|Usage=FLASHONLY|Rotation=315.000|XOffset=0mil|YOffset=0mil|HoleType=Round|Shape=Rectangle|*
%AMROTATEDRECTD12*
4,1,4,-0.03897,0.00278,-0.00278,0.03897,0.03897,-0.00278,0.00278,-0.03897,-0.03897,0.00278,0.0*
%
%ADD12ROTATEDRECTD12*%

G04:AMPARAMS|DCode=13|XSize=59.06mil|YSize=51.18mil|CornerRadius=0mil|HoleSize=0mil|Usage=FLASHONLY|Rotation=225.000|XOffset=0mil|YOffset=0mil|HoleType=Round|Shape=Rectangle|*
%AMROTATEDRECTD13*
4,1,4,0.00278,0.03897,0.03897,0.00278,-0.00278,-0.03897,-0.03897,-0.00278,0.00278,0.03897,0.0*
%
%ADD13ROTATEDRECTD13*%

%ADD14O,0.08268X0.01181*%
%ADD15O,0.01181X0.08268*%
G04:AMPARAMS|DCode=16|XSize=78.74mil|YSize=47.24mil|CornerRadius=0mil|HoleSize=0mil|Usage=FLASHONLY|Rotation=225.000|XOffset=0mil|YOffset=0mil|HoleType=Round|Shape=Rectangle|*
%AMROTATEDRECTD16*
4,1,4,0.01114,0.04454,0.04454,0.01114,-0.01114,-0.04454,-0.04454,-0.01114,0.01114,0.04454,0.0*
%
%ADD16ROTATEDRECTD16*%

G04:AMPARAMS|DCode=17|XSize=78.74mil|YSize=47.24mil|CornerRadius=0mil|HoleSize=0mil|Usage=FLASHONLY|Rotation=135.000|XOffset=0mil|YOffset=0mil|HoleType=Round|Shape=Rectangle|*
%AMROTATEDRECTD17*
4,1,4,0.04454,-0.01114,0.01114,-0.04454,-0.04454,0.01114,-0.01114,0.04454,0.04454,-0.01114,0.0*
%
%ADD17ROTATEDRECTD17*%

G04:AMPARAMS|DCode=18|XSize=35.43mil|YSize=37.4mil|CornerRadius=0mil|HoleSize=0mil|Usage=FLASHONLY|Rotation=225.000|XOffset=0mil|YOffset=0mil|HoleType=Round|Shape=Rectangle|*
%AMROTATEDRECTD18*
4,1,4,-0.00070,0.02575,0.02575,-0.00070,0.00070,-0.02575,-0.02575,0.00070,-0.00070,0.02575,0.0*
%
%ADD18ROTATEDRECTD18*%

G04:AMPARAMS|DCode=19|XSize=35.43mil|YSize=37.4mil|CornerRadius=0mil|HoleSize=0mil|Usage=FLASHONLY|Rotation=225.000|XOffset=0mil|YOffset=0mil|HoleType=Round|Shape=Rectangle|*
%AMROTATEDRECTD19*
4,1,4,-0.00070,0.02575,0.02575,-0.00070,0.00070,-0.02575,-0.02575,0.00070,-0.00070,0.02575,0.0*
%
%ADD19ROTATEDRECTD19*%

G04:AMPARAMS|DCode=20|XSize=35.43mil|YSize=37.4mil|CornerRadius=0mil|HoleSize=0mil|Usage=FLASHONLY|Rotation=315.000|XOffset=0mil|YOffset=0mil|HoleType=Round|Shape=Rectangle|*
%AMROTATEDRECTD20*
4,1,4,-0.02575,-0.00070,0.00070,0.02575,0.02575,0.00070,-0.00070,-0.02575,-0.02575,-0.00070,0.0*
%
%ADD20ROTATEDRECTD20*%

G04:AMPARAMS|DCode=21|XSize=35.43mil|YSize=37.4mil|CornerRadius=0mil|HoleSize=0mil|Usage=FLASHONLY|Rotation=315.000|XOffset=0mil|YOffset=0mil|HoleType=Round|Shape=Rectangle|*
%AMROTATEDRECTD21*
4,1,4,-0.02575,-0.00070,0.00070,0.02575,0.02575,0.00070,-0.00070,-0.02575,-0.02575,-0.00070,0.0*
%
%ADD21ROTATEDRECTD21*%

%ADD22R,0.03543X0.03740*%
%ADD23R,0.03543X0.03740*%
%ADD24C,0.01063*%
%ADD25C,0.01181*%
%ADD26C,0.02756*%
%ADD27C,0.01969*%
%ADD28C,0.05906*%
%ADD29R,0.05906X0.05906*%
%ADD30R,0.05906X0.05906*%
%ADD31C,0.31496*%
%ADD32C,0.08268*%
%ADD33C,0.01969*%
%ADD34C,0.03150*%
%ADD35R,0.05118X0.05906*%
%ADD36R,0.06000X0.06000*%
%ADD37R,0.01575X0.03937*%
%ADD38R,0.01575X0.03937*%
%ADD39C,0.02362*%
D10*
X453500Y801760D02*
D03*
Y809240D02*
D03*
X442000Y801760D02*
D03*
Y809240D02*
D03*
X430000Y801760D02*
D03*
Y809240D02*
D03*
X453500Y783240D02*
D03*
Y775760D02*
D03*
X442000Y783240D02*
D03*
Y775760D02*
D03*
X430500Y783240D02*
D03*
Y775760D02*
D03*
X384500Y845760D02*
D03*
Y853240D02*
D03*
X373000D02*
D03*
Y845760D02*
D03*
X360500Y853240D02*
D03*
Y845760D02*
D03*
X316500Y787740D02*
D03*
Y780260D02*
D03*
X453500Y834740D02*
D03*
Y827260D02*
D03*
X396000Y853240D02*
D03*
Y845760D02*
D03*
X453500Y747760D02*
D03*
Y755240D02*
D03*
X441500Y747760D02*
D03*
Y755240D02*
D03*
X329000Y827260D02*
D03*
Y834740D02*
D03*
X316000Y827260D02*
D03*
Y834740D02*
D03*
X329000Y780260D02*
D03*
Y787740D02*
D03*
Y803760D02*
D03*
Y811240D02*
D03*
X316000D02*
D03*
Y803760D02*
D03*
X442000Y834740D02*
D03*
Y827260D02*
D03*
X418500Y783240D02*
D03*
Y775760D02*
D03*
X430000Y827260D02*
D03*
Y834740D02*
D03*
X417500Y737240D02*
D03*
Y729760D02*
D03*
X345500D02*
D03*
Y737240D02*
D03*
D11*
X327500Y732500D02*
D03*
Y742500D02*
D03*
Y752500D02*
D03*
X303000Y732500D02*
D03*
Y742500D02*
D03*
Y752500D02*
D03*
D12*
X507645Y682645D02*
D03*
X502355Y677355D02*
D03*
X478355Y679355D02*
D03*
X483645Y684645D02*
D03*
X504645Y706645D02*
D03*
X499355Y701355D02*
D03*
X506145Y956145D02*
D03*
X500855Y950855D02*
D03*
X525355Y931355D02*
D03*
X530645Y936645D02*
D03*
X250355Y928855D02*
D03*
X255645Y934145D02*
D03*
X248855Y654855D02*
D03*
X254145Y660145D02*
D03*
X225855Y677355D02*
D03*
X231145Y682645D02*
D03*
X276645Y933645D02*
D03*
X271355Y928355D02*
D03*
X252355Y909855D02*
D03*
X257645Y915145D02*
D03*
D13*
X531463Y678037D02*
D03*
X526173Y683327D02*
D03*
X501173Y659327D02*
D03*
X506463Y654037D02*
D03*
X507145Y910355D02*
D03*
X501855Y915645D02*
D03*
X480355Y936145D02*
D03*
X485645Y930855D02*
D03*
X501355Y935645D02*
D03*
X506645Y930355D02*
D03*
X257145Y679855D02*
D03*
X251855Y685145D02*
D03*
X277645Y680855D02*
D03*
X272355Y686145D02*
D03*
X251355Y706645D02*
D03*
X256645Y701355D02*
D03*
X254145Y951355D02*
D03*
X248855Y956645D02*
D03*
X225855Y937145D02*
D03*
X231145Y931855D02*
D03*
D14*
X364358Y796173D02*
D03*
Y798142D02*
D03*
X364358Y800110D02*
D03*
Y802079D02*
D03*
Y804047D02*
D03*
Y806016D02*
D03*
Y807984D02*
D03*
Y809953D02*
D03*
Y811921D02*
D03*
Y813890D02*
D03*
X364358Y815858D02*
D03*
Y817827D02*
D03*
X396642D02*
D03*
Y815858D02*
D03*
X396642Y813890D02*
D03*
Y811921D02*
D03*
Y809953D02*
D03*
Y807984D02*
D03*
Y806016D02*
D03*
Y804047D02*
D03*
Y802079D02*
D03*
Y800110D02*
D03*
X396642Y798142D02*
D03*
Y796173D02*
D03*
D15*
X369673Y823142D02*
D03*
X371642D02*
D03*
X373610Y823142D02*
D03*
X375579D02*
D03*
X377547D02*
D03*
X379516D02*
D03*
X381484D02*
D03*
X383453D02*
D03*
X385421D02*
D03*
X387390D02*
D03*
X389358Y823142D02*
D03*
X391327D02*
D03*
Y790858D02*
D03*
X389358D02*
D03*
X387390Y790858D02*
D03*
X385421D02*
D03*
X383453D02*
D03*
X381484D02*
D03*
X379516D02*
D03*
X377547D02*
D03*
X375579D02*
D03*
X373610D02*
D03*
X371642Y790858D02*
D03*
X369673D02*
D03*
D16*
X521105Y652581D02*
D03*
X532065Y663542D02*
D03*
X233713Y961601D02*
D03*
X222753Y950640D02*
D03*
D17*
X223399Y663713D02*
D03*
X234360Y652753D02*
D03*
X531601Y950287D02*
D03*
X520640Y961247D02*
D03*
D18*
X284544Y901116D02*
D03*
X281707Y911364D02*
D03*
X470956Y713884D02*
D03*
X473793Y703636D02*
D03*
D19*
X274282Y903939D02*
D03*
X481218Y711061D02*
D03*
D20*
X285384Y715044D02*
D03*
X275136Y712207D02*
D03*
X474116Y902456D02*
D03*
X484364Y905293D02*
D03*
D21*
X282561Y704782D02*
D03*
X476939Y912718D02*
D03*
D22*
X453740Y732752D02*
D03*
X448500Y723500D02*
D03*
D23*
X459000D02*
D03*
D28*
X301000Y777500D02*
D03*
X393000Y885500D02*
D03*
Y875500D02*
D03*
X383000Y885500D02*
D03*
Y875500D02*
D03*
X373000Y885500D02*
D03*
Y875500D02*
D03*
X363000D02*
D03*
X443500Y868500D02*
D03*
Y878500D02*
D03*
Y888500D02*
D03*
X433500Y858500D02*
D03*
Y868500D02*
D03*
Y878500D02*
D03*
Y888500D02*
D03*
X322500Y868500D02*
D03*
Y878500D02*
D03*
Y888500D02*
D03*
X312500Y858500D02*
D03*
Y868500D02*
D03*
Y878500D02*
D03*
Y888500D02*
D03*
X345000Y760500D02*
D03*
X355000D02*
D03*
X365000D02*
D03*
X375000D02*
D03*
X385000D02*
D03*
X395000D02*
D03*
X405000D02*
D03*
D29*
X301000Y787500D02*
D03*
X443500Y858500D02*
D03*
X322500D02*
D03*
D30*
X363000Y885500D02*
D03*
X415000Y760500D02*
D03*
D31*
X545500Y639500D02*
D03*
X210318Y639318D02*
D03*
X544682Y974682D02*
D03*
X209318D02*
D03*
D32*
X392000Y733500D02*
D03*
X372000D02*
D03*
M02*
