%FSLAX25Y25*%
%MOIN*%
G70*
G01*
G75*
%ADD10C,0.00500*%
%ADD11C,0.00667*%
D10*
X299228Y777500D02*
X302772D01*
X301000Y775728D02*
Y779272D01*
X299228Y787500D02*
X302772D01*
X301000Y785728D02*
Y789272D01*
X391228Y885500D02*
X394772D01*
X393000Y883728D02*
Y887272D01*
X391228Y875500D02*
X394772D01*
X393000Y873728D02*
Y877272D01*
X381228Y885500D02*
X384772D01*
X383000Y883728D02*
Y887272D01*
X381228Y875500D02*
X384772D01*
X383000Y873728D02*
Y877272D01*
X371228Y885500D02*
X374772D01*
X373000Y883728D02*
Y887272D01*
X371228Y875500D02*
X374772D01*
X373000Y873728D02*
Y877272D01*
X361228Y875500D02*
X364772D01*
X363000Y873728D02*
Y877272D01*
X361228Y885500D02*
X364772D01*
X363000Y883728D02*
Y887272D01*
X531524Y639500D02*
X559476D01*
X545500Y625524D02*
Y653476D01*
X196342Y639318D02*
X224294D01*
X210318Y625342D02*
Y653294D01*
X530706Y974682D02*
X558658D01*
X544682Y960706D02*
Y988658D01*
X195342Y974682D02*
X223294D01*
X209318Y960706D02*
Y988658D01*
X441728Y858500D02*
X445272D01*
X443500Y856728D02*
Y860272D01*
X441728Y868500D02*
X445272D01*
X443500Y866728D02*
Y870272D01*
X441728Y878500D02*
X445272D01*
X443500Y876728D02*
Y880272D01*
X441728Y888500D02*
X445272D01*
X443500Y886728D02*
Y890272D01*
X431728Y858500D02*
X435272D01*
X433500Y856728D02*
Y860272D01*
X431728Y868500D02*
X435272D01*
X433500Y866728D02*
Y870272D01*
X431728Y878500D02*
X435272D01*
X433500Y876728D02*
Y880272D01*
X431728Y888500D02*
X435272D01*
X433500Y886728D02*
Y890272D01*
X390032Y733500D02*
X393969D01*
X392000Y731531D02*
Y735468D01*
X370031Y733500D02*
X373969D01*
X372000Y731531D02*
Y735468D01*
X320728Y858500D02*
X324272D01*
X322500Y856728D02*
Y860272D01*
X320728Y868500D02*
X324272D01*
X322500Y866728D02*
Y870272D01*
X320728Y878500D02*
X324272D01*
X322500Y876728D02*
Y880272D01*
X320728Y888500D02*
X324272D01*
X322500Y886728D02*
Y890272D01*
X310728Y858500D02*
X314272D01*
X312500Y856728D02*
Y860272D01*
X310728Y868500D02*
X314272D01*
X312500Y866728D02*
Y870272D01*
X310728Y878500D02*
X314272D01*
X312500Y876728D02*
Y880272D01*
X310728Y888500D02*
X314272D01*
X312500Y886728D02*
Y890272D01*
X343228Y760500D02*
X346772D01*
X345000Y758728D02*
Y762272D01*
X353228Y760500D02*
X356772D01*
X355000Y758728D02*
Y762272D01*
X363228Y760500D02*
X366772D01*
X365000Y758728D02*
Y762272D01*
X373228Y760500D02*
X376772D01*
X375000Y758728D02*
Y762272D01*
X383228Y760500D02*
X386772D01*
X385000Y758728D02*
Y762272D01*
X393228Y760500D02*
X396772D01*
X395000Y758728D02*
Y762272D01*
X403228Y760500D02*
X406772D01*
X405000Y758728D02*
Y762272D01*
X413228Y760500D02*
X416772D01*
X415000Y758728D02*
Y762272D01*
X399859Y764500D02*
X401041D01*
X400450Y763909D02*
Y765091D01*
X323009Y783200D02*
X324190D01*
X323600Y782610D02*
Y783790D01*
X222016Y932500D02*
X223984D01*
X223000Y931516D02*
Y933484D01*
X483516Y708000D02*
X485484D01*
X484500Y707016D02*
Y708984D01*
X523016Y668500D02*
X524984D01*
X524000Y667516D02*
Y669484D01*
X231516Y665500D02*
X233484D01*
X232500Y664516D02*
Y666484D01*
X334409Y827000D02*
X335591D01*
X335000Y826409D02*
Y827591D01*
X340910Y827000D02*
X342091D01*
X341500Y826409D02*
Y827591D01*
X455909Y867000D02*
X457091D01*
X456500Y866409D02*
Y867591D01*
X370409Y805000D02*
X371590D01*
X371000Y804410D02*
Y805591D01*
X324259Y792250D02*
X325441D01*
X324850Y791659D02*
Y792840D01*
X344409Y818000D02*
X345590D01*
X345000Y817410D02*
Y818591D01*
X346410Y803500D02*
X347590D01*
X347000Y802909D02*
Y804090D01*
X305909Y802500D02*
X307090D01*
X306500Y801910D02*
Y803090D01*
X287409Y770000D02*
X288591D01*
X288000Y769410D02*
Y770590D01*
X255909Y905500D02*
X257090D01*
X256500Y904909D02*
Y906091D01*
X401610Y868500D02*
X402790D01*
X402200Y867909D02*
Y869091D01*
X373020Y828600D02*
X374201D01*
X373610Y828009D02*
Y829191D01*
X380809Y796300D02*
X381991D01*
X381400Y795710D02*
Y796890D01*
X277909Y727400D02*
X279090D01*
X278500Y726810D02*
Y727990D01*
X388768Y769900D02*
X389949D01*
X389358Y769310D02*
Y770491D01*
X492310Y915645D02*
X493491D01*
X492900Y915054D02*
Y916235D01*
X386799Y806090D02*
X387980D01*
X387390Y805499D02*
Y806680D01*
X233716Y660100D02*
X235684D01*
X234700Y659116D02*
Y661084D01*
X268516Y694900D02*
X270484D01*
X269500Y693916D02*
Y695884D01*
X509710Y949000D02*
X510890D01*
X510300Y948409D02*
Y949591D01*
X496554Y677355D02*
X497735D01*
X497145Y676765D02*
Y677946D01*
X459109Y894900D02*
X460290D01*
X459700Y894309D02*
Y895491D01*
X255054Y924700D02*
X256235D01*
X255645Y924109D02*
Y925291D01*
X386409Y781853D02*
X387591D01*
X387000Y781262D02*
Y782443D01*
X521316Y678037D02*
X523284D01*
X522300Y677053D02*
Y679022D01*
X379010Y812600D02*
X380190D01*
X379600Y812010D02*
Y813190D01*
X421550Y834740D02*
X422731D01*
X422140Y834150D02*
Y835331D01*
X441409Y821900D02*
X442591D01*
X442000Y821309D02*
Y822491D01*
X402009Y808400D02*
X403191D01*
X402600Y807810D02*
Y808990D01*
X331010Y838600D02*
X332190D01*
X331600Y838009D02*
Y839191D01*
X423609Y766400D02*
X424790D01*
X424200Y765809D02*
Y766991D01*
X355310Y863500D02*
X356490D01*
X355900Y862909D02*
Y864091D01*
X563510Y971200D02*
X564690D01*
X564100Y970609D02*
Y971791D01*
X511016Y924000D02*
X512984D01*
X512000Y923016D02*
Y924984D01*
X485054Y922900D02*
X486235D01*
X485645Y922309D02*
Y923491D01*
X458410Y719900D02*
X459590D01*
X459000Y719310D02*
Y720491D01*
X250265Y671255D02*
X251446D01*
X250855Y670665D02*
Y671846D01*
X332710Y766800D02*
X333891D01*
X333300Y766210D02*
Y767390D01*
X245009Y953700D02*
X246191D01*
X245600Y953109D02*
Y954291D01*
X230909Y945500D02*
X232090D01*
X231500Y944909D02*
Y946091D01*
X506410Y667500D02*
X507590D01*
X507000Y666910D02*
Y668090D01*
X221009Y674736D02*
X222190D01*
X221600Y674146D02*
Y675327D01*
X513809Y646464D02*
X514991D01*
X514400Y645873D02*
Y647054D01*
M02*
