%FSLAX25Y25*%
%MOIN*%
G70*
G01*
G75*
G04 Layer_Color=32896*
%ADD10R,0.05906X0.05118*%
%ADD11R,0.07480X0.02756*%
G04:AMPARAMS|DCode=12|XSize=59.06mil|YSize=51.18mil|CornerRadius=0mil|HoleSize=0mil|Usage=FLASHONLY|Rotation=315.000|XOffset=0mil|YOffset=0mil|HoleType=Round|Shape=Rectangle|*
%AMROTATEDRECTD12*
4,1,4,-0.03897,0.00278,-0.00278,0.03897,0.03897,-0.00278,0.00278,-0.03897,-0.03897,0.00278,0.0*
%
%ADD12ROTATEDRECTD12*%

G04:AMPARAMS|DCode=13|XSize=59.06mil|YSize=51.18mil|CornerRadius=0mil|HoleSize=0mil|Usage=FLASHONLY|Rotation=225.000|XOffset=0mil|YOffset=0mil|HoleType=Round|Shape=Rectangle|*
%AMROTATEDRECTD13*
4,1,4,0.00278,0.03897,0.03897,0.00278,-0.00278,-0.03897,-0.03897,-0.00278,0.00278,0.03897,0.0*
%
%ADD13ROTATEDRECTD13*%

%ADD14O,0.08268X0.01181*%
%ADD15O,0.01181X0.08268*%
G04:AMPARAMS|DCode=16|XSize=78.74mil|YSize=47.24mil|CornerRadius=0mil|HoleSize=0mil|Usage=FLASHONLY|Rotation=225.000|XOffset=0mil|YOffset=0mil|HoleType=Round|Shape=Rectangle|*
%AMROTATEDRECTD16*
4,1,4,0.01114,0.04454,0.04454,0.01114,-0.01114,-0.04454,-0.04454,-0.01114,0.01114,0.04454,0.0*
%
%ADD16ROTATEDRECTD16*%

G04:AMPARAMS|DCode=17|XSize=78.74mil|YSize=47.24mil|CornerRadius=0mil|HoleSize=0mil|Usage=FLASHONLY|Rotation=135.000|XOffset=0mil|YOffset=0mil|HoleType=Round|Shape=Rectangle|*
%AMROTATEDRECTD17*
4,1,4,0.04454,-0.01114,0.01114,-0.04454,-0.04454,0.01114,-0.01114,0.04454,0.04454,-0.01114,0.0*
%
%ADD17ROTATEDRECTD17*%

G04:AMPARAMS|DCode=18|XSize=35.43mil|YSize=37.4mil|CornerRadius=0mil|HoleSize=0mil|Usage=FLASHONLY|Rotation=225.000|XOffset=0mil|YOffset=0mil|HoleType=Round|Shape=Rectangle|*
%AMROTATEDRECTD18*
4,1,4,-0.00070,0.02575,0.02575,-0.00070,0.00070,-0.02575,-0.02575,0.00070,-0.00070,0.02575,0.0*
%
%ADD18ROTATEDRECTD18*%

G04:AMPARAMS|DCode=19|XSize=35.43mil|YSize=37.4mil|CornerRadius=0mil|HoleSize=0mil|Usage=FLASHONLY|Rotation=225.000|XOffset=0mil|YOffset=0mil|HoleType=Round|Shape=Rectangle|*
%AMROTATEDRECTD19*
4,1,4,-0.00070,0.02575,0.02575,-0.00070,0.00070,-0.02575,-0.02575,0.00070,-0.00070,0.02575,0.0*
%
%ADD19ROTATEDRECTD19*%

G04:AMPARAMS|DCode=20|XSize=35.43mil|YSize=37.4mil|CornerRadius=0mil|HoleSize=0mil|Usage=FLASHONLY|Rotation=315.000|XOffset=0mil|YOffset=0mil|HoleType=Round|Shape=Rectangle|*
%AMROTATEDRECTD20*
4,1,4,-0.02575,-0.00070,0.00070,0.02575,0.02575,0.00070,-0.00070,-0.02575,-0.02575,-0.00070,0.0*
%
%ADD20ROTATEDRECTD20*%

G04:AMPARAMS|DCode=21|XSize=35.43mil|YSize=37.4mil|CornerRadius=0mil|HoleSize=0mil|Usage=FLASHONLY|Rotation=315.000|XOffset=0mil|YOffset=0mil|HoleType=Round|Shape=Rectangle|*
%AMROTATEDRECTD21*
4,1,4,-0.02575,-0.00070,0.00070,0.02575,0.02575,0.00070,-0.00070,-0.02575,-0.02575,-0.00070,0.0*
%
%ADD21ROTATEDRECTD21*%

%ADD22R,0.03543X0.03740*%
%ADD23R,0.03543X0.03740*%
%ADD24C,0.01063*%
%ADD25C,0.01181*%
%ADD26C,0.02756*%
%ADD27C,0.01969*%
%ADD28C,0.05906*%
%ADD29R,0.05906X0.05906*%
%ADD30R,0.05906X0.05906*%
%ADD31C,0.31496*%
%ADD32C,0.08268*%
%ADD33C,0.01969*%
%ADD34C,0.03150*%
%ADD35R,0.05118X0.05906*%
%ADD36R,0.06000X0.06000*%
%ADD37R,0.01575X0.03937*%
%ADD38R,0.01575X0.03937*%
%ADD39C,0.02362*%
%ADD40C,0.00984*%
%ADD41C,0.01000*%
%ADD42C,0.00787*%
%ADD43R,0.06706X0.05918*%
%ADD44R,0.08280X0.03556*%
G04:AMPARAMS|DCode=45|XSize=67.06mil|YSize=59.18mil|CornerRadius=0mil|HoleSize=0mil|Usage=FLASHONLY|Rotation=315.000|XOffset=0mil|YOffset=0mil|HoleType=Round|Shape=Rectangle|*
%AMROTATEDRECTD45*
4,1,4,-0.04463,0.00278,-0.00278,0.04463,0.04463,-0.00278,0.00278,-0.04463,-0.04463,0.00278,0.0*
%
%ADD45ROTATEDRECTD45*%

G04:AMPARAMS|DCode=46|XSize=67.06mil|YSize=59.18mil|CornerRadius=0mil|HoleSize=0mil|Usage=FLASHONLY|Rotation=225.000|XOffset=0mil|YOffset=0mil|HoleType=Round|Shape=Rectangle|*
%AMROTATEDRECTD46*
4,1,4,0.00278,0.04463,0.04463,0.00278,-0.00278,-0.04463,-0.04463,-0.00278,0.00278,0.04463,0.0*
%
%ADD46ROTATEDRECTD46*%

%ADD47O,0.09068X0.01981*%
%ADD48O,0.01981X0.09068*%
G04:AMPARAMS|DCode=49|XSize=86.74mil|YSize=55.24mil|CornerRadius=0mil|HoleSize=0mil|Usage=FLASHONLY|Rotation=225.000|XOffset=0mil|YOffset=0mil|HoleType=Round|Shape=Rectangle|*
%AMROTATEDRECTD49*
4,1,4,0.01114,0.05020,0.05020,0.01114,-0.01114,-0.05020,-0.05020,-0.01114,0.01114,0.05020,0.0*
%
%ADD49ROTATEDRECTD49*%

G04:AMPARAMS|DCode=50|XSize=86.74mil|YSize=55.24mil|CornerRadius=0mil|HoleSize=0mil|Usage=FLASHONLY|Rotation=135.000|XOffset=0mil|YOffset=0mil|HoleType=Round|Shape=Rectangle|*
%AMROTATEDRECTD50*
4,1,4,0.05020,-0.01114,0.01114,-0.05020,-0.05020,0.01114,-0.01114,0.05020,0.05020,-0.01114,0.0*
%
%ADD50ROTATEDRECTD50*%

G04:AMPARAMS|DCode=51|XSize=43.43mil|YSize=45.4mil|CornerRadius=0mil|HoleSize=0mil|Usage=FLASHONLY|Rotation=225.000|XOffset=0mil|YOffset=0mil|HoleType=Round|Shape=Rectangle|*
%AMROTATEDRECTD51*
4,1,4,-0.00070,0.03141,0.03141,-0.00070,0.00070,-0.03141,-0.03141,0.00070,-0.00070,0.03141,0.0*
%
%ADD51ROTATEDRECTD51*%

G04:AMPARAMS|DCode=52|XSize=43.43mil|YSize=45.4mil|CornerRadius=0mil|HoleSize=0mil|Usage=FLASHONLY|Rotation=225.000|XOffset=0mil|YOffset=0mil|HoleType=Round|Shape=Rectangle|*
%AMROTATEDRECTD52*
4,1,4,-0.00070,0.03141,0.03141,-0.00070,0.00070,-0.03141,-0.03141,0.00070,-0.00070,0.03141,0.0*
%
%ADD52ROTATEDRECTD52*%

G04:AMPARAMS|DCode=53|XSize=43.43mil|YSize=45.4mil|CornerRadius=0mil|HoleSize=0mil|Usage=FLASHONLY|Rotation=315.000|XOffset=0mil|YOffset=0mil|HoleType=Round|Shape=Rectangle|*
%AMROTATEDRECTD53*
4,1,4,-0.03141,-0.00070,0.00070,0.03141,0.03141,0.00070,-0.00070,-0.03141,-0.03141,-0.00070,0.0*
%
%ADD53ROTATEDRECTD53*%

G04:AMPARAMS|DCode=54|XSize=43.43mil|YSize=45.4mil|CornerRadius=0mil|HoleSize=0mil|Usage=FLASHONLY|Rotation=315.000|XOffset=0mil|YOffset=0mil|HoleType=Round|Shape=Rectangle|*
%AMROTATEDRECTD54*
4,1,4,-0.03141,-0.00070,0.00070,0.03141,0.03141,0.00070,-0.00070,-0.03141,-0.03141,-0.00070,0.0*
%
%ADD54ROTATEDRECTD54*%

%ADD55R,0.04343X0.04540*%
%ADD56R,0.04343X0.04540*%
%ADD57C,0.06706*%
%ADD58R,0.06706X0.06706*%
%ADD59R,0.06706X0.06706*%
%ADD60C,0.32296*%
%ADD61C,0.09068*%
%ADD62C,0.02769*%
%ADD63C,0.03950*%
%ADD64R,0.05918X0.06706*%
%ADD65R,0.06800X0.06800*%
%ADD66R,0.02375X0.04737*%
%ADD67R,0.02375X0.04737*%
%ADD68C,0.00394*%
D41*
X292720Y823376D02*
X292064Y824032D01*
Y825344D01*
X292720Y826000D01*
X295344D01*
X296000Y825344D01*
Y824032D01*
X295344Y823376D01*
X292720Y822064D02*
X292064Y821408D01*
Y820096D01*
X292720Y819440D01*
X293376D01*
X294032Y820096D01*
Y820752D01*
Y820096D01*
X294688Y819440D01*
X295344D01*
X296000Y820096D01*
Y821408D01*
X295344Y822064D01*
X292720Y836376D02*
X292064Y837032D01*
Y838344D01*
X292720Y839000D01*
X295344D01*
X296000Y838344D01*
Y837032D01*
X295344Y836376D01*
X296000Y833096D02*
X292064D01*
X294032Y835064D01*
Y832440D01*
X344376Y791780D02*
X345032Y792436D01*
X346344D01*
X347000Y791780D01*
Y789156D01*
X346344Y788500D01*
X345032D01*
X344376Y789156D01*
X340440Y792436D02*
X343064D01*
Y790468D01*
X341752Y791124D01*
X341096D01*
X340440Y790468D01*
Y789156D01*
X341096Y788500D01*
X342408D01*
X343064Y789156D01*
X312720Y836376D02*
X312064Y837032D01*
Y838344D01*
X312720Y839000D01*
X315344D01*
X316000Y838344D01*
Y837032D01*
X315344Y836376D01*
X312064Y832440D02*
X312720Y833752D01*
X314032Y835064D01*
X315344D01*
X316000Y834408D01*
Y833096D01*
X315344Y832440D01*
X314688D01*
X314032Y833096D01*
Y835064D01*
X219283Y993783D02*
X216500Y991000D01*
X215108Y992391D01*
Y993319D01*
X216964Y995175D01*
X217892D01*
X219283Y993783D01*
X212326Y995175D02*
X215108Y997958D01*
Y995175D01*
X213253Y997030D01*
X217717Y624283D02*
X220500Y621500D01*
X219109Y620109D01*
X218181D01*
X216325Y621964D01*
Y622892D01*
X217717Y624283D01*
X213079Y619645D02*
X214470Y620109D01*
X216325D01*
X217253Y619181D01*
Y618253D01*
X216325Y617325D01*
X215398D01*
X214934Y617789D01*
X214934Y618717D01*
X216325Y620109D01*
X540601Y619965D02*
X537818Y617182D01*
X536426Y618574D01*
Y619501D01*
X538282Y621356D01*
X539210D01*
X540601Y619965D01*
X537354Y622284D02*
Y623212D01*
X536426Y624139D01*
X535499Y624139D01*
X535035Y623676D01*
Y622748D01*
X534107Y622748D01*
X533643Y622284D01*
Y621356D01*
X534571Y620429D01*
X535499D01*
X535963Y620893D01*
Y621820D01*
X536890Y621820D01*
X537354Y622284D01*
X535963Y621820D02*
X535035Y622748D01*
X534283Y988217D02*
X531500Y991000D01*
X532892Y992391D01*
X533819D01*
X535674Y990536D01*
Y989608D01*
X534283Y988217D01*
Y993783D02*
X535211Y994711D01*
X534747Y994247D01*
X537530Y991464D01*
X536602D01*
X538921Y993783D02*
X539849D01*
X540777Y994711D01*
X540777Y995638D01*
X538921Y997494D01*
X537994Y997494D01*
X537066Y996566D01*
Y995638D01*
X538921Y993783D01*
X291064Y813000D02*
X295000D01*
Y810376D01*
Y809064D02*
Y807752D01*
Y808408D01*
X291064D01*
X291720Y809064D01*
X342500Y822936D02*
Y819656D01*
X341844Y819000D01*
X340532D01*
X339876Y819656D01*
Y822936D01*
X335940Y819000D02*
X338564D01*
X335940Y821624D01*
Y822280D01*
X336596Y822936D01*
X337908D01*
X338564Y822280D01*
X322000Y828502D02*
Y834500D01*
D42*
X333870Y816447D02*
G03*
X333870Y814577I0J-935D01*
G01*
X564710Y631610D02*
X568246Y628074D01*
X198536Y617429D02*
X202071Y620964D01*
X552929Y993536D02*
X556464Y997071D01*
X187429Y986964D02*
X190964Y983429D01*
X315000Y786000D02*
Y795000D01*
X338000Y786000D02*
Y795000D01*
X315000D02*
X322500D01*
X315000Y786000D02*
X322500D01*
X330500D02*
X338000D01*
X330500Y795000D02*
X338000D01*
X322650Y813000D02*
X333870D01*
X322650D02*
Y818000D01*
X333870D01*
Y816447D02*
Y818000D01*
Y813000D02*
Y814577D01*
D68*
X305500Y814500D02*
X311500D01*
Y806500D02*
Y814500D01*
X305500Y806500D02*
X311500D01*
X296500D02*
X302500D01*
X296500D02*
Y814500D01*
X302500D01*
M02*
