%FSLAX25Y25*%
%MOIN*%
G70*
G01*
G75*
%ADD10R,0.05906X0.05118*%
%ADD11R,0.07480X0.02756*%
G04:AMPARAMS|DCode=12|XSize=59.06mil|YSize=51.18mil|CornerRadius=0mil|HoleSize=0mil|Usage=FLASHONLY|Rotation=315.000|XOffset=0mil|YOffset=0mil|HoleType=Round|Shape=Rectangle|*
%AMROTATEDRECTD12*
4,1,4,-0.03897,0.00278,-0.00278,0.03897,0.03897,-0.00278,0.00278,-0.03897,-0.03897,0.00278,0.0*
%
%ADD12ROTATEDRECTD12*%

G04:AMPARAMS|DCode=13|XSize=59.06mil|YSize=51.18mil|CornerRadius=0mil|HoleSize=0mil|Usage=FLASHONLY|Rotation=225.000|XOffset=0mil|YOffset=0mil|HoleType=Round|Shape=Rectangle|*
%AMROTATEDRECTD13*
4,1,4,0.00278,0.03897,0.03897,0.00278,-0.00278,-0.03897,-0.03897,-0.00278,0.00278,0.03897,0.0*
%
%ADD13ROTATEDRECTD13*%

%ADD14O,0.08268X0.01181*%
%ADD15O,0.01181X0.08268*%
G04:AMPARAMS|DCode=16|XSize=78.74mil|YSize=47.24mil|CornerRadius=0mil|HoleSize=0mil|Usage=FLASHONLY|Rotation=225.000|XOffset=0mil|YOffset=0mil|HoleType=Round|Shape=Rectangle|*
%AMROTATEDRECTD16*
4,1,4,0.01114,0.04454,0.04454,0.01114,-0.01114,-0.04454,-0.04454,-0.01114,0.01114,0.04454,0.0*
%
%ADD16ROTATEDRECTD16*%

G04:AMPARAMS|DCode=17|XSize=78.74mil|YSize=47.24mil|CornerRadius=0mil|HoleSize=0mil|Usage=FLASHONLY|Rotation=135.000|XOffset=0mil|YOffset=0mil|HoleType=Round|Shape=Rectangle|*
%AMROTATEDRECTD17*
4,1,4,0.04454,-0.01114,0.01114,-0.04454,-0.04454,0.01114,-0.01114,0.04454,0.04454,-0.01114,0.0*
%
%ADD17ROTATEDRECTD17*%

G04:AMPARAMS|DCode=18|XSize=35.43mil|YSize=37.4mil|CornerRadius=0mil|HoleSize=0mil|Usage=FLASHONLY|Rotation=225.000|XOffset=0mil|YOffset=0mil|HoleType=Round|Shape=Rectangle|*
%AMROTATEDRECTD18*
4,1,4,-0.00070,0.02575,0.02575,-0.00070,0.00070,-0.02575,-0.02575,0.00070,-0.00070,0.02575,0.0*
%
%ADD18ROTATEDRECTD18*%

G04:AMPARAMS|DCode=19|XSize=35.43mil|YSize=37.4mil|CornerRadius=0mil|HoleSize=0mil|Usage=FLASHONLY|Rotation=225.000|XOffset=0mil|YOffset=0mil|HoleType=Round|Shape=Rectangle|*
%AMROTATEDRECTD19*
4,1,4,-0.00070,0.02575,0.02575,-0.00070,0.00070,-0.02575,-0.02575,0.00070,-0.00070,0.02575,0.0*
%
%ADD19ROTATEDRECTD19*%

G04:AMPARAMS|DCode=20|XSize=35.43mil|YSize=37.4mil|CornerRadius=0mil|HoleSize=0mil|Usage=FLASHONLY|Rotation=315.000|XOffset=0mil|YOffset=0mil|HoleType=Round|Shape=Rectangle|*
%AMROTATEDRECTD20*
4,1,4,-0.02575,-0.00070,0.00070,0.02575,0.02575,0.00070,-0.00070,-0.02575,-0.02575,-0.00070,0.0*
%
%ADD20ROTATEDRECTD20*%

G04:AMPARAMS|DCode=21|XSize=35.43mil|YSize=37.4mil|CornerRadius=0mil|HoleSize=0mil|Usage=FLASHONLY|Rotation=315.000|XOffset=0mil|YOffset=0mil|HoleType=Round|Shape=Rectangle|*
%AMROTATEDRECTD21*
4,1,4,-0.02575,-0.00070,0.00070,0.02575,0.02575,0.00070,-0.00070,-0.02575,-0.02575,-0.00070,0.0*
%
%ADD21ROTATEDRECTD21*%

%ADD22R,0.03543X0.03740*%
%ADD23R,0.03543X0.03740*%
%ADD24C,0.01063*%
%ADD25C,0.01181*%
%ADD26C,0.02756*%
%ADD27C,0.01969*%
%ADD28C,0.05906*%
%ADD29R,0.05906X0.05906*%
%ADD30R,0.05906X0.05906*%
%ADD31C,0.31496*%
%ADD32C,0.08268*%
%ADD33C,0.01969*%
%ADD34C,0.03150*%
%ADD35R,0.05118X0.05906*%
%ADD36R,0.06000X0.06000*%
%ADD37R,0.01575X0.03937*%
%ADD38R,0.01575X0.03937*%
%ADD39C,0.02362*%
%ADD40C,0.00984*%
%ADD41C,0.01000*%
%ADD42C,0.00787*%
D39*
X375185Y800504D02*
G03*
X375185Y800504I-1181J0D01*
G01*
D40*
X367409Y790858D02*
G03*
X367409Y790858I-492J0D01*
G01*
X286795Y910303D02*
G03*
X286795Y910303I-492J0D01*
G01*
X276689Y716803D02*
G03*
X276689Y716803I-492J0D01*
G01*
X469689Y704697D02*
G03*
X469689Y704697I-492J0D01*
G01*
X483795Y900697D02*
G03*
X483795Y900697I-492J0D01*
G01*
X446492Y727500D02*
G03*
X446492Y727500I-492J0D01*
G01*
D41*
X396000Y725500D02*
G03*
X396000Y741500I0J8000D01*
G01*
X368000D02*
G03*
X368000Y725500I0J-8000D01*
G01*
X308500Y724000D02*
X322280D01*
Y760220D01*
X308500D02*
X322280D01*
X308500Y724000D02*
Y760220D01*
X537015Y670613D02*
X539136Y668491D01*
X531004Y656824D02*
X538782Y664602D01*
X533126Y670259D02*
X538782Y664602D01*
X525347Y662481D02*
X533126Y670259D01*
X525347Y662481D02*
X531004Y656824D01*
X514387Y651521D02*
X520044Y645864D01*
X514387Y651521D02*
X522165Y659299D01*
X527822Y653642D01*
X520044Y645864D02*
X527822Y653642D01*
X513680Y647278D02*
X515802Y645157D01*
X513680D02*
X515802Y647278D01*
X239309Y645682D02*
X241431Y647803D01*
X227642Y653814D02*
X235420Y646036D01*
X241077Y651692D01*
X233299Y659471D02*
X241077Y651692D01*
X227642Y653814D02*
X233299Y659471D01*
X216682Y664774D02*
X222339Y670431D01*
X230117Y662653D01*
X224460Y656996D02*
X230117Y662653D01*
X216682Y664774D02*
X224460Y656996D01*
X215975Y669017D02*
X218096Y671138D01*
X215975D02*
X218096Y669017D01*
X513569Y966197D02*
X515691Y968318D01*
X519580Y967964D02*
X527358Y960186D01*
X513923Y962308D02*
X519580Y967964D01*
X513923Y962308D02*
X521701Y954529D01*
X527358Y960186D01*
X532661Y943569D02*
X538318Y949226D01*
X524883Y951347D02*
X532661Y943569D01*
X524883Y951347D02*
X530540Y957004D01*
X538318Y949226D01*
X536904Y942862D02*
X539025Y944984D01*
X536904D02*
X539025Y942862D01*
X215682Y945691D02*
X217803Y943569D01*
X216036Y949580D02*
X223814Y957358D01*
X216036Y949580D02*
X221692Y943923D01*
X229471Y951701D01*
X223814Y957358D02*
X229471Y951701D01*
X234774Y968318D02*
X240431Y962661D01*
X232653Y954883D02*
X240431Y962661D01*
X226996Y960540D02*
X232653Y954883D01*
X226996Y960540D02*
X234774Y968318D01*
X239017Y969025D02*
X241138Y966904D01*
X239017D02*
X241138Y969025D01*
X368000Y725526D02*
X396000D01*
X368000Y741494D02*
X396000D01*
X358500Y896936D02*
Y893000D01*
X359812Y894312D01*
X361124Y893000D01*
Y896936D01*
X362436Y893000D02*
X363748D01*
X363092D01*
Y895624D01*
X362436D01*
X366371Y893000D02*
Y896280D01*
Y894968D01*
X365716D01*
X367027D01*
X366371D01*
Y896280D01*
X367027Y896936D01*
X368995Y893000D02*
X370307D01*
X369651D01*
Y895624D01*
X368995D01*
X564000Y978500D02*
X567936D01*
X566624Y977188D01*
X567936Y975876D01*
X564000D01*
X567280Y971940D02*
X567936Y972596D01*
Y973908D01*
X567280Y974564D01*
X564656D01*
X564000Y973908D01*
Y972596D01*
X564656Y971940D01*
X565968D01*
Y973252D01*
X564000Y968661D02*
X567936D01*
X565968Y970629D01*
Y968005D01*
X564818Y642682D02*
X568754D01*
X567442Y641370D01*
X568754Y640058D01*
X564818D01*
X568098Y636122D02*
X568754Y636778D01*
Y638090D01*
X568098Y638746D01*
X565474D01*
X564818Y638090D01*
Y636778D01*
X565474Y636122D01*
X566786D01*
Y637434D01*
X568098Y634810D02*
X568754Y634155D01*
Y632843D01*
X568098Y632187D01*
X567442D01*
X566786Y632843D01*
Y633499D01*
Y632843D01*
X566130Y632187D01*
X565474D01*
X564818Y632843D01*
Y634155D01*
X565474Y634810D01*
X191000Y635500D02*
X187064D01*
X188376Y636812D01*
X187064Y638124D01*
X191000D01*
X187720Y642060D02*
X187064Y641404D01*
Y640092D01*
X187720Y639436D01*
X190344D01*
X191000Y640092D01*
Y641404D01*
X190344Y642060D01*
X189032D01*
Y640748D01*
X191000Y645995D02*
Y643371D01*
X188376Y645995D01*
X187720D01*
X187064Y645339D01*
Y644027D01*
X187720Y643371D01*
X190000Y971500D02*
X186064D01*
X187376Y972812D01*
X186064Y974124D01*
X190000D01*
X186720Y978060D02*
X186064Y977404D01*
Y976092D01*
X186720Y975436D01*
X189344D01*
X190000Y976092D01*
Y977404D01*
X189344Y978060D01*
X188032D01*
Y976748D01*
X190000Y979371D02*
Y980683D01*
Y980027D01*
X186064D01*
X186720Y979371D01*
X344624Y745280D02*
X343968Y745936D01*
X342656D01*
X342000Y745280D01*
Y742656D01*
X342656Y742000D01*
X343968D01*
X344624Y742656D01*
X345936Y742000D02*
X347248D01*
X346592D01*
Y745936D01*
X345936Y745280D01*
X416624D02*
X415968Y745936D01*
X414656D01*
X414000Y745280D01*
Y742656D01*
X414656Y742000D01*
X415968D01*
X416624Y742656D01*
X420560Y742000D02*
X417936D01*
X420560Y744624D01*
Y745280D01*
X419904Y745936D01*
X418592D01*
X417936Y745280D01*
X327624Y842280D02*
X326968Y842936D01*
X325656D01*
X325000Y842280D01*
Y839656D01*
X325656Y839000D01*
X326968D01*
X327624Y839656D01*
X328936Y842936D02*
X331560D01*
Y842280D01*
X328936Y839656D01*
Y839000D01*
X395124Y861280D02*
X394468Y861936D01*
X393156D01*
X392500Y861280D01*
Y858656D01*
X393156Y858000D01*
X394468D01*
X395124Y858656D01*
X396436Y861280D02*
X397092Y861936D01*
X398404D01*
X399060Y861280D01*
Y860624D01*
X398404Y859968D01*
X399060Y859312D01*
Y858656D01*
X398404Y858000D01*
X397092D01*
X396436Y858656D01*
Y859312D01*
X397092Y859968D01*
X396436Y860624D01*
Y861280D01*
X397092Y859968D02*
X398404D01*
X359624Y861280D02*
X358968Y861936D01*
X357656D01*
X357000Y861280D01*
Y858656D01*
X357656Y858000D01*
X358968D01*
X359624Y858656D01*
X360936D02*
X361592Y858000D01*
X362904D01*
X363560Y858656D01*
Y861280D01*
X362904Y861936D01*
X361592D01*
X360936Y861280D01*
Y860624D01*
X361592Y859968D01*
X363560D01*
X313624Y795280D02*
X312968Y795936D01*
X311656D01*
X311000Y795280D01*
Y792656D01*
X311656Y792000D01*
X312968D01*
X313624Y792656D01*
X314936Y792000D02*
X316248D01*
X315592D01*
Y795936D01*
X314936Y795280D01*
X318215D02*
X318871Y795936D01*
X320183D01*
X320839Y795280D01*
Y792656D01*
X320183Y792000D01*
X318871D01*
X318215Y792656D01*
Y795280D01*
X451124Y842280D02*
X450468Y842936D01*
X449156D01*
X448500Y842280D01*
Y839656D01*
X449156Y839000D01*
X450468D01*
X451124Y839656D01*
X452436Y839000D02*
X453748D01*
X453092D01*
Y842936D01*
X452436Y842280D01*
X455716Y839000D02*
X457027D01*
X456371D01*
Y842936D01*
X455716Y842280D01*
X426500Y818936D02*
Y815000D01*
X428468D01*
X429124Y815656D01*
Y818280D01*
X428468Y818936D01*
X426500D01*
X430436Y815000D02*
X431748D01*
X431092D01*
Y818936D01*
X430436Y818280D01*
X438500Y818936D02*
Y815000D01*
X440468D01*
X441124Y815656D01*
Y818280D01*
X440468Y818936D01*
X438500D01*
X445060Y815000D02*
X442436D01*
X445060Y817624D01*
Y818280D01*
X444404Y818936D01*
X443092D01*
X442436Y818280D01*
X450500Y818936D02*
Y815000D01*
X452468D01*
X453124Y815656D01*
Y818280D01*
X452468Y818936D01*
X450500D01*
X454436Y818280D02*
X455092Y818936D01*
X456404D01*
X457060Y818280D01*
Y817624D01*
X456404Y816968D01*
X455748D01*
X456404D01*
X457060Y816312D01*
Y815656D01*
X456404Y815000D01*
X455092D01*
X454436Y815656D01*
X243717Y935783D02*
X246500Y933000D01*
X247891Y934391D01*
Y935319D01*
X246036Y937175D01*
X245109D01*
X243717Y935783D01*
X248355Y940421D02*
X246500Y938566D01*
X247891Y937175D01*
X248355Y938566D01*
X248819Y939030D01*
X249747D01*
X250675Y938102D01*
Y937175D01*
X249747Y936247D01*
X248819D01*
X249217Y674217D02*
X252000Y677000D01*
X250608Y678392D01*
X249681D01*
X247826Y676536D01*
Y675608D01*
X249217Y674217D01*
X246434Y677000D02*
X244579Y678855D01*
X245042Y679319D01*
X248753D01*
X249217Y679783D01*
X513283Y675717D02*
X510500Y678500D01*
X509108Y677108D01*
Y676181D01*
X510964Y674326D01*
X511892D01*
X513283Y675717D01*
X508181Y675253D02*
X507253D01*
X506325Y674326D01*
Y673398D01*
X508181Y671543D01*
X509108Y671543D01*
X510036Y672470D01*
Y673398D01*
X509572Y673862D01*
X508645Y673862D01*
X507253Y672470D01*
X507283Y942283D02*
X504500Y939500D01*
X505892Y938109D01*
X506819D01*
X508674Y939964D01*
Y940891D01*
X507283Y942283D01*
Y936717D02*
X508211Y935789D01*
X507747Y936253D01*
X510530Y939036D01*
X509602D01*
Y934398D02*
X510530Y933470D01*
X510066Y933934D01*
X512849Y936717D01*
X511921D01*
X340600Y768900D02*
Y772836D01*
X341912Y771524D01*
X343224Y772836D01*
Y768900D01*
X344536D02*
Y772836D01*
X346504D01*
X347160Y772180D01*
Y770868D01*
X346504Y770212D01*
X344536D01*
X348471Y772836D02*
Y769556D01*
X349127Y768900D01*
X350439D01*
X351095Y769556D01*
Y772836D01*
X355031D02*
X353719Y772180D01*
X352407Y770868D01*
Y769556D01*
X353063Y768900D01*
X354375D01*
X355031Y769556D01*
Y770212D01*
X354375Y770868D01*
X352407D01*
X356343Y772180D02*
X356999Y772836D01*
X358311D01*
X358967Y772180D01*
Y769556D01*
X358311Y768900D01*
X356999D01*
X356343Y769556D01*
Y772180D01*
X362902Y772836D02*
X360279D01*
Y770868D01*
X361591Y771524D01*
X362247D01*
X362902Y770868D01*
Y769556D01*
X362247Y768900D01*
X360935D01*
X360279Y769556D01*
X364214Y772180D02*
X364870Y772836D01*
X366182D01*
X366838Y772180D01*
Y769556D01*
X366182Y768900D01*
X364870D01*
X364214Y769556D01*
Y772180D01*
X290000Y799500D02*
Y803436D01*
X291968D01*
X292624Y802780D01*
Y801468D01*
X291968Y800812D01*
X290000D01*
X295904Y803436D02*
X294592D01*
X293936Y802780D01*
Y800156D01*
X294592Y799500D01*
X295904D01*
X296560Y800156D01*
Y802780D01*
X295904Y803436D01*
X297871D02*
Y799500D01*
X299183Y800812D01*
X300495Y799500D01*
Y803436D01*
X304431D02*
X301807D01*
Y799500D01*
X304431D01*
X301807Y801468D02*
X303119D01*
X305743Y799500D02*
Y803436D01*
X307711D01*
X308367Y802780D01*
Y801468D01*
X307711Y800812D01*
X305743D01*
X307055D02*
X308367Y799500D01*
X272624Y911656D02*
Y914280D01*
X271968Y914936D01*
X270656D01*
X270000Y914280D01*
Y911656D01*
X270656Y911000D01*
X271968D01*
X271312Y912312D02*
X272624Y911000D01*
X271968D02*
X272624Y911656D01*
X273936Y911000D02*
X275248D01*
X274592D01*
Y914936D01*
X273936Y914280D01*
X273124Y702656D02*
Y705280D01*
X272468Y705936D01*
X271156D01*
X270500Y705280D01*
Y702656D01*
X271156Y702000D01*
X272468D01*
X271812Y703312D02*
X273124Y702000D01*
X272468D02*
X273124Y702656D01*
X277060Y702000D02*
X274436D01*
X277060Y704624D01*
Y705280D01*
X276404Y705936D01*
X275092D01*
X274436Y705280D01*
X483124Y701156D02*
Y703780D01*
X482468Y704436D01*
X481156D01*
X480500Y703780D01*
Y701156D01*
X481156Y700500D01*
X482468D01*
X481812Y701812D02*
X483124Y700500D01*
X482468D02*
X483124Y701156D01*
X484436Y703780D02*
X485092Y704436D01*
X486404D01*
X487060Y703780D01*
Y703124D01*
X486404Y702468D01*
X485748D01*
X486404D01*
X487060Y701812D01*
Y701156D01*
X486404Y700500D01*
X485092D01*
X484436Y701156D01*
X485876Y915344D02*
Y912720D01*
X486532Y912064D01*
X487844D01*
X488500Y912720D01*
Y915344D01*
X487844Y916000D01*
X486532D01*
X487188Y914688D02*
X485876Y916000D01*
X486532D02*
X485876Y915344D01*
X482596Y916000D02*
Y912064D01*
X484564Y914032D01*
X481940D01*
X442124Y734656D02*
Y737280D01*
X441468Y737936D01*
X440156D01*
X439500Y737280D01*
Y734656D01*
X440156Y734000D01*
X441468D01*
X440812Y735312D02*
X442124Y734000D01*
X441468D02*
X442124Y734656D01*
X446060Y737936D02*
X443436D01*
Y735968D01*
X444748Y736624D01*
X445404D01*
X446060Y735968D01*
Y734656D01*
X445404Y734000D01*
X444092D01*
X443436Y734656D01*
X416000Y787500D02*
Y791436D01*
X417968D01*
X418624Y790780D01*
Y789468D01*
X417968Y788812D01*
X416000D01*
X417312D02*
X418624Y787500D01*
X419936D02*
X421248D01*
X420592D01*
Y791436D01*
X419936Y790780D01*
X426500Y839000D02*
Y842936D01*
X428468D01*
X429124Y842280D01*
Y840968D01*
X428468Y840312D01*
X426500D01*
X427812D02*
X429124Y839000D01*
X433060D02*
X430436D01*
X433060Y841624D01*
Y842280D01*
X432404Y842936D01*
X431092D01*
X430436Y842280D01*
X313000Y815500D02*
Y819436D01*
X314968D01*
X315624Y818780D01*
Y817468D01*
X314968Y816812D01*
X313000D01*
X314312D02*
X315624Y815500D01*
X316936Y818780D02*
X317592Y819436D01*
X318904D01*
X319560Y818780D01*
Y818124D01*
X318904Y817468D01*
X318248D01*
X318904D01*
X319560Y816812D01*
Y816156D01*
X318904Y815500D01*
X317592D01*
X316936Y816156D01*
X312500Y839000D02*
Y842936D01*
X314468D01*
X315124Y842280D01*
Y840968D01*
X314468Y840312D01*
X312500D01*
X313812D02*
X315124Y839000D01*
X318404D02*
Y842936D01*
X316436Y840968D01*
X319060D01*
X439000Y839000D02*
Y842936D01*
X440968D01*
X441624Y842280D01*
Y840968D01*
X440968Y840312D01*
X439000D01*
X440312D02*
X441624Y839000D01*
X445560Y842936D02*
X442936D01*
Y840968D01*
X444248Y841624D01*
X444904D01*
X445560Y840968D01*
Y839656D01*
X444904Y839000D01*
X443592D01*
X442936Y839656D01*
X326000Y816000D02*
Y819936D01*
X327968D01*
X328624Y819280D01*
Y817968D01*
X327968Y817312D01*
X326000D01*
X327312D02*
X328624Y816000D01*
X332560Y819936D02*
X331248Y819280D01*
X329936Y817968D01*
Y816656D01*
X330592Y816000D01*
X331904D01*
X332560Y816656D01*
Y817312D01*
X331904Y817968D01*
X329936D01*
X427500Y787500D02*
Y791436D01*
X429468D01*
X430124Y790780D01*
Y789468D01*
X429468Y788812D01*
X427500D01*
X428812D02*
X430124Y787500D01*
X431436Y791436D02*
X434060D01*
Y790780D01*
X431436Y788156D01*
Y787500D01*
X439000D02*
Y791436D01*
X440968D01*
X441624Y790780D01*
Y789468D01*
X440968Y788812D01*
X439000D01*
X440312D02*
X441624Y787500D01*
X442936Y790780D02*
X443592Y791436D01*
X444904D01*
X445560Y790780D01*
Y790124D01*
X444904Y789468D01*
X445560Y788812D01*
Y788156D01*
X444904Y787500D01*
X443592D01*
X442936Y788156D01*
Y788812D01*
X443592Y789468D01*
X442936Y790124D01*
Y790780D01*
X443592Y789468D02*
X444904D01*
X450500Y787500D02*
Y791436D01*
X452468D01*
X453124Y790780D01*
Y789468D01*
X452468Y788812D01*
X450500D01*
X451812D02*
X453124Y787500D01*
X454436Y788156D02*
X455092Y787500D01*
X456404D01*
X457060Y788156D01*
Y790780D01*
X456404Y791436D01*
X455092D01*
X454436Y790780D01*
Y790124D01*
X455092Y789468D01*
X457060D01*
X324000Y792500D02*
Y796436D01*
X325968D01*
X326624Y795780D01*
Y794468D01*
X325968Y793812D01*
X324000D01*
X325312D02*
X326624Y792500D01*
X327936D02*
X329248D01*
X328592D01*
Y796436D01*
X327936Y795780D01*
X331216D02*
X331872Y796436D01*
X333183D01*
X333839Y795780D01*
Y793156D01*
X333183Y792500D01*
X331872D01*
X331216Y793156D01*
Y795780D01*
X379000Y858000D02*
Y861936D01*
X380968D01*
X381624Y861280D01*
Y859968D01*
X380968Y859312D01*
X379000D01*
X380312D02*
X381624Y858000D01*
X382936D02*
X384248D01*
X383592D01*
Y861936D01*
X382936Y861280D01*
X388839Y858000D02*
X386215D01*
X388839Y860624D01*
Y861280D01*
X388183Y861936D01*
X386872D01*
X386215Y861280D01*
X369000Y858000D02*
Y861936D01*
X370968D01*
X371624Y861280D01*
Y859968D01*
X370968Y859312D01*
X369000D01*
X370312D02*
X371624Y858000D01*
X372936D02*
X374248D01*
X373592D01*
Y861936D01*
X372936Y861280D01*
X376216Y858000D02*
X377527D01*
X376871D01*
Y861936D01*
X376216Y861280D01*
X241500Y950500D02*
X244283Y953283D01*
X245674Y951892D01*
Y950964D01*
X244747Y950036D01*
X243819D01*
X242428Y951428D01*
X243355Y950500D02*
Y948645D01*
X244283Y947717D02*
X245211Y946789D01*
X244747Y947253D01*
X247530Y950036D01*
X246602D01*
X248921Y947717D02*
X249849D01*
X250777Y946789D01*
X250777Y945862D01*
X250313Y945398D01*
X249385D01*
X248921Y945862D01*
X249385Y945398D01*
X249385Y944470D01*
X248921Y944006D01*
X247994Y944006D01*
X247066Y944934D01*
Y945862D01*
X229000Y941500D02*
X231783Y944283D01*
X233174Y942892D01*
Y941964D01*
X232247Y941036D01*
X231319D01*
X229928Y942428D01*
X230855Y941500D02*
Y939645D01*
X231783Y938717D02*
X232711Y937789D01*
X232247Y938253D01*
X235030Y941036D01*
X234102D01*
X235494Y935006D02*
X238277Y937789D01*
X235494D01*
X237349Y935934D01*
X231000Y670500D02*
X228217Y673283D01*
X229608Y674675D01*
X230536D01*
X231464Y673747D01*
Y672819D01*
X230072Y671428D01*
X231000Y672355D02*
X232855D01*
X233783Y673283D02*
X234711Y674211D01*
X234247Y673747D01*
X231464Y676530D01*
Y675602D01*
X235174Y680240D02*
X233319Y678385D01*
X234711Y676994D01*
X235174Y678385D01*
X235638Y678849D01*
X236566D01*
X237494Y677921D01*
X237494Y676994D01*
X236566Y676066D01*
X235638D01*
X244500Y657500D02*
X241717Y660283D01*
X243109Y661674D01*
X244036D01*
X244964Y660747D01*
Y659819D01*
X243572Y658428D01*
X244500Y659355D02*
X246355D01*
X247283Y660283D02*
X248211Y661211D01*
X247747Y660747D01*
X244964Y663530D01*
Y662602D01*
X248675Y667240D02*
X248211Y665849D01*
Y663994D01*
X249138Y663066D01*
X250066D01*
X250994Y663994D01*
X250994Y664921D01*
X250530Y665385D01*
X249602Y665385D01*
X248211Y663994D01*
X504318Y663682D02*
X507101Y666465D01*
X508493Y665073D01*
Y664146D01*
X507565Y663218D01*
X506637D01*
X505246Y664610D01*
X506173Y663682D02*
Y661827D01*
X507101Y660899D02*
X508029Y659971D01*
X507565Y660435D01*
X510348Y663218D01*
X509420D01*
X512203Y661363D02*
X514058Y659508D01*
X513595Y659044D01*
X509884D01*
X509420Y658580D01*
X528818Y673682D02*
X526035Y670899D01*
X524644Y672291D01*
Y673218D01*
X525571Y674146D01*
X526499D01*
X527890Y672754D01*
X526963Y673682D02*
Y675537D01*
X526035Y676465D02*
X525107Y677393D01*
X525571Y676929D01*
X522788Y674146D01*
X523716D01*
X521397Y676465D02*
X520469D01*
X519541Y677393D01*
X519541Y678320D01*
X520005Y678784D01*
X520933D01*
X520933Y679712D01*
X521397Y680176D01*
X522324Y680176D01*
X523252Y679248D01*
Y678320D01*
X522788Y677856D01*
X521861D01*
X521861Y676929D01*
X521397Y676465D01*
X521861Y677856D02*
X520933Y678784D01*
X521000Y934000D02*
X518217Y936783D01*
X519608Y938175D01*
X520536D01*
X521464Y937247D01*
Y936319D01*
X520072Y934928D01*
X521000Y935855D02*
X522855D01*
X523783Y936783D02*
X524711Y937711D01*
X524247Y937247D01*
X521464Y940030D01*
Y939102D01*
X525638Y939566D02*
X526566D01*
X527494Y940494D01*
X527494Y941421D01*
X525638Y943277D01*
X524711Y943277D01*
X523783Y942349D01*
Y941421D01*
X524247Y940958D01*
X525175Y940958D01*
X526566Y942349D01*
X506500Y943500D02*
X503717Y946283D01*
X505108Y947674D01*
X506036D01*
X506964Y946747D01*
Y945819D01*
X505572Y944428D01*
X506500Y945355D02*
X508355D01*
X511138Y948138D02*
X509283Y946283D01*
Y949994D01*
X508819Y950457D01*
X507892Y950457D01*
X506964Y949530D01*
Y948602D01*
X509747Y951385D02*
Y952313D01*
X510674Y953240D01*
X511602Y953240D01*
X513457Y951385D01*
X513457Y950457D01*
X512530Y949530D01*
X511602D01*
X509747Y951385D01*
X267000Y932000D02*
X264217Y934783D01*
X265609Y936174D01*
X266536D01*
X267464Y935247D01*
Y934319D01*
X266072Y932928D01*
X267000Y933855D02*
X268855D01*
X271638Y936638D02*
X269783Y934783D01*
Y938494D01*
X269319Y938958D01*
X268391Y938958D01*
X267464Y938030D01*
Y937102D01*
X272566Y937566D02*
X273494Y938494D01*
X273030Y938030D01*
X270247Y940813D01*
Y939885D01*
X244000Y701500D02*
X246783Y704283D01*
X248175Y702891D01*
Y701964D01*
X247247Y701036D01*
X246319D01*
X244928Y702428D01*
X245855Y701500D02*
Y699645D01*
X248638Y696862D02*
X246783Y698717D01*
X250494D01*
X250957Y699181D01*
X250957Y700108D01*
X250030Y701036D01*
X249102D01*
X251421Y694079D02*
X249566Y695934D01*
X253277D01*
X253741Y696398D01*
X253741Y697326D01*
X252813Y698253D01*
X251885D01*
X488000Y682500D02*
X490783Y679717D01*
X489392Y678326D01*
X488464D01*
X487536Y679253D01*
Y680181D01*
X488928Y681572D01*
X488000Y680645D02*
X486145D01*
X483362Y677862D02*
X485217Y679717D01*
Y676006D01*
X485681Y675542D01*
X486609Y675542D01*
X487536Y676470D01*
Y677398D01*
X484753Y674615D02*
Y673687D01*
X483825Y672759D01*
X482898Y672760D01*
X482434Y673223D01*
Y674151D01*
X482898Y674615D01*
X482434Y674151D01*
X481506Y674151D01*
X481042Y674615D01*
X481042Y675542D01*
X481970Y676470D01*
X482898D01*
X504500Y920000D02*
X507283Y922783D01*
X508674Y921391D01*
Y920464D01*
X507747Y919536D01*
X506819D01*
X505428Y920928D01*
X506355Y920000D02*
Y918145D01*
X509138Y915362D02*
X507283Y917217D01*
X510994D01*
X511457Y917681D01*
X511457Y918608D01*
X510530Y919536D01*
X509602D01*
X511457Y913043D02*
X514241Y915825D01*
X511457D01*
X513313Y913970D01*
X245500Y910500D02*
X242717Y913283D01*
X244109Y914674D01*
X245036D01*
X245964Y913747D01*
Y912819D01*
X244572Y911428D01*
X245500Y912355D02*
X247355D01*
X250138Y915138D02*
X248283Y913283D01*
Y916994D01*
X247819Y917457D01*
X246891Y917457D01*
X245964Y916530D01*
Y915602D01*
X250138Y920704D02*
X249675Y919313D01*
Y917457D01*
X250602Y916530D01*
X251530D01*
X252457Y917457D01*
X252457Y918385D01*
X251994Y918849D01*
X251066Y918849D01*
X249675Y917457D01*
X266500Y679500D02*
X269283Y682283D01*
X270674Y680892D01*
Y679964D01*
X269747Y679036D01*
X268819D01*
X267428Y680428D01*
X268355Y679500D02*
Y677645D01*
X271138Y674862D02*
X269283Y676717D01*
X272994D01*
X273458Y677181D01*
X273458Y678109D01*
X272530Y679036D01*
X271602D01*
X274849Y676717D02*
X276704Y674862D01*
X276240Y674398D01*
X272530D01*
X272066Y673934D01*
X509000Y704000D02*
X511783Y701217D01*
X510392Y699825D01*
X509464D01*
X508536Y700753D01*
Y701681D01*
X509928Y703072D01*
X509000Y702145D02*
X507145D01*
X504362Y699362D02*
X506217Y701217D01*
Y697506D01*
X506681Y697043D01*
X507609Y697043D01*
X508536Y697970D01*
Y698898D01*
X505753Y696115D02*
Y695187D01*
X504825Y694260D01*
X503898Y694260D01*
X503434Y694723D01*
Y695651D01*
X502506Y695651D01*
X502042Y696115D01*
X502042Y697043D01*
X502970Y697970D01*
X503898D01*
X504362Y697506D01*
Y696579D01*
X505289D01*
X505753Y696115D01*
X504362Y696579D02*
X503434Y695651D01*
X483000Y941000D02*
X485783Y943783D01*
X487175Y942391D01*
Y941464D01*
X486247Y940536D01*
X485319D01*
X483928Y941928D01*
X484855Y941000D02*
Y939145D01*
X487638Y936362D02*
X485783Y938217D01*
X489494D01*
X489958Y938681D01*
X489958Y939608D01*
X489030Y940536D01*
X488102D01*
X489030Y935898D02*
Y934970D01*
X489958Y934042D01*
X490885Y934042D01*
X492740Y935898D01*
X492740Y936825D01*
X491813Y937753D01*
X490885D01*
X490421Y937289D01*
Y936362D01*
X491813Y934970D01*
X436500Y760000D02*
Y763936D01*
X438468D01*
X439124Y763280D01*
Y761968D01*
X438468Y761312D01*
X436500D01*
X437812D02*
X439124Y760000D01*
X443060D02*
X440436D01*
X443060Y762624D01*
Y763280D01*
X442404Y763936D01*
X441092D01*
X440436Y763280D01*
X446995Y763936D02*
X444372D01*
Y761968D01*
X445683Y762624D01*
X446339D01*
X446995Y761968D01*
Y760656D01*
X446339Y760000D01*
X445027D01*
X444372Y760656D01*
X449500Y760000D02*
Y763936D01*
X451468D01*
X452124Y763280D01*
Y761968D01*
X451468Y761312D01*
X449500D01*
X450812D02*
X452124Y760000D01*
X453436Y763280D02*
X454092Y763936D01*
X455404D01*
X456060Y763280D01*
Y762624D01*
X455404Y761968D01*
X454748D01*
X455404D01*
X456060Y761312D01*
Y760656D01*
X455404Y760000D01*
X454092D01*
X453436Y760656D01*
X457372Y763280D02*
X458027Y763936D01*
X459339D01*
X459995Y763280D01*
Y760656D01*
X459339Y760000D01*
X458027D01*
X457372Y760656D01*
Y763280D01*
X315124Y754780D02*
X314468Y755436D01*
X313156D01*
X312500Y754780D01*
Y754124D01*
X313156Y753468D01*
X314468D01*
X315124Y752812D01*
Y752156D01*
X314468Y751500D01*
X313156D01*
X312500Y752156D01*
X316436Y751500D02*
X317748D01*
X317092D01*
Y755436D01*
X316436Y754780D01*
X366500Y747936D02*
Y747280D01*
X367812Y745968D01*
X369124Y747280D01*
Y747936D01*
X367812Y745968D02*
Y744000D01*
X370436D02*
X371748D01*
X371092D01*
Y747936D01*
X370436Y747280D01*
X295000Y760936D02*
Y757000D01*
Y758312D01*
X297624Y760936D01*
X295656Y758968D01*
X297624Y757000D01*
X301560Y760936D02*
X298936D01*
Y757000D01*
X301560D01*
X298936Y758968D02*
X300248D01*
X302871Y760936D02*
Y760280D01*
X304183Y758968D01*
X305495Y760280D01*
Y760936D01*
X304183Y758968D02*
Y757000D01*
X294500Y860436D02*
Y857812D01*
X295812Y856500D01*
X297124Y857812D01*
Y860436D01*
X301060Y859780D02*
X300404Y860436D01*
X299092D01*
X298436Y859780D01*
Y857156D01*
X299092Y856500D01*
X300404D01*
X301060Y857156D01*
X304995Y859780D02*
X304339Y860436D01*
X303027D01*
X302372Y859780D01*
Y857156D01*
X303027Y856500D01*
X304339D01*
X304995Y857156D01*
X294500Y866500D02*
Y870436D01*
X296468D01*
X297124Y869780D01*
Y868468D01*
X296468Y867812D01*
X294500D01*
X295812D02*
X297124Y866500D01*
X298436Y870436D02*
X301060Y866500D01*
Y870436D02*
X298436Y866500D01*
X294000Y880436D02*
X296624D01*
X295312D01*
Y876500D01*
X297936Y880436D02*
X300560Y876500D01*
Y880436D02*
X297936Y876500D01*
X297124Y889780D02*
X296468Y890436D01*
X295156D01*
X294500Y889780D01*
Y887156D01*
X295156Y886500D01*
X296468D01*
X297124Y887156D01*
Y888468D01*
X295812D01*
X298436Y886500D02*
Y890436D01*
X301060Y886500D01*
Y890436D01*
X302372D02*
Y886500D01*
X304339D01*
X304995Y887156D01*
Y889780D01*
X304339Y890436D01*
X302372D01*
X331000D02*
Y887812D01*
X332312Y886500D01*
X333624Y887812D01*
Y890436D01*
X337560Y889780D02*
X336904Y890436D01*
X335592D01*
X334936Y889780D01*
Y887156D01*
X335592Y886500D01*
X336904D01*
X337560Y887156D01*
X341495Y889780D02*
X340839Y890436D01*
X339527D01*
X338872Y889780D01*
Y887156D01*
X339527Y886500D01*
X340839D01*
X341495Y887156D01*
X333624Y879780D02*
X332968Y880436D01*
X331656D01*
X331000Y879780D01*
Y879124D01*
X331656Y878468D01*
X332968D01*
X333624Y877812D01*
Y877156D01*
X332968Y876500D01*
X331656D01*
X331000Y877156D01*
X334936Y880436D02*
Y876500D01*
X336904D01*
X337560Y877156D01*
Y879780D01*
X336904Y880436D01*
X334936D01*
X338872Y876500D02*
Y879124D01*
X340183Y880436D01*
X341495Y879124D01*
Y876500D01*
Y878468D01*
X338872D01*
X333624Y870280D02*
X332968Y870936D01*
X331656D01*
X331000Y870280D01*
Y867656D01*
X331656Y867000D01*
X332968D01*
X333624Y867656D01*
Y868968D01*
X332312D01*
X334936Y867000D02*
Y870936D01*
X337560Y867000D01*
Y870936D01*
X338872D02*
Y867000D01*
X340839D01*
X341495Y867656D01*
Y870280D01*
X340839Y870936D01*
X338872D01*
X333624Y859780D02*
X332968Y860436D01*
X331656D01*
X331000Y859780D01*
Y859124D01*
X331656Y858468D01*
X332968D01*
X333624Y857812D01*
Y857156D01*
X332968Y856500D01*
X331656D01*
X331000Y857156D01*
X337560Y859780D02*
X336904Y860436D01*
X335592D01*
X334936Y859780D01*
Y857156D01*
X335592Y856500D01*
X336904D01*
X337560Y857156D01*
X338872Y860436D02*
Y856500D01*
X341495D01*
X418624Y889780D02*
X417968Y890436D01*
X416656D01*
X416000Y889780D01*
Y887156D01*
X416656Y886500D01*
X417968D01*
X418624Y887156D01*
Y888468D01*
X417312D01*
X419936Y886500D02*
Y890436D01*
X422560Y886500D01*
Y890436D01*
X423872D02*
Y886500D01*
X425839D01*
X426495Y887156D01*
Y889780D01*
X425839Y890436D01*
X423872D01*
X416000Y880936D02*
X418624D01*
X417312D01*
Y877000D01*
X419936Y880936D02*
X422560Y877000D01*
Y880936D02*
X419936Y877000D01*
X416000Y867000D02*
Y870936D01*
X417968D01*
X418624Y870280D01*
Y868968D01*
X417968Y868312D01*
X416000D01*
X417312D02*
X418624Y867000D01*
X419936Y870936D02*
X422560Y867000D01*
Y870936D02*
X419936Y867000D01*
X416000Y860436D02*
Y857812D01*
X417312Y856500D01*
X418624Y857812D01*
Y860436D01*
X422560Y859780D02*
X421904Y860436D01*
X420592D01*
X419936Y859780D01*
Y857156D01*
X420592Y856500D01*
X421904D01*
X422560Y857156D01*
X426495Y859780D02*
X425839Y860436D01*
X424527D01*
X423872Y859780D01*
Y857156D01*
X424527Y856500D01*
X425839D01*
X426495Y857156D01*
X450500Y890436D02*
Y887812D01*
X451812Y886500D01*
X453124Y887812D01*
Y890436D01*
X457060Y889780D02*
X456404Y890436D01*
X455092D01*
X454436Y889780D01*
Y887156D01*
X455092Y886500D01*
X456404D01*
X457060Y887156D01*
X460995Y889780D02*
X460339Y890436D01*
X459027D01*
X458371Y889780D01*
Y887156D01*
X459027Y886500D01*
X460339D01*
X460995Y887156D01*
X453124Y879780D02*
X452468Y880436D01*
X451156D01*
X450500Y879780D01*
Y877156D01*
X451156Y876500D01*
X452468D01*
X453124Y877156D01*
X454436Y880436D02*
Y876500D01*
X457060D01*
X458371Y880436D02*
Y876500D01*
Y877812D01*
X460995Y880436D01*
X459027Y878468D01*
X460995Y876500D01*
X453124Y869280D02*
X452468Y869936D01*
X451156D01*
X450500Y869280D01*
Y866656D01*
X451156Y866000D01*
X452468D01*
X453124Y866656D01*
Y867968D01*
X451812D01*
X454436Y866000D02*
Y869936D01*
X457060Y866000D01*
Y869936D01*
X458371D02*
Y866000D01*
X460339D01*
X460995Y866656D01*
Y869280D01*
X460339Y869936D01*
X458371D01*
X451000Y860436D02*
Y856500D01*
X452968D01*
X453624Y857156D01*
Y859780D01*
X452968Y860436D01*
X451000D01*
X454936D02*
X456248D01*
X455592D01*
Y856500D01*
X454936D01*
X456248D01*
X460183Y860436D02*
X458872D01*
X458216Y859780D01*
Y857156D01*
X458872Y856500D01*
X460183D01*
X460839Y857156D01*
Y859780D01*
X460183Y860436D01*
X384500Y774936D02*
Y771000D01*
X386468D01*
X387124Y771656D01*
Y772312D01*
X386468Y772968D01*
X384500D01*
X386468D01*
X387124Y773624D01*
Y774280D01*
X386468Y774936D01*
X384500D01*
X388436Y773624D02*
Y771656D01*
X389092Y771000D01*
X391060D01*
Y770344D01*
X390404Y769688D01*
X389748D01*
X391060Y771000D02*
Y773624D01*
X396307Y774936D02*
Y771000D01*
X397619Y772312D01*
X398931Y771000D01*
Y774936D01*
X402211Y771000D02*
X400899D01*
X400243Y771656D01*
Y772968D01*
X400899Y773624D01*
X402211D01*
X402867Y772968D01*
Y772312D01*
X400243D01*
X404179Y771000D02*
Y773624D01*
X406147D01*
X406803Y772968D01*
Y771000D01*
X408114Y774936D02*
Y771000D01*
Y772968D01*
X408770Y773624D01*
X410082D01*
X410738Y772968D01*
Y771000D01*
X412706Y773624D02*
X414018D01*
X414674Y772968D01*
Y771000D01*
X412706D01*
X412050Y771656D01*
X412706Y772312D01*
X414674D01*
X416642Y771000D02*
X417954D01*
X418610Y771656D01*
Y772968D01*
X417954Y773624D01*
X416642D01*
X415986Y772968D01*
Y771656D01*
X416642Y771000D01*
X377500Y777500D02*
Y781436D01*
X378812Y780124D01*
X380124Y781436D01*
Y777500D01*
X381436D02*
X382748D01*
X382092D01*
Y780124D01*
X381436D01*
X387339D02*
X385371D01*
X384716Y779468D01*
Y778156D01*
X385371Y777500D01*
X387339D01*
X388651Y780124D02*
Y777500D01*
Y778812D01*
X389307Y779468D01*
X389963Y780124D01*
X390619D01*
X393243Y777500D02*
X394555D01*
X395211Y778156D01*
Y779468D01*
X394555Y780124D01*
X393243D01*
X392587Y779468D01*
Y778156D01*
X393243Y777500D01*
X400458Y781436D02*
Y777500D01*
X402426D01*
X403082Y778156D01*
Y780780D01*
X402426Y781436D01*
X400458D01*
X404394Y780124D02*
Y777500D01*
Y778812D01*
X405050Y779468D01*
X405706Y780124D01*
X406362D01*
X408986Y777500D02*
X410298D01*
X410954Y778156D01*
Y779468D01*
X410298Y780124D01*
X408986D01*
X408330Y779468D01*
Y778156D01*
X408986Y777500D01*
X412266D02*
Y780124D01*
X414234D01*
X414889Y779468D01*
Y777500D01*
X418169D02*
X416857D01*
X416201Y778156D01*
Y779468D01*
X416857Y780124D01*
X418169D01*
X418825Y779468D01*
Y778812D01*
X416201D01*
D42*
X451000Y813000D02*
X456000D01*
X439500D02*
X444500D01*
X427500D02*
X432500D01*
X497929Y676464D02*
X501464Y672929D01*
X507536Y925929D02*
X511071Y929464D01*
X256536Y938571D02*
X260071Y935036D01*
X247429Y686036D02*
X250964Y689571D01*
X306000Y772500D02*
Y792500D01*
X296000D02*
X306000D01*
X296000Y772500D02*
Y792500D01*
Y772500D02*
X306000D01*
X390933Y796567D02*
Y817433D01*
X370067Y796567D02*
Y817433D01*
X390933D01*
X370067Y796567D02*
X390933D01*
X358000Y870500D02*
X398000D01*
X358000Y890500D02*
X398000D01*
X358000Y870500D02*
Y890500D01*
X398000Y870500D02*
Y890500D01*
X428500Y893500D02*
X448500D01*
X428500Y853500D02*
Y893500D01*
Y853500D02*
X448500D01*
Y893500D01*
X280925Y897497D02*
X282178Y898750D01*
X286910Y903483D02*
X288163Y904736D01*
X276819Y901604D02*
X280925Y897497D01*
X284057Y908842D02*
X288163Y904736D01*
X287750Y712678D02*
X289003Y711425D01*
X281764Y718663D02*
X283017Y717410D01*
X284896Y707319D02*
X289003Y711425D01*
X277658Y714557D02*
X281764Y718663D01*
X473322Y716250D02*
X474575Y717503D01*
X467337Y710264D02*
X468590Y711517D01*
X474575Y717503D02*
X478681Y713396D01*
X467337Y710264D02*
X471443Y706158D01*
X470497Y906075D02*
X471750Y904822D01*
X476483Y900090D02*
X477736Y898837D01*
X470497Y906075D02*
X474604Y910181D01*
X477736Y898837D02*
X481842Y902943D01*
X457087Y732752D02*
X458858D01*
X448622D02*
X450394D01*
X458858Y726945D02*
Y732752D01*
X448622Y726945D02*
Y732752D01*
X307500Y893500D02*
X327500D01*
X307500Y853500D02*
Y893500D01*
Y853500D02*
X327500D01*
Y893500D01*
X340000Y755500D02*
X420000D01*
Y765500D01*
X340000D02*
X420000D01*
X340000Y755500D02*
Y765500D01*
M02*
