%FSLAX25Y25*%
%MOIN*%
G70*
G01*
G75*
G04 Layer_Physical_Order=1*
G04 Layer_Color=255*
%ADD10R,0.05906X0.05118*%
%ADD11R,0.07480X0.02756*%
G04:AMPARAMS|DCode=12|XSize=59.06mil|YSize=51.18mil|CornerRadius=0mil|HoleSize=0mil|Usage=FLASHONLY|Rotation=315.000|XOffset=0mil|YOffset=0mil|HoleType=Round|Shape=Rectangle|*
%AMROTATEDRECTD12*
4,1,4,-0.03897,0.00278,-0.00278,0.03897,0.03897,-0.00278,0.00278,-0.03897,-0.03897,0.00278,0.0*
%
%ADD12ROTATEDRECTD12*%

G04:AMPARAMS|DCode=13|XSize=59.06mil|YSize=51.18mil|CornerRadius=0mil|HoleSize=0mil|Usage=FLASHONLY|Rotation=225.000|XOffset=0mil|YOffset=0mil|HoleType=Round|Shape=Rectangle|*
%AMROTATEDRECTD13*
4,1,4,0.00278,0.03897,0.03897,0.00278,-0.00278,-0.03897,-0.03897,-0.00278,0.00278,0.03897,0.0*
%
%ADD13ROTATEDRECTD13*%

%ADD14O,0.08268X0.01181*%
%ADD15O,0.01181X0.08268*%
G04:AMPARAMS|DCode=16|XSize=78.74mil|YSize=47.24mil|CornerRadius=0mil|HoleSize=0mil|Usage=FLASHONLY|Rotation=225.000|XOffset=0mil|YOffset=0mil|HoleType=Round|Shape=Rectangle|*
%AMROTATEDRECTD16*
4,1,4,0.01114,0.04454,0.04454,0.01114,-0.01114,-0.04454,-0.04454,-0.01114,0.01114,0.04454,0.0*
%
%ADD16ROTATEDRECTD16*%

G04:AMPARAMS|DCode=17|XSize=78.74mil|YSize=47.24mil|CornerRadius=0mil|HoleSize=0mil|Usage=FLASHONLY|Rotation=135.000|XOffset=0mil|YOffset=0mil|HoleType=Round|Shape=Rectangle|*
%AMROTATEDRECTD17*
4,1,4,0.04454,-0.01114,0.01114,-0.04454,-0.04454,0.01114,-0.01114,0.04454,0.04454,-0.01114,0.0*
%
%ADD17ROTATEDRECTD17*%

G04:AMPARAMS|DCode=18|XSize=35.43mil|YSize=37.4mil|CornerRadius=0mil|HoleSize=0mil|Usage=FLASHONLY|Rotation=225.000|XOffset=0mil|YOffset=0mil|HoleType=Round|Shape=Rectangle|*
%AMROTATEDRECTD18*
4,1,4,-0.00070,0.02575,0.02575,-0.00070,0.00070,-0.02575,-0.02575,0.00070,-0.00070,0.02575,0.0*
%
%ADD18ROTATEDRECTD18*%

G04:AMPARAMS|DCode=19|XSize=35.43mil|YSize=37.4mil|CornerRadius=0mil|HoleSize=0mil|Usage=FLASHONLY|Rotation=225.000|XOffset=0mil|YOffset=0mil|HoleType=Round|Shape=Rectangle|*
%AMROTATEDRECTD19*
4,1,4,-0.00070,0.02575,0.02575,-0.00070,0.00070,-0.02575,-0.02575,0.00070,-0.00070,0.02575,0.0*
%
%ADD19ROTATEDRECTD19*%

G04:AMPARAMS|DCode=20|XSize=35.43mil|YSize=37.4mil|CornerRadius=0mil|HoleSize=0mil|Usage=FLASHONLY|Rotation=315.000|XOffset=0mil|YOffset=0mil|HoleType=Round|Shape=Rectangle|*
%AMROTATEDRECTD20*
4,1,4,-0.02575,-0.00070,0.00070,0.02575,0.02575,0.00070,-0.00070,-0.02575,-0.02575,-0.00070,0.0*
%
%ADD20ROTATEDRECTD20*%

G04:AMPARAMS|DCode=21|XSize=35.43mil|YSize=37.4mil|CornerRadius=0mil|HoleSize=0mil|Usage=FLASHONLY|Rotation=315.000|XOffset=0mil|YOffset=0mil|HoleType=Round|Shape=Rectangle|*
%AMROTATEDRECTD21*
4,1,4,-0.02575,-0.00070,0.00070,0.02575,0.02575,0.00070,-0.00070,-0.02575,-0.02575,-0.00070,0.0*
%
%ADD21ROTATEDRECTD21*%

%ADD22R,0.03543X0.03740*%
%ADD23R,0.03543X0.03740*%
%ADD24C,0.01063*%
%ADD25C,0.01181*%
%ADD26C,0.02756*%
%ADD27C,0.01969*%
%ADD28C,0.05906*%
%ADD29R,0.05906X0.05906*%
%ADD30R,0.05906X0.05906*%
%ADD31C,0.31496*%
%ADD32C,0.08268*%
%ADD33C,0.01969*%
%ADD34C,0.03150*%
D10*
X453500Y801760D02*
D03*
Y809240D02*
D03*
X442000Y801760D02*
D03*
Y809240D02*
D03*
X430000Y801760D02*
D03*
Y809240D02*
D03*
X453500Y783240D02*
D03*
Y775760D02*
D03*
X442000Y783240D02*
D03*
Y775760D02*
D03*
X430500Y783240D02*
D03*
Y775760D02*
D03*
X384500Y845760D02*
D03*
Y853240D02*
D03*
X373000D02*
D03*
Y845760D02*
D03*
X360500Y853240D02*
D03*
Y845760D02*
D03*
X316500Y787740D02*
D03*
Y780260D02*
D03*
X453500Y834740D02*
D03*
Y827260D02*
D03*
X396000Y853240D02*
D03*
Y845760D02*
D03*
X453500Y747760D02*
D03*
Y755240D02*
D03*
X441500Y747760D02*
D03*
Y755240D02*
D03*
X329000Y827260D02*
D03*
Y834740D02*
D03*
X316000Y827260D02*
D03*
Y834740D02*
D03*
X329000Y780260D02*
D03*
Y787740D02*
D03*
Y803760D02*
D03*
Y811240D02*
D03*
X316000D02*
D03*
Y803760D02*
D03*
X442000Y834740D02*
D03*
Y827260D02*
D03*
X418500Y783240D02*
D03*
Y775760D02*
D03*
X430000Y827260D02*
D03*
Y834740D02*
D03*
X417500Y737240D02*
D03*
Y729760D02*
D03*
X345500D02*
D03*
Y737240D02*
D03*
D11*
X327500Y732500D02*
D03*
Y742500D02*
D03*
Y752500D02*
D03*
X303000Y732500D02*
D03*
Y742500D02*
D03*
Y752500D02*
D03*
D12*
X507645Y682645D02*
D03*
X502355Y677355D02*
D03*
X478355Y679355D02*
D03*
X483645Y684645D02*
D03*
X504645Y706645D02*
D03*
X499355Y701355D02*
D03*
X506145Y956145D02*
D03*
X500855Y950855D02*
D03*
X525355Y931355D02*
D03*
X530645Y936645D02*
D03*
X250355Y928855D02*
D03*
X255645Y934145D02*
D03*
X248855Y654855D02*
D03*
X254145Y660145D02*
D03*
X225855Y677355D02*
D03*
X231145Y682645D02*
D03*
X276645Y933645D02*
D03*
X271355Y928355D02*
D03*
X252355Y909855D02*
D03*
X257645Y915145D02*
D03*
D13*
X531463Y678037D02*
D03*
X526173Y683327D02*
D03*
X501173Y659327D02*
D03*
X506463Y654037D02*
D03*
X507145Y910355D02*
D03*
X501855Y915645D02*
D03*
X480355Y936145D02*
D03*
X485645Y930855D02*
D03*
X501355Y935645D02*
D03*
X506645Y930355D02*
D03*
X257145Y679855D02*
D03*
X251855Y685145D02*
D03*
X277645Y680855D02*
D03*
X272355Y686145D02*
D03*
X251355Y706645D02*
D03*
X256645Y701355D02*
D03*
X254145Y951355D02*
D03*
X248855Y956645D02*
D03*
X225855Y937145D02*
D03*
X231145Y931855D02*
D03*
D14*
X364358Y796173D02*
D03*
Y798142D02*
D03*
X364358Y800110D02*
D03*
Y802079D02*
D03*
Y804047D02*
D03*
Y806016D02*
D03*
Y807984D02*
D03*
Y809953D02*
D03*
Y811921D02*
D03*
Y813890D02*
D03*
X364358Y815858D02*
D03*
Y817827D02*
D03*
X396642D02*
D03*
Y815858D02*
D03*
X396642Y813890D02*
D03*
Y811921D02*
D03*
Y809953D02*
D03*
Y807984D02*
D03*
Y806016D02*
D03*
Y804047D02*
D03*
Y802079D02*
D03*
Y800110D02*
D03*
X396642Y798142D02*
D03*
Y796173D02*
D03*
D15*
X369673Y823142D02*
D03*
X371642D02*
D03*
X373610Y823142D02*
D03*
X375579D02*
D03*
X377547D02*
D03*
X379516D02*
D03*
X381484D02*
D03*
X383453D02*
D03*
X385421D02*
D03*
X387390D02*
D03*
X389358Y823142D02*
D03*
X391327D02*
D03*
Y790858D02*
D03*
X389358D02*
D03*
X387390Y790858D02*
D03*
X385421D02*
D03*
X383453D02*
D03*
X381484D02*
D03*
X379516D02*
D03*
X377547D02*
D03*
X375579D02*
D03*
X373610D02*
D03*
X371642Y790858D02*
D03*
X369673D02*
D03*
D16*
X521105Y652581D02*
D03*
X532065Y663542D02*
D03*
X233713Y961601D02*
D03*
X222753Y950640D02*
D03*
D17*
X223399Y663713D02*
D03*
X234360Y652753D02*
D03*
X531601Y950287D02*
D03*
X520640Y961247D02*
D03*
D18*
X284544Y901116D02*
D03*
X281707Y911364D02*
D03*
X470956Y713884D02*
D03*
X473793Y703636D02*
D03*
D19*
X274282Y903939D02*
D03*
X481218Y711061D02*
D03*
D20*
X285384Y715044D02*
D03*
X275136Y712207D02*
D03*
X474116Y902456D02*
D03*
X484364Y905293D02*
D03*
D21*
X282561Y704782D02*
D03*
X476939Y912718D02*
D03*
D22*
X453740Y732752D02*
D03*
X448500Y723500D02*
D03*
D23*
X459000D02*
D03*
D24*
X442000Y809240D02*
Y810500D01*
X437000Y815500D02*
X442000Y810500D01*
X437000Y815500D02*
Y839971D01*
X433000Y839809D02*
X435000Y837809D01*
Y815000D02*
Y837809D01*
X430000Y810000D02*
X435000Y815000D01*
X435311Y841660D02*
X437000Y839971D01*
X388000Y861400D02*
X389500Y859900D01*
Y847600D02*
Y859900D01*
X387660Y845760D02*
X389500Y847600D01*
X378260Y840500D02*
X396000D01*
X373000Y845760D02*
X378260Y840500D01*
X392940Y844940D02*
Y845760D01*
X483645Y684645D02*
Y701355D01*
X476900Y708100D02*
X483645Y701355D01*
X454400Y708100D02*
X476900D01*
X365000Y754000D02*
X380500Y738500D01*
Y731000D02*
Y738500D01*
X375000Y725500D02*
X380500Y731000D01*
X365000Y754000D02*
Y760500D01*
X379516Y745984D02*
Y790858D01*
Y745984D02*
X392000Y733500D01*
X405500Y815500D02*
Y865200D01*
X403890Y813890D02*
X405500Y815500D01*
X396642Y813890D02*
X403890D01*
X402200Y868500D02*
X405500Y865200D01*
X393000Y885500D02*
X408500Y870000D01*
Y814500D02*
Y870000D01*
X405921Y811921D02*
X408500Y814500D01*
X411500Y837100D02*
X416060Y841660D01*
X411500Y808500D02*
Y837100D01*
X405079Y802079D02*
X411500Y808500D01*
X396642Y802079D02*
X405079D01*
X396642Y811921D02*
X405921D01*
X391327Y773623D02*
X400450Y764500D01*
X391327Y773623D02*
Y790858D01*
X316500Y780260D02*
X325933D01*
X321297D02*
Y788697D01*
X323600Y783200D02*
X326000Y785600D01*
X321297Y788697D02*
X324850Y792250D01*
X436500Y726000D02*
X454400Y708100D01*
X436500Y726000D02*
Y753300D01*
X358516Y807984D02*
X364358D01*
X355260Y811240D02*
X358516Y807984D01*
X329000Y811240D02*
X355260D01*
X359547Y809953D02*
X364358D01*
X353500Y816000D02*
X359547Y809953D01*
X353500Y816000D02*
Y888000D01*
X360000Y765353D02*
X377547Y782900D01*
X360000Y745500D02*
Y765353D01*
Y745500D02*
X372000Y733500D01*
X317706Y863706D02*
Y883706D01*
X312500Y858500D02*
X317706Y863706D01*
X341500Y821500D02*
X345000Y818000D01*
X341500Y821500D02*
Y827000D01*
X338500Y823500D02*
Y842500D01*
X329000Y814000D02*
X338500Y823500D01*
X322500Y858500D02*
X338500Y842500D01*
X329000Y827260D02*
X329260Y827000D01*
X335000D01*
X327000Y816000D02*
X329000Y814000D01*
Y811240D02*
Y814000D01*
X310100Y816000D02*
X327000D01*
X294800Y800700D02*
X310100Y816000D01*
X276645Y933645D02*
X281707Y928582D01*
X564100Y967600D02*
Y971200D01*
X533145Y936645D02*
X564100Y967600D01*
X530645Y936645D02*
X533145D01*
X510300Y934010D02*
Y949000D01*
X506645Y930355D02*
X510300Y934010D01*
X280500Y712500D02*
Y725400D01*
X264128Y696128D02*
X280500Y712500D01*
X261872Y696128D02*
X264128D01*
X500855Y936145D02*
Y953855D01*
Y936145D02*
X501355Y935645D01*
X502082Y905293D02*
X507145Y910355D01*
X484364Y905293D02*
X502082D01*
X410142Y798142D02*
X418500Y806500D01*
X436500Y753300D02*
X438440Y755240D01*
X459000Y723500D02*
X461000Y725500D01*
X507645Y682645D02*
X508327Y683327D01*
X219000Y678900D02*
X224100Y684000D01*
X219000Y677336D02*
Y678900D01*
Y677336D02*
X221600Y674736D01*
X229789Y684000D02*
X231145Y682645D01*
X224100Y684000D02*
X229789D01*
X251355Y706645D02*
X256918Y712207D01*
X252290Y937500D02*
X255645Y934145D01*
X239500Y937500D02*
X252290D01*
X231500Y945500D02*
X239500Y937500D01*
X234145Y928855D02*
X250355D01*
X231145Y931855D02*
X234145Y928855D01*
X473793Y683918D02*
X478355Y679355D01*
X473793Y683918D02*
Y703636D01*
X459000Y830500D02*
Y864500D01*
X455760Y827260D02*
X459000Y830500D01*
X453500Y827260D02*
X455760D01*
X456500Y867000D02*
X459000Y864500D01*
Y779000D02*
Y812500D01*
X453500Y818000D02*
X459000Y812500D01*
X453500Y818000D02*
Y827260D01*
X455760Y775760D02*
X459000Y779000D01*
X453500Y775760D02*
X455760D01*
X459700Y894900D02*
X461000Y893600D01*
Y725500D02*
Y893600D01*
X271855Y686145D02*
X272355D01*
X256645Y701355D02*
X271855Y686145D01*
X256145Y914145D02*
X260500Y909789D01*
Y892572D02*
Y909789D01*
Y892572D02*
X265072Y888000D01*
X483645Y684645D02*
X499355Y700355D01*
Y701355D01*
X377994Y797500D02*
X379194Y798700D01*
X370823Y797500D02*
X377994D01*
X368998Y795675D02*
X370823Y797500D01*
X368642Y798142D02*
X374600Y804100D01*
X364358Y798142D02*
X368642D01*
X323000Y799500D02*
X353600D01*
X318740Y803760D02*
X323000Y799500D01*
X316000Y803760D02*
X318740D01*
X353600Y799500D02*
X358147Y804047D01*
X368998Y795675D02*
X369673Y795000D01*
X368500Y796173D02*
X368998Y795675D01*
X369673Y790858D02*
Y795000D01*
X364358Y796173D02*
X368500D01*
X385421Y790858D02*
Y797379D01*
X384100Y798700D02*
X385421Y797379D01*
X329000Y803760D02*
X346740D01*
X347000Y803500D01*
X296700Y792700D02*
X306500Y802500D01*
X296700Y780500D02*
Y792700D01*
X265072Y888000D02*
X288000Y865072D01*
Y770000D02*
Y865072D01*
X278500Y727400D02*
X280500Y725400D01*
X304600Y781800D02*
X315000Y771400D01*
Y761500D02*
Y771400D01*
Y761500D02*
X316000Y760500D01*
X271355Y928355D02*
X274500Y925211D01*
Y911500D02*
Y925211D01*
Y911500D02*
X279500Y906500D01*
Y874000D02*
Y906500D01*
X296700Y753800D02*
Y780500D01*
X326000Y785600D02*
Y787740D01*
X438440Y755240D02*
X441500D01*
X429060D02*
X438440D01*
X418500Y792000D02*
Y821760D01*
X506463Y653800D02*
X507064D01*
X392940Y845760D02*
X396000D01*
X379600Y798700D02*
X384100D01*
X379194D02*
X379600D01*
X373610Y823142D02*
Y828600D01*
X326000Y787740D02*
X329000D01*
X364358Y806016D02*
X370700Y806000D01*
X370684Y806016D02*
X370700Y806000D01*
X364358Y806016D02*
X370684D01*
X294800Y742700D02*
Y800700D01*
Y742700D02*
X300700Y736800D01*
X330600D01*
X341900Y725500D01*
X375000D01*
X381400Y796300D02*
X381484Y796216D01*
X316000Y827260D02*
X329000D01*
X389358Y769900D02*
Y790858D01*
X387390Y790858D02*
Y806090D01*
X395740Y729760D02*
X417500D01*
X392000Y733500D02*
X395740Y729760D01*
X345500D02*
X368260D01*
X372000Y733500D01*
X234360Y659760D02*
X234700Y660100D01*
X497145Y677355D02*
X502355D01*
X255645Y924700D02*
Y934145D01*
X433500Y858500D02*
Y861800D01*
X438500Y866800D01*
Y883500D01*
X443500Y888500D01*
X396000Y818468D02*
Y845760D01*
Y818468D02*
X396642Y817827D01*
X379600Y798700D02*
Y812600D01*
X325933Y780260D02*
X329000Y780260D01*
X316000Y834740D02*
Y855000D01*
X312500Y858500D02*
X316000Y855000D01*
X384500Y853240D02*
Y861200D01*
X378300Y867400D02*
X384500Y861200D01*
X378300Y867400D02*
Y880800D01*
X383000Y885500D01*
X358147Y804047D02*
X364358D01*
X442000Y821900D02*
Y827260D01*
X401047Y809953D02*
X402600Y808400D01*
X396642Y809953D02*
X401047D01*
X396642Y800110D02*
X407510D01*
X414500Y807100D01*
Y836000D01*
X418309Y839809D01*
X433000D01*
X430000Y809240D02*
Y810000D01*
X416060Y841660D02*
X435311D01*
X424200Y766400D02*
Y773560D01*
X422000Y775760D02*
X424200Y773560D01*
X418500Y775760D02*
X422000D01*
X355900Y821927D02*
Y863500D01*
Y821927D02*
X360000Y817827D01*
X364358D01*
X384500Y845760D02*
X387660D01*
X388000Y861400D02*
Y891400D01*
X386000Y893400D02*
X388000Y891400D01*
X358900Y893400D02*
X386000D01*
X353500Y888000D02*
X358900Y893400D01*
X418500Y783240D02*
Y792000D01*
X396642Y798142D02*
X410142D01*
X413100Y771200D02*
X429060Y755240D01*
X413100Y771200D02*
Y790623D01*
X407550Y796173D02*
X413100Y790623D01*
X396642Y796173D02*
X407550D01*
X485645Y922900D02*
Y930855D01*
X492900Y915645D02*
X501855D01*
X281707Y911364D02*
Y928582D01*
X459000Y719900D02*
Y723500D01*
X250855Y671255D02*
Y685145D01*
X317706Y883706D02*
X322500Y888500D01*
X316000Y760500D02*
X345000D01*
X298000Y781800D02*
X304600D01*
X296700Y780500D02*
X298000Y781800D01*
Y752500D02*
X303000D01*
X333300Y766800D02*
Y786440D01*
X332000Y787740D02*
X333300Y786440D01*
X329000Y787740D02*
X332000D01*
X248855Y956955D02*
Y959145D01*
X245600Y953700D02*
X248855Y956955D01*
X377547Y782900D02*
Y790858D01*
X502355Y672145D02*
Y677355D01*
Y672145D02*
X507000Y667500D01*
X506463Y653800D02*
Y654037D01*
X507064Y653800D02*
X514400Y646464D01*
X441500Y747760D02*
X446000D01*
X448500Y745260D01*
Y723500D02*
Y745260D01*
X296700Y753800D02*
X298000Y752500D01*
X508327Y683327D02*
X526173D01*
X424000Y827260D02*
X430000D01*
X418500Y821760D02*
X424000Y827260D01*
X369673Y823142D02*
Y832873D01*
X373000Y836200D01*
Y845760D01*
X393000Y867200D02*
Y875500D01*
X391700Y865900D02*
X393000Y867200D01*
X391700Y847000D02*
Y865900D01*
Y847000D02*
X392940Y845760D01*
X256918Y712207D02*
X275136D01*
X441500Y755240D02*
X453500D01*
X257145Y671400D02*
Y679855D01*
X254145Y668400D02*
X257145Y671400D01*
X254145Y660145D02*
Y668400D01*
X453500Y783240D02*
Y801760D01*
X442000Y783240D02*
Y801760D01*
X430000Y792700D02*
Y801760D01*
Y792700D02*
X430500Y792200D01*
Y783240D02*
Y792200D01*
Y775760D02*
X442000D01*
X453500D01*
X366700Y845760D02*
X373000D01*
X366700Y845760D02*
X366700Y845760D01*
X360500Y845760D02*
X366700D01*
X373000Y853240D02*
Y875500D01*
D25*
X399854Y853240D02*
X403500Y849594D01*
Y818358D02*
Y849594D01*
X401000Y815858D02*
X403500Y818358D01*
X464000Y893000D02*
X464044D01*
X503210Y706645D02*
X504645D01*
X374600Y804100D02*
Y815500D01*
X355000Y793142D02*
X360000Y798142D01*
X364358D01*
X374242Y815858D02*
X396642D01*
X374242D02*
X374600Y815500D01*
X357000Y879500D02*
X363000Y885500D01*
X357000Y866700D02*
Y879500D01*
Y866700D02*
X360500Y863200D01*
X256500Y905500D02*
Y905711D01*
X256000Y905500D02*
X256500D01*
X422140Y834740D02*
X430000D01*
X371642Y818458D02*
X374242Y815858D01*
X383453Y771700D02*
Y785400D01*
X331600Y834740D02*
Y838600D01*
X381484Y790858D02*
Y796216D01*
X383453Y771700D02*
X390000Y765153D01*
X277645Y680855D02*
X277900D01*
X396642Y815858D02*
X401000D01*
X396000Y853240D02*
X399854D01*
X371642Y818458D02*
Y823142D01*
X383453Y785400D02*
X387000Y781853D01*
X383453Y785400D02*
Y790858D01*
X329000Y834740D02*
X331600D01*
X360500Y853240D02*
Y863200D01*
X285300Y715044D02*
X285384D01*
X312940Y811240D02*
X316000D01*
D26*
X223000Y932500D02*
Y933500D01*
X225082Y935582D02*
Y944082D01*
X530458Y663542D02*
X532065D01*
X525250Y668750D02*
X530458Y663542D01*
X517000Y672737D02*
X522300Y678037D01*
X517000Y656686D02*
Y672737D01*
Y656686D02*
X521105Y652581D01*
X238211Y665500D02*
X248855Y654855D01*
X225186Y665500D02*
X238211D01*
X223399Y663713D02*
X225186Y665500D01*
X262700Y924800D02*
Y951300D01*
X245000Y969000D02*
X262700Y951300D01*
X232000Y969000D02*
X245000D01*
X253000Y949500D02*
X254145Y950645D01*
X243000Y949500D02*
X253000D01*
X222753Y959753D02*
X232000Y969000D01*
X222753Y950640D02*
Y959753D01*
X511605Y952150D02*
X513467Y950287D01*
X531601D01*
X511350Y952150D02*
X511605D01*
X507645Y955855D02*
X511350Y952150D01*
X506000Y964500D02*
X509605D01*
X493500Y952000D02*
X506000Y964500D01*
X493500Y923518D02*
Y952000D01*
X482700Y912718D02*
X493500Y923518D01*
X530500Y677000D02*
X531000Y676500D01*
X523337Y677000D02*
X530500D01*
X522300Y678037D02*
X523337Y677000D01*
X433500Y888500D02*
Y889289D01*
X480355Y936145D01*
X460573Y916000D02*
X474116Y902456D01*
X223000Y933500D02*
X225082Y935582D01*
Y944082D02*
X236557Y955557D01*
X450000Y875000D02*
Y890000D01*
X445500Y894500D02*
X450000Y890000D01*
X439500Y894500D02*
X445500D01*
X459116Y713884D02*
X470956D01*
X453740Y719260D02*
X459116Y713884D01*
X453740Y719260D02*
Y732752D01*
X332000Y796000D02*
X355000Y773000D01*
X320000Y796000D02*
X332000D01*
X316500Y792500D02*
X320000Y796000D01*
X316500Y787740D02*
Y792500D01*
X464044Y893000D02*
X473500Y902456D01*
X443500Y868500D02*
X450000Y875000D01*
X443500Y868500D02*
X450000Y862000D01*
Y850200D02*
Y862000D01*
X442000Y842200D02*
X450000Y850200D01*
X490427Y719427D02*
X503210Y706645D01*
X476500Y719427D02*
X490427D01*
X470956Y713884D02*
X476500Y719427D01*
X447700Y834740D02*
X453500D01*
X448000Y819400D02*
Y834740D01*
Y819400D02*
X453500Y813900D01*
X355000Y760500D02*
Y793142D01*
X301000Y787500D02*
X312719D01*
X310500Y808800D02*
X312940Y811240D01*
X310500Y790200D02*
Y808800D01*
Y790200D02*
X312960Y787740D01*
X523500Y938699D02*
X531601Y946800D01*
X523500Y933211D02*
Y938699D01*
Y933211D02*
X525355Y931355D01*
X509605Y964500D02*
X512858Y961247D01*
X481218Y711061D02*
X484389Y707889D01*
X508481Y661500D02*
X517400Y652581D01*
X503347Y661500D02*
X508481D01*
X501173Y659327D02*
X503347Y661500D01*
X292100Y721760D02*
Y893560D01*
Y695055D02*
Y721760D01*
X285384Y715044D02*
X292100Y721760D01*
X301000Y777500D02*
X311000Y767500D01*
Y746500D02*
Y767500D01*
X307000Y742500D02*
X311000Y746500D01*
X262700Y924800D02*
X270500Y917000D01*
Y907722D02*
Y917000D01*
Y907722D02*
X274282Y903939D01*
X252355Y909855D02*
X256500Y905711D01*
X233713Y958400D02*
X236557Y955557D01*
X233713Y958787D02*
X243000Y949500D01*
X233713Y958787D02*
Y961601D01*
X292100Y893560D02*
X297160Y888500D01*
X284544Y901116D02*
X292100Y893560D01*
X277900Y680855D02*
X292100Y695055D01*
X234360Y652753D02*
Y659760D01*
X269500Y694900D02*
X279382Y704782D01*
X282561D01*
X470956Y713884D02*
Y730000D01*
X464000Y736956D02*
X470956Y730000D01*
X464000Y736956D02*
Y893000D01*
X390000Y748000D02*
X400760Y737240D01*
X417500D01*
X442000Y834740D02*
X447700Y834740D01*
X531601Y946800D02*
Y950287D01*
X517400Y652581D02*
X521105D01*
X303000Y742500D02*
X307000D01*
X512858Y961247D02*
X520640D01*
X476939Y912718D02*
X482700D01*
X519355Y931355D02*
X525355D01*
X512000Y924000D02*
X519355Y931355D01*
X233713Y958400D02*
Y961601D01*
X297160Y888500D02*
X312500D01*
X345500Y737240D02*
Y751000D01*
X355000Y760500D01*
X442000Y834740D02*
Y842200D01*
X453500Y809240D02*
Y813900D01*
X453740Y732752D02*
Y747760D01*
X225855Y671756D02*
Y677355D01*
X223399Y669300D02*
X225855Y671756D01*
X223399Y663713D02*
Y669300D01*
D27*
X390000Y748000D02*
Y765153D01*
D28*
X301000Y777500D02*
D03*
X393000Y885500D02*
D03*
Y875500D02*
D03*
X383000Y885500D02*
D03*
Y875500D02*
D03*
X373000Y885500D02*
D03*
Y875500D02*
D03*
X363000D02*
D03*
X443500Y868500D02*
D03*
Y878500D02*
D03*
Y888500D02*
D03*
X433500Y858500D02*
D03*
Y868500D02*
D03*
Y878500D02*
D03*
Y888500D02*
D03*
X322500Y868500D02*
D03*
Y878500D02*
D03*
Y888500D02*
D03*
X312500Y858500D02*
D03*
Y868500D02*
D03*
Y878500D02*
D03*
Y888500D02*
D03*
X345000Y760500D02*
D03*
X355000D02*
D03*
X365000D02*
D03*
X375000D02*
D03*
X385000D02*
D03*
X395000D02*
D03*
X405000D02*
D03*
D29*
X301000Y787500D02*
D03*
X443500Y858500D02*
D03*
X322500D02*
D03*
D30*
X363000Y885500D02*
D03*
X415000Y760500D02*
D03*
D31*
X545500Y639500D02*
D03*
X210318Y639318D02*
D03*
X544682Y974682D02*
D03*
X209318D02*
D03*
D32*
X392000Y733500D02*
D03*
X372000D02*
D03*
D33*
X400450Y764500D02*
D03*
X323600Y783200D02*
D03*
X335000Y827000D02*
D03*
X341500D02*
D03*
X456500Y867000D02*
D03*
X371000Y805000D02*
D03*
X324850Y792250D02*
D03*
X345000Y818000D02*
D03*
X347000Y803500D02*
D03*
X306500Y802500D02*
D03*
X288000Y770000D02*
D03*
X256500Y905500D02*
D03*
X402200Y868500D02*
D03*
X373610Y828600D02*
D03*
X381400Y796300D02*
D03*
X278500Y727400D02*
D03*
X389358Y769900D02*
D03*
X492900Y915645D02*
D03*
X387390Y806090D02*
D03*
X510300Y949000D02*
D03*
X497145Y677355D02*
D03*
X459700Y894900D02*
D03*
X255645Y924700D02*
D03*
X387000Y781853D02*
D03*
X379600Y812600D02*
D03*
X422140Y834740D02*
D03*
X442000Y821900D02*
D03*
X402600Y808400D02*
D03*
X331600Y838600D02*
D03*
X424200Y766400D02*
D03*
X355900Y863500D02*
D03*
X564100Y971200D02*
D03*
X485645Y922900D02*
D03*
X459000Y719900D02*
D03*
X250855Y671255D02*
D03*
X333300Y766800D02*
D03*
X245600Y953700D02*
D03*
X231500Y945500D02*
D03*
X507000Y667500D02*
D03*
X221600Y674736D02*
D03*
X514400Y646464D02*
D03*
D34*
X223000Y932500D02*
D03*
X484500Y708000D02*
D03*
X524000Y668500D02*
D03*
X232500Y665500D02*
D03*
X234700Y660100D02*
D03*
X269500Y694900D02*
D03*
X522300Y678037D02*
D03*
X512000Y924000D02*
D03*
M02*
