M48
;Layer_Color=9474304
;FILE_FORMAT=2:5
INCH,LZ
;TYPE=PLATED
T1F00S00C0.01181
T2F00S00C0.01968
T3F00S00C0.03543
T4F00S00C0.03937
T5F00S00C0.27953
%
T01
X02216Y0674736
X0250855Y0671255
X02785Y07274
X0288Y077
X03333Y07668
X0389358Y07699
X040045Y07645
X04242Y07664
X0459Y07199
X0497145Y0677355
X0507Y06675
X05144Y0646464
X04929Y0915645
X0485645Y09229
X04597Y08949
X04565Y0867
X04022Y08685
X03559Y08635
X03316Y08386
X0335Y0827
X03415
X0345Y0818
X0347Y08035
X0371Y0805
X03796Y08126
X038739Y080609
X03814Y07963
X0387Y0781853
X04026Y08084
X042214Y083474
X0442Y08219
X037361Y08286
X032485Y079225
X03236Y07832
X03065Y08025
X02565Y09055
X0255645Y09247
X02456Y09537
X02315Y09455
X05103Y0949
X05641Y09712
T02
X02347Y06601
X02325Y06655
X02695Y06949
X04845Y0708
X05223Y0678037
X0524Y06685
X0512Y0924
X0223Y09325
T03
X0301Y07775
X0345Y07605
X0355
X0365
X0375
X0385
X0395
X0405
X0415
X04335Y08585
X04435
Y08685
Y08785
Y08885
X04335
Y08785
Y08685
X0393Y08755
Y08855
X0383
Y08755
X0373
Y08855
X0363
Y08755
X03225Y08785
Y08685
Y08585
X03125
Y08685
Y08785
Y08885
X03225
X0301Y07875
T04
X0372Y07335
X0392
T05
X0210318Y0639318
X05455Y06395
X0209318Y0974682
X0544682
M30
